/* XPM */
static char *result[] = {
/* columns rows colors chars-per-pixel */
"60 60 203 2 ",
"   c #26353A",
".  c #762423",
"X  c #7E2623",
"o  c #3E4A4B",
"O  c #757975",
"+  c #89211D",
"@  c #832624",
"#  c #882A27",
"$  c #952926",
"%  c #992A25",
"&  c #992823",
"*  c #9B342D",
"=  c #8E312A",
"-  c #A52D27",
";  c #A22E2A",
":  c #AA2F28",
">  c #AB2E26",
",  c #AD322C",
"<  c #A1372B",
"1  c #B5332D",
"2  c #BB342B",
"3  c #A53832",
"4  c #BD3631",
"5  c #B33834",
"6  c #BD3A33",
"7  c #BA3A35",
"8  c #C2342B",
"9  c #CB342C",
"0  c #C0392F",
"q  c #C43632",
"w  c #C53A33",
"e  c #CC3A34",
"r  c #C73F38",
"t  c #CD3E38",
"y  c #D33B35",
"u  c #D93D38",
"i  c #C72F27",
"p  c #AA4739",
"a  c #B4453B",
"s  c #BA463A",
"d  c #BB533C",
"f  c #C4443B",
"g  c #CD433A",
"h  c #C94439",
"j  c #D4433C",
"k  c #DB433B",
"l  c #DC493F",
"z  c #D3463C",
"x  c #E1443D",
"c  c #B64C45",
"v  c #B95342",
"b  c #A85F48",
"n  c #98645D",
"m  c #B6614D",
"M  c #AF6451",
"N  c #AB614C",
"B  c #8D536E",
"V  c #A85065",
"C  c #AD7571",
"Z  c #CD4A41",
"A  c #C54D47",
"S  c #D44C42",
"D  c #DA4D43",
"F  c #DF4740",
"G  c #C95448",
"H  c #DD5146",
"J  c #D8584B",
"K  c #D05E51",
"L  c #E24C43",
"P  c #E45B4D",
"I  c #E35448",
"U  c #E45F52",
"Y  c #CF6F5B",
"T  c #C07A5C",
"R  c #E76C5D",
"E  c #E66759",
"W  c #D77B66",
"Q  c #CC7166",
"!  c #019376",
"~  c #009679",
"^  c #019A7C",
"/  c #0D987D",
"(  c #14947A",
")  c #1C927A",
"_  c #188870",
"`  c #2E8C76",
"'  c #27967E",
"]  c #458C75",
"[  c #B0836F",
"{  c #CD845E",
"}  c #D38967",
"|  c #D98A71",
" . c #DB9876",
".. c #D08965",
"X. c #DFA27D",
"o. c #E0A17B",
"O. c #6D6398",
"+. c #7B6C96",
"@. c #746CA1",
"#. c #7972A8",
"$. c #806D92",
"%. c #91758D",
"&. c #817BAD",
"*. c #837DB0",
"=. c #039D81",
"-. c #099E84",
";. c #01A285",
":. c #0DA286",
">. c #02A68A",
",. c #05A98E",
"<. c #15A58A",
"1. c #16A389",
"2. c #11AC90",
"3. c #22A58A",
"4. c #2BA88F",
"5. c #2BAC92",
"6. c #25AE94",
"7. c #34AB92",
"8. c #3DAE95",
"9. c #39B197",
"0. c #2AB095",
"q. c #46A38B",
"w. c #4BA791",
"e. c #47AB94",
"r. c #55AF99",
"t. c #44B39A",
"y. c #4BB29A",
"u. c #53B49D",
"i. c #5AB39D",
"p. c #60AF8E",
"a. c #69AB93",
"s. c #75B396",
"d. c #63B59F",
"f. c #5DB9A1",
"g. c #55B7A0",
"h. c #69BBA6",
"j. c #A58D9F",
"k. c #89BE9D",
"l. c #84B898",
"z. c #8B84B5",
"x. c #8780B3",
"c. c #A08EAA",
"v. c #94BDA2",
"b. c #88BFA4",
"n. c #A2A5A5",
"m. c #DEAA8A",
"M. c #C7A693",
"N. c #E7A78B",
"B. c #E6A988",
"V. c #ECB38E",
"C. c #ECB695",
"Z. c #EDBA95",
"A. c #EDBC9B",
"S. c #E8B597",
"D. c #F3BD9A",
"F. c #F1B893",
"G. c #D2B2AD",
"H. c #F6BCA2",
"J. c #8EC3A3",
"K. c #8FCAAD",
"L. c #92C4A5",
"P. c #96C6A9",
"I. c #9BC7AB",
"U. c #96C9AA",
"Y. c #9BCAAC",
"T. c #9AC1A7",
"R. c #8FCBB0",
"E. c #9ECEB1",
"W. c #A2CEB2",
"Q. c #ABCCB6",
"!. c #A3D1B4",
"~. c #ACD5BA",
"^. c #ACD5BB",
"/. c #B1D8BE",
"(. c #B4D7BF",
"). c #B7CDB6",
"_. c #EFC09C",
"`. c #F3C29E",
"'. c #C5CCB8",
"]. c #CFD0BA",
"[. c #EDC9AB",
"{. c #E9C2AB",
"}. c #F2C4A2",
"|. c #F6C9A6",
" X c #F5CAAB",
".X c #F9CDAB",
"XX c #F3C8A9",
"oX c #FAD1AF",
"OX c #F8CCB0",
"+X c #FAD3B3",
"@X c #FBD6B8",
"#X c #FDDABD",
"$X c #F7D2B4",
"%X c #B6DAC2",
"&X c #BADCC5",
"*X c #BEDEC8",
"=X c #C5DCC7",
"-X c #FDDCC2",
";X c #C5E1CD",
":X c #CAE4CF",
">X c #CBE4D2",
",X c #C7E2D1",
"<X c None",
/* pixels */
"<X<X<X<X<X<X<X<X<X<X<X<X<X<X<X<X<X<X<X<X<X<X<X<X<X<X<X<X<X<X<X<X<X<X<X<X<X<X<X<X<X<X<X<X<X<X<X<X<X<X<X<X<X<X<X<X<X<X<X<X",
"<X<X<X<X<X<X<X<X<X<X<X<X<X<X<X<X<X<X<X<X<X<X<X<X<X<X<X<X<X<X<X<X<X<X<X<X<X<X<X<X<X<X<X<X<X<X<X<X<X<X<X<X<X<X<X<X<X<X<X<X",
"<X<X<X<X<X<X<X<X<X<X<X<X<X<X<X<X<X<X<X<X<X<X<X<X<X<X<X<X<X<X<X<X<X<X<X<X<X<XE U P D <X<X<X<X<X<X<X<X<X<X<X<X<X<X<X<X<X<X",
"<X<X<X<X<X<X<X<X<X<X<X<X<X<X<X<X<X<X<X<X<X<X<X<X<X<X<X<X<X<X<X<X<X<X<X<XK S l k x L F G <X<X<X<X<X<X<X<X<X<X<X<X<X<X<X<X",
"<X<X<X<X<X<X<X<X<X<X<X<X<X<X<X<X<X<X<X<X<X<X<X<X<X<X<X<X<X<X<X<X<X<X<XR J k k x u J E P E J <X<X<X<X<X<X<X<X<X<X<X<X<X<X",
"<X<X<X<X<X<X<X<X<X<X<X<X<X<X<X<X<X<X<X<X<X<X<X<X<X<X<X<X<X<X<X<X<X<XE z z D r S P F j t y l G <X<X<X<X<X<X<X<X<X<X<X<X<X",
"<X<X<X<X<X<X<X<X<X<X<X<X<X<X<X<X<X<X<X<X<X<X<X<X<X<X<X<X<X<X<X<X<X<XI l 4 s g g f s d - & > H <X<X<X<X<X<X<X<X<X<X<X<X<X",
"<X<X<X<X<X<X<X<X<X<X<X<X<X<X<X<X<X<X<X<X<X<X<X<X<X<X<X<X<X<X<X<X<XS L k 9  .N.o.F.D.B.d > h <X<X<X<X<X<X<X<X<X<X<X<X<X<X",
"<X<X<X<X<X<X<X<X<X<X<X<X<X<X<X<X<X<X<X<X<X<X<X<X<X<X<X<X<X<X<X<X<XH u i h D.o n.V.m.C = <X<X<X<X<X<X<X<X<X<X<X<X<X<X<X<X",
"<X<X<X<X<X<X<X<X<X<X<X<X<X<X<X<X<X<X<X<X<X<X<X<X<X<X<X<X<X<X<X<X<Xk i g 3 .XO ]._.  G.* <X<X<X<X<X<X<X<X<X<X<X<X<X<X<X<X",
"<X<X<X<X<X<X<X<X<X<X<X<X<X<X<X<X<X<X<X<X<X<X<X<X<X<X<X<X<X<X<X<Xg 9 2 : d H.OX X|. XC.1 <X<X<X<X<X<X<X<X<X<X<X<X<X<X<X<X",
"<X<X<X<X<X<X<X<X<X<X<X<X<X<X<X<X<X<X<X<X<X<X<X<X<X<X<X<X<X<X<XS g 2 0 . S.H.H.XX$X|.D.r A <X<X<X<X<X<X<X<X<X<X<X<X<X<X<X",
"<X<X<X<X<X<X<X<X<X<X<X<X<X<X<X<X<X<X<X<X<X<X<X<X<X<X<X<X<XG g F w w # . # oX+XQ G.H.m r H U E E R <X<X<X<X<X<X<X<X<X<X<X",
"<X<X<X<X<X<X<X<X<X<X<X<X<X<X<X<X<X<X<X<X<X<X<X<X<X<X<X<X<Xc I l 0 @ 5 + = { Z..XD.N $ 2 u u x L I S <X<X<X<X<XA z Z <X<X",
"<X<X<X<X<X<X<X<X<X<X<X<X<X<X<X<X<X<X<X<X<X<X<X<X<X<X<X<Xc I k w % $ w s : s J ..b @ $ , q y e q x 3 <X<X<X<XH z r w J <X",
"<X<X<X<X<X<X<X<X<X<X<X<X<X<X<X<X<X<X<X<X<X<X<X<X<X<X<X<XZ x y 8 . , 6 w w * Z.W S.M M 3 1 q y q x , Z Z S g 7 H Z 7 7 <X",
"<X<X<X<X<X<X<X<X<X<X<X<X<X<X<X<X<X<X<X<X<X<X<X<X<X<X<X<XH k 9 2 # # @ @ T o.C.oXW  X+X$XA 4 y e L ; 4 7 1 w D f <X<Xa <X",
"<X<X<X<X<X<X<X<X<X<X<X<X<X<X<X<X<X<X<X<X<X<X<X<X<X<X<X<Xz y 8 6 $ % $ * -X.X`.`.G.G.[.$Xc.B e w L S , 1 z k j <X<X<X<X<X",
"<X<X<X<X<X<X<X<X<X<X<X<X<X<X<X<X<X<X<X<X<X<X<X<X<X<X<X<Xh e 2 2 % % % v @XD.V.j.z.z.&.+.#.*.V w u F I L k y g <X<X<X<X<X",
"<X<X<X<X<X<X<X<X<X<X<X<X<X<X<X<X<X<X<X<X<X<X<X<X<X<X<X<Xw y 2 2 5 ; % | .XC.} %.@.z.#.O.+.&.B l , r t e H Z 4 <X<X<X<X<X",
"<X<X<X<X<X<X<X<X<X<X<X<X<X<X<X<X<X<X<X<X<X<X<X<X<X<X<X<Xs j 2 2 1 > , }.D.o.%.C $.O.+. X XG.B.r Z , 5 H L ; 5 <X<X<X<X<X",
"<X<X<X<X<X<X<X<X<X<X<X<X<X<X<X<X<X<X<X<X<X<X<X<X<X<X<X<X<Xx i 2 1 1 1 +XD.3 O B.`.oX-X+XoX@XoXs t F F u u 7 <X<X<X<X<X<X",
"<X<X<X<X<X<X<X<X<X<X<X<X<X<X<X<X<X<X<X<X<X<X<X<X<X<X<X<X<Xe w 2 2 2 h .XD.@ + ..C.|.$X.XoXoX|.`.Q q e e t <X<X<X<X<X<X<X",
"<X<X<X<X<X<X<X<X<X<X<X<X<X<X<X<X<X<X<X<X<X<X<X<X<X<X<X<X<X<Xj i 8 2 V.|.o.& & +  .`.|.+X#X@X`.B.$XN.q q z <X<X<X<X<X<X<X",
"<X<X<X<X<X<X<X<X<X<X<X<X<X<X<X<X<X<X<X<X<X<X<X<X<X<X<X<X<X<X4 y i | @X}.< : > & + D..X+X#X#X}. .A.+XC.e c <XZ.D.<X<X<X<X",
"<X<X<X<X<X<X<X<X<X<X<X<X<X<X<X<X<X<X<X<X<X<X<X<X<X<X<X<X<X<X<Xw N.-X.XB.% : M.].'.M.oX.X-X-XoX@ W D..XD.<X<X#XC.<X<X<X<X",
"<X<X<X<X<X<X<X<X<X<X<X<X<X<X<X<X<X<X<X<X<X<X<X<X<X<X<X<X<X<X<XA.-X.XZ.& - C ).v.I.U.=X X#X$X+XJ.n c V.|.$X}.|.A.<X<X<X<X",
"<X<X<X<X<X<X<X<X<X<X<X<X<X<X<X<X<X<X<X<X<X<X<X<X<X<X<X<X<X<X<X-XoXZ.> 1 2 [ v.p.] a.R.^.+X-X+Xs.v.A <X<XZ.}.}.<X<X<X<X<X",
"<X<X<X<X<X<X<X<X<X<X<X<X<X<X<X<X<X<X<X<X<X<X<X<X<X[.<X<X<X<X#X.XZ.<X<X4 y 2 k.f.d.w.` a.(.+XoXL.Q.<X<X<X<X<X<X<X<X<X<X<X",
"<X<X<X<X<X<X<X<X<X<X<X<X<X<X<X<X<X<X<X<X<X<X<X<XB.Z._.$X[.+X|.<X<X<X<X<X<Xa h.h.i.t.5.-.q.[.].*X<X<X<X<X<X<X<X<X<X<X<X<X",
"<X<X<X<X<X<X<X<X<X<X<X<X<X<X<X<X<X<X<X<X<X<X<X<X<X<XZ.|.|.S.<X<X<X<X<X<X<Xi.h.f.t.0.,.;.^ s._ <X<X<X<X<X<X<X<X<X<X<X<X<X",
"<X<X<X<X<X<X<X<X<X<X<X<X<X<X<X<X<X<X<X<X<X<X<X<X<X<X<X<X<X<X<X<X<X<X<X<X<Xh.f.y.9.,.>.;.^ ^ :.<X<X<X<X<X<X<X<X<X<X<X<X<X",
"<X<X<X<X<X<X<X<X<X<X<X<X<X<X<X<X<X<X<X<X<X<X<X<X<X<X<X<X<X<X<X<X<X<X<X<Xw.h.y.9.0.,.;.^ ^ ~ 3.<X<X<X<X<X<X<X<X<X<X<X<X<X",
"<X<X<X<X<X<X<X<X<X<X<X<X<X<X<X<X<X<X<X<X<X<X<X<X<X<X<X<X<X<X<X<X<X<X<X<Xi.f.t.9.2.>.;.^ ! ~ ' <X<X<X<X<X<X<X<X<X<X<X<X<X",
"<X<X<X<X<X<X<X<X<X/.&X&X;X;X>X<X<X<X<X<X<X<X<X<X<X<X<X<X<X<X<X<X<X<X<X<Xf.g.t.5.2.>.^ ~ ! :.<X<X<X<X<X<X<X<X<X<X<X<X<X<X",
"<X<X<X<X<X<X<X<X<X<X*X>X>X>X>X>X<X<X<X<X<X<X<X<X<X<X<X<X<X<X<X<X<X<X<X<Xf.u.t.5.>.=.^ ! ! 3.<X<X<X<X<X<X<X<X<X<X<X<X<X<X",
"<X<X<X<X<X<X<X<X<X<X<X;X;X,X;X>X*X<X<X<X<X<X<X<X<X<X<X<X<X<X<X<X<X<X<X<Xf.y.8.6.;.^ ~ ! ^ ' <X<X<X<X<X<X<X<X<X<X<X<X<X<X",
"<X<X<X<X<X<X<X<X<X<X<X*X>X*X;X%X&X%X<X<X<X<X<X<X<X<X<X<X<X<X<X<X<X<X<Xq.i.y.7.<.;.^ ! ! 3.<X<X<X<X<X<X<X<X<X<X<X<X<X<X<X",
"<X<X<X<X<X<X<X<X<X<X<X*X%X(.&X/.&XQ.<X<X<X<X<X<X<X<X<X<X<X<X<X<X<X<X<Xe.u.t.4.<.^ ~ ! ^ ' <X<X<X<X<X<X<X<X<X<X<X<X<X<X<X",
"<X<X<X<X<X<X<X<X<X<X<X<X~.^.~.!.^.W.<X<X<X<X<X<X<X<X<X<X<X<X<X<X<X<X<Xi.u.8.3.=.^ ! ! <.<X<X<X<X<X<X<X<X<X<X<X<X<X<X<X<X",
"<X<X<X<X<X<X<X<X<X<X<X<XW.~.E.W.Y.Y.^.<X<X<X<X<X<X<X<X<X<X<X<X<X<X<X<Xi.e.7.<.^ ! ! ^ ) <X<X<X<X<X<X<X<X<X<X<X<X<X<X<X<X",
"<X<X<X<X<X<X<X<X<X<X<X<XY.Q.I.W.P.P.W.<X<X<X<X<X<X<X<X<X<X<X<X<X<X<Xw.i.e.1.=.~ ! ! -.<X<X<X<X<X<X<X<X<X<X<X<X<X<X<X<X<X",
"<X<X<X<X<X<X<X<X<X<X<X<XT.T.L.W.L.T.Y.<X<X<X<X<X<X<X<X<X<X<X<X<X<X<Xg.y.4.=.~ ! ! ;.<X<X<X<X<X<X<X<X<X<X<X<X<X<X<X<X<X<X",
"<X<X<X<X<X<X<X<X<X<X<X<XY.L.J.T.J.P.P.<X<X<X<X<X<X<X<X<X<X<X<X<X<Xw.u.7.-.~ ! ! =.<X<X<X<X<X<X<X<X<X<X<X<X<X<X<X<X<X<X<X",
"<X<X<X<X<X<X;X<X<X<X<X<X<XJ.L.L.J.Y.L.<X<X<X<X<X<X<X<X<X<X<X<X<X<Xu.7.-.~ ! ! ^ ) <X<X<X<X<X<X<X<X<X<X<X<X<X<X<X<X<X<X<X",
"<X<X~.&X;X:X&X*X~./.<X<X<XL.L.J.L.U.J.<X<X<X<X<X<X<X<X<X<X<X<X<Xu.7.=.~ ! ! ^ ( <X<X<X<X<X<X<X<X<X<X<X<X<X<X<X<X<X<X<X<X",
"<X~.<X<X;X:X%X%X!./.E.!.<X<XL.U.Y.J.L.<X<X<X<X<X<X<X<X<X<X<X<Xu.4.=.~ ! ! =.) <X<X<X<X<X<X<X<X<X<X<X<X<X<X<X<X<X<X<X<X<X",
"<X<X<X<X<X<X/.~./.E.E.!.L.Y.!.U.U.!.!.E.<X<X<X<X<X<X<X<X<Xw.y.1.~ ! ! ! =.<X<X<X<X<X<X<X<X<X<X<X<X<X<X<X<X<X<X<X<X<X<X<X",
"<X<X<X<X<X<X%X!.~.E.E.U.P.U.k.U.!.!.~.~.(.<X<X<X<X<X<Xw.y.5.=.! ! ! =.( <X<X<X<X<X<X<X<X<X<X<X<X<X<X<X<X<X<X<X<X<X<X<X<X",
"<X<X<X<X<X<X<X~.E.!.U.E.U.J.k.k.k.Y.~././.;Xi.i.r.y.7.<.=.! ! ! -.-.<X<X<X<X<X<X<X<X<X<X<X<X<X<X<X<X<X<X<X<X<X<X<X<X<X<X",
"<X<X<X<X<X<X<X<X!.U.E.U.J.L.U.U.L.k.l.l.l.` :.;.;.=.=.^ ^ =./ ' <X<X<X<X<X<X<X<X<X<X<X<X<X<X<X<X<X<X<X<X<X<X<X<X<X<X<X<X",
"<X<X<X<X<X<X<X<X<XY.U.P.U.U.Y.U.P.L.L.<X<X<X<X<X<X<X<X<X<X<X<X<X<X<X<X<X<X<X<X<X<X<X<X<X<X<X<X<X<X<X<X<X<X<X<X<X<X<X<X<X",
"<X<X<X<X<X<X<X<X<X<X<XY.P.L.U.!.<X<X<X<X<X<X<X<X<X<X<X<X<X<X<X<X<X<X<X<X<X<X<X<X<X<X<X<X<X<X<X<X<X<X<X<X<X<X<X<X<X<X<X<X",
"<X<X<X<X<X<X<X<X<X<X<X<X<X<X<X<X<X<X<X<X<X<X<X<X<X<X<X<X<X<X<X<X<X<X<X<X<X<X<X<X<X<X<X<X<X<X<X<X<X<X<X<X<X<X<X<X<X<X<X<X",
"<X<X<X<X<X<X<X<X<X<X<X<X<X<X<X<X<X<X<X<X<X<X<X<X<X<X<X<X<X<X<X<X<X<X<X<X<X<X<X<X<X<X<X<X<X<X<X<X<X<X<X<X<X<X<X<X<X<X<X<X",
"<X<X<X<X<X<X<X<X<X<X<X<X<X<X<X<X<X<X<X<X<X<X<X<X<X<X<X<X<X<X<X<X<X<X<X<X<X<X<X<X<X<X<X<X<X<X<X<X<X<X<X<X<X<X<X<X<X<X<X<X",
"<X<X<X<X<X<X<X<X<X<X<X<X<X<X<X<X<X<X<X<X<X<X<X<X<X<X<X<X<X<X<X<X<X<X<X<X<X<X<X<X<X<X<X<X<X<X<X<X<X<X<X<X<X<X<X<X<X<X<X<X",
"<X<X<X<X<X<X<X<X<X<X<X<X<X<X<X<X<X<X<X<X<X<X<X<X<X<X<X<X<X<X<X<X<X<X<X<X<X<X<X<X<X<X<X<X<X<X<X<X<X<X<X<X<X<X<X<X<X<X<X<X",
"<X<X<X<X<X<X<X<X<X<X<X<X<X<X<X<X<X<X<X<X<X<X<X<X<X<X<X<X<X<X<X<X<X<X<X<X<X<X<X<X<X<X<X<X<X<X<X<X<X<X<X<X<X<X<X<X<X<X<X<X",
"<X<X<X<X<X<X<X<X<X<X<X<X<X<X<X<X<X<X<X<X<X<X<X<X<X<X<X<X<X<X<X<X<X<X<X<X<X<X<X<X<X<X<X<X<X<X<X<X<X<X<X<X<X<X<X<X<X<X<X<X"
};
