/* XPM */
static char *result[] = {
/* columns rows colors chars-per-pixel */
"60 60 246 2 ",
"   c #1B271E",
".  c #1D3321",
"X  c #26293A",
"o  c #34372F",
"O  c #642828",
"+  c #1F4321",
"@  c #2C4733",
"#  c #2E4F31",
"$  c #2D6232",
"%  c #337038",
"&  c #46433C",
"*  c #282A48",
"=  c #2B3757",
"-  c #353858",
";  c #323054",
":  c #2C3A66",
">  c #363968",
",  c #3B3E71",
"<  c #2E2C61",
"1  c #1C2A42",
"2  c #433C62",
"3  c #0F554D",
"4  c #394658",
"5  c #345149",
"6  c #01664A",
"7  c #036C52",
"8  c #007256",
"9  c #00795E",
"0  c #01755B",
"q  c #1F6B59",
"w  c #2C446B",
"e  c #39456B",
"r  c #3A4975",
"t  c #3A5373",
"y  c #334A6F",
"u  c #007C63",
"i  c #047560",
"p  c #276647",
"a  c #464359",
"s  c #575148",
"d  c #6C594C",
"f  c #5B6957",
"g  c #69655A",
"h  c #766A5B",
"j  c #444867",
"k  c #59566A",
"l  c #484A75",
"z  c #485576",
"x  c #55577A",
"c  c #544E76",
"v  c #625C7B",
"b  c #60566D",
"n  c #5A637F",
"m  c #7C7568",
"M  c #6B6E73",
"N  c #AC261D",
"B  c #8B2426",
"V  c #982729",
"C  c #A72B2D",
"Z  c #B62F31",
"A  c #B53131",
"S  c #BB3434",
"D  c #BB3A39",
"F  c #AE3230",
"G  c #C23535",
"H  c #C53B3A",
"J  c #CB3C3A",
"K  c #C73637",
"L  c #D33D3C",
"P  c #D93D3C",
"I  c #C83028",
"U  c #CE2C2E",
"Y  c #B4493A",
"T  c #954D3C",
"R  c #CA433C",
"E  c #D4423E",
"W  c #DB443E",
"Q  c #D35333",
"!  c #DF5F34",
"~  c #B85545",
"^  c #8C6D59",
"/  c #847A6B",
"(  c #877C75",
")  c #875C57",
"_  c #DB4542",
"`  c #DC4B44",
"'  c #D64945",
"]  c #C25846",
"[  c #DB5548",
"{  c #CC5049",
"}  c #E24C45",
"|  c #E34E49",
" . c #E14641",
".. c #E5534A",
"X. c #EA554B",
"o. c #E9574B",
"O. c #EA5A51",
"+. c #C97056",
"@. c #D17767",
"#. c #E4725C",
"$. c #3E853F",
"%. c #00846B",
"&. c #008369",
"*. c #008C72",
"=. c #0A8B76",
"-. c #00947B",
";. c #009177",
":. c #19937E",
">. c #3D8958",
",. c #479047",
"<. c #47826B",
"1. c #689A6B",
"2. c #E7BF35",
"3. c #8A8474",
"4. c #958B7A",
"5. c #9E826C",
"6. c #B98875",
"7. c #D6845B",
"8. c #DA8A68",
"9. c #DC9978",
"0. c #D69272",
"q. c #E39C78",
"w. c #E2956D",
"e. c #E5A27B",
"r. c #52558E",
"t. c #615A85",
"y. c #686586",
"u. c #6C7285",
"i. c #797588",
"p. c #757090",
"a. c #6868A5",
"s. c #7677B0",
"d. c #596783",
"f. c #847C93",
"g. c #897D87",
"h. c #009B83",
"j. c #059A83",
"k. c #1C9A85",
"l. c #02A38B",
"z. c #08A48E",
"x. c #07AA93",
"c. c #16AD97",
"v. c #1AB09A",
"b. c #27B39D",
"n. c #2AAC97",
"m. c #39B8A3",
"M. c #2AB5A0",
"N. c #2C9B88",
"B. c #7D8291",
"V. c #48BCA8",
"C. c #51BEAB",
"Z. c #5BBDA7",
"A. c #69A890",
"S. c #6BC6B1",
"D. c #95878B",
"F. c #9B9483",
"G. c #8B8795",
"H. c #938C95",
"J. c #979597",
"K. c #8B8D8D",
"L. c #A59A87",
"P. c #A69C97",
"I. c #B4948D",
"U. c #95AE9A",
"Y. c #AAA79A",
"T. c #B7AC97",
"R. c #BDB29A",
"E. c #B0A38D",
"W. c #8987B8",
"Q. c #A19DA2",
"!. c #96B8A5",
"~. c #B1AAA2",
"^. c #B9B5A9",
"/. c #ABAEAC",
"(. c #C9A895",
"). c #C3B59C",
"_. c #DBAA8B",
"`. c #E9AA87",
"'. c #ECB28E",
"]. c #EDB593",
"[. c #EEBA99",
"{. c #F1BD9B",
"}. c #F1B895",
"|. c #F1B08B",
" X c #C4BDAC",
".X c #C6BBA5",
"XX c #D2B3AA",
"oX c #F4BCA6",
"OX c #F3BCA9",
"+X c #DC9E83",
"@X c #88C59E",
"#X c #8EC6A1",
"$X c #94C9A5",
"%X c #9ACCAB",
"&X c #96CAA8",
"*X c #94CCB6",
"=X c #A2CAAA",
"-X c #A7CCB5",
";X c #A4D2B3",
":X c #AAD3B6",
">X c #ACD5BA",
",X c #B2D7BD",
"<X c #B8C8B3",
"1X c #F3C09E",
"2X c #CBC3AD",
"3X c #C8C2AB",
"4X c #D4C6AB",
"5X c #CCC4B1",
"6X c #CCC6B3",
"7X c #D4CCB4",
"8X c #D8CEB6",
"9X c #DBD1B6",
"0X c #DCD3BA",
"qX c #D5D0B9",
"wX c #F3C3A3",
"eX c #F6CBAC",
"rX c #F8CCAD",
"tX c #F6C5AB",
"yX c #F8CDB3",
"uX c #E1D6BA",
"iX c #E4DABD",
"pX c #E5D8BA",
"aX c #F9D1B4",
"sX c #F9D5BA",
"dX c #F7D3B7",
"fX c #9D9EC9",
"gX c #B6DAC1",
"hX c #BBDCC5",
"jX c #BDDCC7",
"kX c #ABD8C6",
"lX c #BFE0C5",
"zX c #89D1C0",
"xX c #C2DFCA",
"cX c #E4DCC3",
"vX c #F9DAC0",
"bX c #C4E1CD",
"nX c #C8E2CF",
"mX c #CCE5D3",
"MX c #CEE7D5",
"NX c #D3EAD9",
"BX c #D3E9D9",
"VX c #D0E1CD",
"CX c #EBE2C6",
"ZX c #F2E8CA",
"AX c #F9FAF8",
"SX c None",
/* pixels */
"SXSXSXSXSXSXSXSXSXSXSXSXSXSXSXSXSXSXSXSXSXSXSXSXSXSXSXSXSXSXSXSXSXSXSXSXSXSXSXSXSXSXSXSXSXSXSXSXSXSXSXSXSXSXSXSXSXSXSXSX",
"SXSXSXSXSXSXSXSXSXSXSXSXSXSXSXSXSXSXSXSXSXSXSXSXSXSXSXSXSXSXSXSXSXSXSXSXSXSXSXSXSXSXSXSXSXSXSXSXSXSXSXSXSXSXSXSXSXSXSXSX",
"SXSXSXSXSXSXSXSXSXSXSXSXSXSXSXSXSXSXSXSXSXSXSXSXSXSXP ..| J E o.o.W SXSXSXSXSXSXSXSXSXSXSXSXSXSXSXSXSXSXSXSXSXSXSXSXSXSX",
"SXSXSXSXSXSXSXSXSXSXSXSXSXSXSXSXSXSXSXSXSXSXSXSXSX` o.| } ........| O.R SXSXSXSXSXSXSXSXSXSXSXSXSXSXSXSXSXSXSXSXSXSXSXSX",
"SXSXSXSXSXSXSXSXSXSXSXSXSXSXSXSXSXSXSXSXSXSXSXSX' ` o.o.o.o.o...` P X.O.| SXSXSXSXSXSXSXSXSXSXSXSXSXSXSXSXSXSXSXSXSXSXSX",
"SXSXSXSXSXSXSXSXSXSXSXSXSXSXSXSXSXSXSXSXSXSXL X.O.o.o.o.o.o.` E H L X.X.X.SXSXSXSXSXSXSXSXSXSXSXSXSXSXSXSXSXSXSXSXSXSXSX",
"SXSXSXSXSXSXSXSXSXSXSXSXSXSXSXSXSXSXSXSXSXK  .P J L L U J H D A ] _ | | } ` SXSXSXSXSXSXSXSXSXSXSXSXSXSXSXSXSXSXSXSXSXSX",
"SXSXSXSXSXSXSXSXSXSXSXSXSXSXSXSXSXSXSXSXSX .L O O w.7.+.Q ~ +.w.tXE P _  .` SXSXSXSXSXSXSXSXSXSXSXSXSXSXSXSXSXSXSXSXSXSX",
"SXSXSXSXSXSXSXSXSXSXSXSXSXSXSXSXSXSXSXSXSXSXH V B tXoX}.].|.`.|.wXD J _ } E SXSXSXSXSXSXSXSXSXSXSXSXSXSXSXSXSXSXSXSXSXSX",
"SXSXSXSXSXSXSXSXSXSXSXSXSXSXSXSXSXSXSXSXSXSXSXSXSX+X`.|.oX`.o ) |.9.S J _ | P SXSXSXSXSXSXSXSXSXSXSXSXSXSXSXSXSXSXSXSXSX",
"SXSXSXSXSXSXSXSXSXSXSXSXSXSXSXSXSXSXSXSXSXSXSXSXSX+.d M }.`.AX3 _.OXC Z H ' | ..K SXSXSXSXSXSXSXSXSXSXSXSXSXSXSXSXSXSXSX",
"SXSXSXSXSXSXSXSXSXSXSXSXSXSXSXSXSXSXSXSXSXSXSXSXSXL oX3 sXOXyXyXvXOX+.q.B G L ` | X.} J SXSXSXSXSXSXSXSXSXSXSXSXSXSXSXSX",
"SXSXSXSXSXSXSXSXSXSXSXSXSXSXSXSXSXSXSXSXSXSXSXSXH ` yXdXvXyXvXvXOXOXq.B C V D J ` ..o.[ Z SXSXSXSXSXSXSXSXSXSXSXSXSXSXSX",
"SXSXSXSXSXSXSXSXSXSXSXSXSXSXSXSXSXSXSXSXSXSXSXSXO.' oXrX|.yXyXOXOXoXw.B Z Z A G J ' ..o.X._ SXSXSXSXSXSXSXSXSXSXSXSXSXSX",
"SXSXSXSXSXSXSXSXSXSXSXSXSXSXSXSXSXSXSXSXSXSXSXSXO.E ~ rX[ XX@.tXOXq.8.B C C Z Z S J W o.X.X.| SXSXSXSXSXSXSXSXSXSXSXSXSX",
"SXSXSXSXSXSXSXSXSXSXSXSXSXSXSXSXSXSXSXSXSXSXSXG o.' C F tX@.tXeXw.`.~ V B B C Z S K E ` | ` ..L SXSXSXSXSXSXSXSXSXSXSXSX",
"SXSXSXSXSXSXSXSXSXSXSXSXSXSXSXSXSXSXSXSXSXSXSXSX| L A V B `.e.8.q.}.B V V V B C S S J E } | Z ` SXSXSXSXSXSXSXSXSXSXSXSX",
"SXSXSXSXSXSXSXSXSXSXSXSXSXSXSXSXSXSXSXSXSXSXSXSX .P S wXvX9.e.q.'.1X}.oX8.C C V A S J J W | ' H SXSXSXSXSXSXSXSXSXSXSXSX",
"SXSXSXSXSXSXSXSXSXSXSXSXSXSXSXSXSXSXSXSXSXSXSXSXK P q.vXsXdX[.[.1X1XwXdXvX@.F C C G J J K } | SXSXSXSXSXSXSXSXSXSXSXSXSX",
"SXSXSXSXSXSXSXSXSXSXSXSXSXSXSXSXSXSXSXSXSXSXSXSXSXP yXsXdXeXwXwX1X1XeXeXyX}.V F C K J E K H ` SXSXSXSXSXSXSXSXSXSXSXSXSX",
"SXSXSXSXSXSXSXSXSXSXSXSXSXSXSXSXSXSXSXSXSXSXSXSXSXE dXaXrXtX'.tX1XwXrX{.eXwXC A A L P E J C ' SXSXSXSXSXSXSXSXSXSXSXSXSX",
"SXSXSXSXSXSXSXSXSXSXSXSXSXSXSXSXSXSXSXSXSXSXSXSXG E dXaXeXwXq.yXtXrXsX{.eXoXZ A G W W | ` SX' SXSXSXSXSXSXSXSXSXSXSXSXSX",
"SXSXSXSXSXSXSXSXSXSXSXSXSXSXSXSXSXSXSXSXSXSXSXSXW ` dXaXtX1XQ.XXOXvXsX/.XX].A A J _ | | L SXS SXSXSXSXSXSXSXSXSXSXSXSXSX",
"SXSXSXSXSXSXSXSXSXSXSXSXSXSXSXSXSXSXSXSXSXSXSXL } W dXrXwX[.fXs.XX~.fXf.W.`.Z Z P  .....H SXSXSXSXSXSXSXSXSXSXSXSXSXSXSX",
"SXSXSXSXSXSXSXSXSXSXSXSXSXSXSXSXSXSXSXSXSXSX| X.} J yXyX1X}.s.a.s.s.a.f.W.+XZ U P ` ....SXSXSXSXSXSXSXSXSXSXSXSXSXSXSXSX",
"SXSXSXSXSXSXSXSXSXSXSXSXSXSXSXSXSXSXSXSXU O.X.` J S eXrX{.].a.a.a.r.a.a.a.+XZ L ' ` ..X.K SXSXSXSXSXSXSXSXSXSXSXSXSXSXSX",
"SXSXSXSXSXSXSXSXSXSXSXSXSXSXSXSXSXSXSXSXO.X.' ' G I.wXeX}.'.r.r.c r.a.a.g.+XK L _ ` ..X.' SXSXSXSXSXSXSXSXSXSXSXSXSXSXSX",
"SXSXSXSXSXSXSXSXSXSXSXSXSXSXSXSXSXSXSX..O.` L D gX:X{.wX}.`.r.+.@.) a.+.q.@.L L E ` ....O.SXSXSXSXSXSXSXSXSXSXSXSXSXSXSX",
"SXSXSXSXSXSXSXSXSXSXSXSXSXSXSXSXSXSXSXX.} W H 6X-X!.].1X1X`.7.|.'.|.~ 7.|.#.G G E | ....X.SXSXSXSXSXSXSXSXSXSXSXSXSXSXSX",
"SXSXSXSXSXSXSXSXSXSXSXSXSXSXSXSXSXSXP X.{ h <.kX!.7.[.1XeX1Xq.`.].Y ~ `.oX[ G L _ | | ` O.SXSXSXSXSXSXSXSXSXSXSXSXSXSXSX",
"SXSXSXSXSXSXSXSXSXSXSXSXSXSXSXSXSXSXN.V.C.C.C.jX*X'.[.1XdXsX9.|.Y V 9.wX[.{ J ' ' ` ' | ` SX! SXSXSXSXSXSXSXSXSXSXSXSXSX",
"SXSXSXSXSXSXSXSXSXSXSXSXSXSXSX=.V.C.C.C.V.C.C.*X*XwX1X[.eXsXe.1.$XV ].wX].H J L ' ' ' ..L SX2.#.SXSXSXSXSXSXSXSXSXSXSXSX",
"SXSXSXSXSXSXSXSXSXSXSXSXSX=.V.C.C.C.C.C.C.C.V.C.*X1X].].wXdX`.1.U.F wX[.8.H H J J ' ' X.SXSX#.[ SXSXSXSXSXSXSXSXSXSXSXSX",
"SXSXSXSXSXSXSXSXSXSXSXSXm.V.V.V.C.V.V.V.m.m.M.M.<X|.e.w.}.aX_.-X;X~ wX].R D H R ' ` SXSXSXSXSX~ ! Z SXK SXSXSXSXSXSXSXSX",
"SXSXSXSXSXSXSXSXSXSXk.V.V.V.V.V.m.m.m.M.M.v.x.x.Z.*XkX*X].eX[.!.SX9.1Xe.S H H S SXSXSX{ H E Q ! Q Z I I SXSXSXSXSXSXSXSX",
"SXSXSXSXSXSXSXSXSXn.m.m.m.m.m.M.b.b.x.x.x.x.-.-.-.%.0 <.9.wXeX9XqX'.[._.7X8X8X7X5X5X5X6XI I P Q ! A N N I SXSXSXSXSXSXSX",
"SXSXSXSXSXSXSXSXn.m.M.M.M.v.c.c.x.x.l.-.-.-.-.*.%.&.&.6 p }.aXpX0X[.'.8X7X7X7X7X7X7X4X[ N Y 0.R Q I N SXSXSXSXSXSXSXSXSX",
"SXSXSXSXSXSXSXn.b.v.c.c.z.z.j.h.-.-.-.-.%.&.&.&.&.8 8 6 6 e.eX).3X1Xq..X.X.X).3X4X4X4X0.(.2X4X+.I I R 4X7X6XSXSXSXSXSXSX",
"SXSXSXSXSXSXk.v.c.x.l.l.h.h.-.*.&.&.&.&.&.8 &.&.&.8 8 6 8 <.1X0.5.1X6.4.4.4.4.L.L.E.E.T.).).] Y T Y Y 5.T.6X<XK.SXSXSXSX",
"SXSXSXSXSXSXz.x.h.h.h.-.*.*.%.&.&.&.&.&.&.8 8 8 6 8 6 &.u 6 '.1X^ ].^ h h h h h / 3.5.L.4.3.^ h h d ^ 3.U.R.U.K.SXSXSXSX",
"SXSXSXSXSXSXl.j.-.*.*.*.&.u u u 8 &.i u i 9 9 9 9 u &.*.3 o d |.[.eXdX1X'./ m 3.4.4.L.E.).(.R.R.T.T.Y.Y.J.U.B.t SXSXSXSX",
"SXSXSXSXSXSXh.;.%.&.&.u u u i u 9 &.%.*.%.*.%.%.&.9 3 o o & s 8.].`.+.e.}.0.R..X4X4X4X.X.X X3X3X3X~.U.K.J.K.z t SXSXSXSX",
"SXSXSXSXSXSX%.-.&.u u u u u %.7 $ 5 @ @ a o & s s s d g h / / ( L.R.<X(.`.4XpXuX9X7X4X.X2X X XY.P.K.g.D.G.y t SXSXSXSXSX",
"SXSXSXSXSXSXSX*.-.&.u u u 6 6 g m m m 3.3.4.3.3.K.F.F.L.T.)..X4X7XpXpXpXpXpX9X8X7X4X3X3X^.Q.Y.T.J.g.G.j w y SXSXSXSXSXSX",
"SXSXSXSXSXSXSXSXu -.&.u 8 8 0 u 1.).3X3X4X4X4X3X2X2X7X4X7X8X9XiXiXiXpX0X0X9X6X6X3X X X^.~.T.P.H.f.c w t y SXSXSXSXSXSXSX",
"SXSXSXSXSXSXSXs & 3 -.*.u &.*.h.l.:.4X7X9X9X9X7XqX8X7X9XqX0X0X0X9X7X7X6X6X3X X X X X~.P.H.i.y.t.w l z e 4 SXSXSXSXSXSXSX",
"SXSXSXSXSXSXP.( g s 5 u -.*.*.-.l.c.n.A.0X0X9X9X9X9X0X0XuX0X8X8X7X7X6X7X6X X2X X~.J.B.u.t.t.l l z t z SXSXSXSXSXSXSXSXSX",
"SXSXSXSXuXpX7X3XY.4.h d 5 i h.*.*.h.l.c.k.pXiXiXiXcX0X0X8X7X7X8X9X0XqX5X3X XY.H.i.v y.y.x c l t y w SXSXSXSXSXSXSXSXSXSX",
"SXSXSX~.7XcXCXCX0X7X^.Y.4.m f q *.-.*.-.l.z.^.8XqXqXqX6X9X9X9X9XcX X X~.P.D.u.y.,.B.u.: l , : , e SXSXSXSXSXSXSXSXSXSXSX",
"SXSXSXt.i.~.qXcXCXCXcXcX7X3XT.D.( f q k.MXS.h.VXqX0XcXiXuX0XqX XQ.H.H.f.p.d.i.B.$ r.: , l p.p.d.l SXSXSXSXSXSXSXSXSXSXSX",
"SXSXSXSXz x G.^.qXcXCXZXZXCX0X6X^.T.F.3.nXMXmX*XbXmXmXmXMXMXMXMXBXBX/.d.y.f.f.z @ 4 c y.p.p.l : SXSXSXSXSXSXSXSXSXSXSXSX",
"SXSXSXSX: w z y.J.^.6X6XCXZXZXZXCXcX8X XhXhXnXBXBXMXnXmXMXBXNXMXBXBXBXBX/.M e > % @ M p.z , > r SXSXSXSXSXSXSXSXSXSXSXSX",
"SXSXSXSXt , < y c i.Q.Q./.6XxXcXcXZXZXpXmXbXgXMXBXBXNXxXhXhXxXbXxXBXmXVXmXxX,.$.$ @ $ r e r < > SXSXSXSXSXSXSXSXSXSXSXSX",
"SXSXSXSXSXw l * : r r y.i.J.Q.~.^.^..X^.^.>XgXgXmXMXNXNXhX:XhX,XjXxXxXMXmXnX=X$ $.,.$.< < > , SXSXSXSXSXSXSXSXSXSXSXSXSX",
"SXSXSXSXSXr.: t r = > t j c t.p.f.f.G.G.i.,XkXgXhXmXMXBXBX,X>X%X>XhXgXhXxXmXnX,.4 < > c x e SXSXSXSXSXSXSXSXSXSXSXSXSXSX",
"SXSXSXSXSXSXSXy : t t.z : , , , l x t.u.M /.;XlX,XxXnXMXNXBX%X$X>X&X>X,XgXxXnX=X5 n n t y = SXSXSXSXSXSXSXSXSXSXSXSXSXSX",
"SXSXSXSXSXSXSXSXy r.w r x x c , l z r.x z e >X;X;XgXMXnXMXMXNX&X#X:X$X=XlXgXbXMX@ @ w : > SXSXSXSXSXSXSXSXSXSXSXSXSXSXSX",
"SXSXSXSXSXSXSXSX: : r c - , c y.p.t.t.t.v k /.%XjX;XgXMXbXNXMXK.!.#X;X$X=XlXgXmX, 5 < e SXSXSXSXSXSXSXSXSXSXSXSXSXSXSXSX",
"SXSXSXSXSXSXSXSXSXw e j b k 2 > , z y.i.u.k 4 ;X%X>X>XgXjXbXBXBX+ U.#X:X&X;XhXmX@ 5 = SXSXSXSXSXSXSXSXSXSXSXSXSXSXSXSXSX",
"SXSXSXSXSXSXSXSXSX/.(.(.F.b j - ; < < > l e 4 U.%XgX;X>XmXhXnXmXf + U.@X:X%X,XnX@ @ @ SXSXSXSXSXSXSXSXSXSXSXSXSXSXSXSXSX",
"SXSXSXSXSXSXSXSXSXP.I.I.I.( 2 4 - ; < v v v j - %X&X-X%X>XgXhXMXjX.   ,X$X&X:X=X$ $.SXSXSXSXSXSXSXSXSXSXSXSXSXSXSXSXSXSX",
"SXSXSXSXSXSXSX XXXI./ a a a a - = < * = j e = 1 gX$XgX%X;XxXgXmXMXX + . ;X:X:Xj # # @ SXSXSXSXSXSXSXSXSXSXSXSXSXSXSXSXSX",
"SXSXSXSXSXSXSX.X).(.g.a X * ; = ; = < * k z 4 1 k $X%X%X%X>X,XjXmXSX+   1.>X^.5 $.% % $ SXSXSXSXSXSXSXSXSXSXSXSXSXSXSXSX",
"SXSXSXSXSXSXXXI.D.c & ; ; X X X 1 * = X < 4 * SXSX%X$X%X&X;X,XhXmXSXSXSX@ hXp ,.,.,.SXSXSXSXSXSXSXSXSXSXSXSXSXSXSXSXSXSX",
"SXSXSXSXSXSXH.D.M a ; ; SXSXSXSXSXSXSXSX; SXSXSXSX;X#X:X$X%XhXhXNXSXSXSXSXSX@ % $ $ SXSXSXSXSXSXSXSXSXSXSXSXSXSXSXSXSXSX",
"SXSXSXSXSXSXSXk a SXSXSXSXSXSXSXSXSXSXSXSXSXSXSXSX>X@X;X#X%XlXhXNXSXSXSXSXSXSXSXSXSX$.SXSXSXSXSXSXSXSXSXSXSXSXSXSXSXSXSX",
"SXSXSXSXSXSXSXSXSXSXSXSXSXSXSXSXSXSXSXSXSXSXSXSXSX%X#X;X#X;XlXlXSXSXSXSXSXSXSXSXSXSXSXSXSXSXSXSXSXSXSXSXSXSXSXSXSXSXSXSX",
"SXSXSXSXSXSXSXSXSXSXSXSXSXSXSXSXSXSXSXSXSXSXSXSXSX$X@X;X*XkXmXSXSXSXSXSXSXSXSXSXSXSXSXSXSXSXSXSXSXSXSXSXSXSXSXSXSXSXSXSX",
"SXSXSXSXSXSXSXSXSXSXSXSXSXSXSXSXSXSXSXSXSXSXSXSXbX$X@X>X:XhXSXSXSXSXSXSXSXSXSXSXSXSXSXSXSXSXSXSXSXSXSXSXSXSXSXSXSXSXSXSX",
"SXSXSXSXSXSXSXSXSXSXSXSXSXSXSXSXSXSXSXSXSXSXSXSX;X$X%XlXlXSXSXSXSXSXSXSXSXSXSXSXSXSXSXSXSXSXSXSXSXSXSXSXSXSXSXSXSXSXSXSX",
"SXSXSXSXSXSXSXSXSXSXSXSXSXSXSXSXSXSXSXSXSXSXSXxX;X;X,XNXSXSXSXSXSXSXSXSXSXSXSXSXSXSXSXSXSXSXSXSXSXSXSXSXSXSXSXSXSXSXSXSX",
"SXSXSXSXSXSXSXSXSXSXSXSXSXSXSXSXSXSXSXSXSXSXMXxXMXSXSXSXSXSXSXSXSXSXSXSXSXSXSXSXSXSXSXSXSXSXSXSXSXSXSXSXSXSXSXSXSXSXSXSX",
"SXSXSXSXSXSXSXSXSXSXSXSXSXSXSXSXSXSXSXSXSXSXSXSXSXSXSXSXSXSXSXSXSXSXSXSXSXSXSXSXSXSXSXSXSXSXSXSXSXSXSXSXSXSXSXSXSXSXSXSX"
};
