/* XPM */
static char *result[] = {
/* columns rows colors chars-per-pixel */
"60 60 203 2 ",
"   c #26353A",
".  c #762423",
"X  c #7E2623",
"o  c #3E4A4B",
"O  c #757975",
"+  c #89211D",
"@  c #832624",
"#  c #882A27",
"$  c #952926",
"%  c #992A25",
"&  c #992823",
"*  c #9B342D",
"=  c #8E312A",
"-  c #A52D27",
";  c #A22E2A",
":  c #AA2F28",
">  c #AB2E26",
",  c #AD322C",
"<  c #A1372B",
"1  c #B5332D",
"2  c #BB342B",
"3  c #A53832",
"4  c #BD3631",
"5  c #B33834",
"6  c #BD3A33",
"7  c #BA3A35",
"8  c #C2342B",
"9  c #CB342C",
"0  c #C0392F",
"q  c #C43632",
"w  c #C53A33",
"e  c #CC3A34",
"r  c #C73F38",
"t  c #CD3E38",
"y  c #D33B35",
"u  c #D93D38",
"i  c #C72F27",
"p  c #AA4739",
"a  c #B4453B",
"s  c #BA463A",
"d  c #BB533C",
"f  c #C4443B",
"g  c #CD433A",
"h  c #C94439",
"j  c #D4433C",
"k  c #DB433B",
"l  c #DC493F",
"z  c #D3463C",
"x  c #E1443D",
"c  c #B64C45",
"v  c #B95342",
"b  c #A85F48",
"n  c #98645D",
"m  c #B6614D",
"M  c #AF6451",
"N  c #AB614C",
"B  c #8D536E",
"V  c #A85065",
"C  c #AD7571",
"Z  c #CD4A41",
"A  c #C54D47",
"S  c #D44C42",
"D  c #DA4D43",
"F  c #DF4740",
"G  c #C95448",
"H  c #DD5146",
"J  c #D8584B",
"K  c #D05E51",
"L  c #E24C43",
"P  c #E45B4D",
"I  c #E35448",
"U  c #E45F52",
"Y  c #CF6F5B",
"T  c #C07A5C",
"R  c #E76C5D",
"E  c #E66759",
"W  c #D77B66",
"Q  c #CC7166",
"!  c #019376",
"~  c #009679",
"^  c #019A7C",
"/  c #0D987D",
"(  c #14947A",
")  c #1C927A",
"_  c #188870",
"`  c #2E8C76",
"'  c #27967E",
"]  c #458C75",
"[  c #B0836F",
"{  c #CD845E",
"}  c #D38967",
"|  c #D98A71",
" . c #DB9876",
".. c #D08965",
"X. c #DFA27D",
"o. c #E0A17B",
"O. c #6D6398",
"+. c #7B6C96",
"@. c #746CA1",
"#. c #7972A8",
"$. c #806D92",
"%. c #91758D",
"&. c #817BAD",
"*. c #837DB0",
"=. c #039D81",
"-. c #099E84",
";. c #01A285",
":. c #0DA286",
">. c #02A68A",
",. c #05A98E",
"<. c #15A58A",
"1. c #16A389",
"2. c #11AC90",
"3. c #22A58A",
"4. c #2BA88F",
"5. c #2BAC92",
"6. c #25AE94",
"7. c #34AB92",
"8. c #3DAE95",
"9. c #39B197",
"0. c #2AB095",
"q. c #46A38B",
"w. c #4BA791",
"e. c #47AB94",
"r. c #55AF99",
"t. c #44B39A",
"y. c #4BB29A",
"u. c #53B49D",
"i. c #5AB39D",
"p. c #60AF8E",
"a. c #69AB93",
"s. c #75B396",
"d. c #63B59F",
"f. c #5DB9A1",
"g. c #55B7A0",
"h. c #69BBA6",
"j. c #A58D9F",
"k. c #89BE9D",
"l. c #84B898",
"z. c #8B84B5",
"x. c #8780B3",
"c. c #A08EAA",
"v. c #94BDA2",
"b. c #88BFA4",
"n. c #A2A5A5",
"m. c #DEAA8A",
"M. c #C7A693",
"N. c #E7A78B",
"B. c #E6A988",
"V. c #ECB38E",
"C. c #ECB695",
"Z. c #EDBA95",
"A. c #EDBC9B",
"S. c #E8B597",
"D. c #F3BD9A",
"F. c #F1B893",
"G. c #D2B2AD",
"H. c #F6BCA2",
"J. c #8EC3A3",
"K. c #8FCAAD",
"L. c #92C4A5",
"P. c #96C6A9",
"I. c #9BC7AB",
"U. c #96C9AA",
"Y. c #9BCAAC",
"T. c #9AC1A7",
"R. c #8FCBB0",
"E. c #9ECEB1",
"W. c #A2CEB2",
"Q. c #ABCCB6",
"!. c #A3D1B4",
"~. c #ACD5BA",
"^. c #ACD5BB",
"/. c #B1D8BE",
"(. c #B4D7BF",
"). c #B7CDB6",
"_. c #EFC09C",
"`. c #F3C29E",
"'. c #C5CCB8",
"]. c #CFD0BA",
"[. c #EDC9AB",
"{. c #E9C2AB",
"}. c #F2C4A2",
"|. c #F6C9A6",
" X c #F5CAAB",
".X c #F9CDAB",
"XX c #F3C8A9",
"oX c #FAD1AF",
"OX c #F8CCB0",
"+X c #FAD3B3",
"@X c #FBD6B8",
"#X c #FDDABD",
"$X c #F7D2B4",
"%X c #B6DAC2",
"&X c #BADCC5",
"*X c #BEDEC8",
"=X c #C5DCC7",
"-X c #FDDCC2",
";X c #C5E1CD",
":X c #CAE4CF",
">X c #CBE4D2",
",X c #C7E2D1",
"<X c None",
/* pixels */
"<X<X<X<X<X<X<X<X<X<X<X<X<X<X<X<X<X<X<X<X<X<X<X<X<X<X<X<X<X<X<X<X<X<X<X<X<X<X<X<X<X<X<X<X<X<X<X<X<X<X<X<X<X<X<X<X<X<X<X<X",
"<X<X<X<X<X<X<X<X<X<X<X<X<X<X<X<X<X<X<X<X<X<X<X<X<X<X<X<X<X<X<X<X<X<X<X<X<X<X<X<X<X<X<X<X<X<X<X<X<X<X<X<X<X<X<X<X<X<X<X<X",
"<X<X<X<X<X<X<X<X<X<X<X<X<X<X<X<X<X<XH P E E <X<X<X<X<X<X<X<X<X<X<X<X<X<X<X<X<X<X<X<X<X<X<X<X<X<X<X<X<X<X<X<X<X<X<X<X<X<X",
"<X<X<X<X<X<X<X<X<X<X<X<X<X<X<X<XG l L x x l S K <X<X<X<X<X<X<X<X<X<X<X<X<X<X<X<X<X<X<X<X<X<X<X<X<X<X<X<X<X<X<X<X<X<X<X<X",
"<X<X<X<X<X<X<X<X<X<X<X<X<X<XJ E P R J k x k z J R <X<X<X<X<X<X<X<X<X<X<X<X<X<X<X<X<X<X<X<X<X<X<X<X<X<X<X<X<X<X<X<X<X<X<X",
"<X<X<X<X<X<X<X<X<X<X<X<X<XG k y y u l I S e H g z E <X<X<X<X<X<X<X<X<X<X<X<X<X<X<X<X<X<X<X<X<X<X<X<X<X<X<X<X<X<X<X<X<X<X",
"<X<X<X<X<X<X<X<X<X<X<X<X<XD > & < d s h h h a 2 L P <X<X<X<X<X<X<X<X<X<X<X<X<X<X<X<X<X<X<X<X<X<X<X<X<X<X<X<X<X<X<X<X<X<X",
"<X<X<X<X<X<X<X<X<X<X<X<X<X<Xh , d m.D.F.X.B. .9 k L Z <X<X<X<X<X<X<X<X<X<X<X<X<X<X<X<X<X<X<X<X<X<X<X<X<X<X<X<X<X<X<X<X<X",
"<X<X<X<X<X<X<X<X<X<X<X<X<X<X<X<X# C N.F.n.o `.f 9 u H <X<X<X<X<X<X<X<X<X<X<X<X<X<X<X<X<X<X<X<X<X<X<X<X<X<X<X<X<X<X<X<X<X",
"<X<X<X<X<X<X<X<X<X<X<X<X<X<X<X<X* G.  D.].O  X3 e i k <X<X<X<X<X<X<X<X<X<X<X<X<X<X<X<X<X<X<X<X<X<X<X<X<X<X<X<X<X<X<X<X<X",
"<X<X<X<X<X<X<X<X<X<X<X<X<X<X<X<X, Z.XXOX.X.XH.v , 2 9 h <X<X<X<X<X<X<X<X<X<X<X<X<X<X<X<X<X<X<X<X<X<X<X<X<X<X<X<X<X<X<X<X",
"<X<X<X<X<X<X<X<X<X<X<X<X<X<X<XA f D..X+X|.H.}.S.. 6 2 y S <X<X<X<X<X<X<X<X<X<X<X<X<X<X<X<X<X<X<X<X<X<X<X<X<X<X<X<X<X<X<X",
"<X<X<X<X<X<X<X<X<X<X<XR R E P D w m D.G.Q +XoXX . # w w l g G <X<X<X<X<X<X<X<X<X<X<X<X<X<X<X<X<X<X<X<X<X<X<X<X<X<X<X<X<X",
"<X<XZ Z A <X<X<X<X<XS L L x F y 6 $ N D.|._.{ $ @ 1 @ 0 j I c <X<X<X<X<X<X<X<X<X<X<X<X<X<X<X<X<X<X<X<X<X<X<X<X<X<X<X<X<X",
"<XJ q q z H <X<X<X<X3 x q e y q : $ @ b } J s : 6 6 % * e k I c <X<X<X<X<X<X<X<X<X<X<X<X<X<X<X<X<X<X<X<X<X<X<X<X<X<X<X<X",
"<X6 s S H 4 g S Z Z 3 x q y q 1 3 m M S.W Z.< w q 4 , . 8 y L Z <X<X<X<X<X<X<X<X<X<X<X<X<X<X<X<X<X<X<X<X<X<X<X<X<X<X<X<X",
"<Xa <X<XA F 7 5 7 7 ; L e y q c +X+X|.W .XZ.X.M = # # # 8 9 k D <X<X<X<X<X<X<X<X<X<X<X<X<X<X<X<X<X<X<X<X<X<X<X<X<X<X<X<X",
"<X<X<X<X<Xu k j 1 , S L q u B c.$X{.G.G._.`..X#X* $ $ $ 0 8 y z <X<X<X<X<X<X<X<X<X<X<X<X<X<X<X<X<X<X<X<X<X<X<X<X<X<X<X<X",
"<X<X<X<X<Xg y k L I L y e V *.#.+.z.z.z.j.Z.`.@Xd % % % 2 2 e g <X<X<X<X<X<X<X<X<X<X<X<X<X<X<X<X<X<X<X<X<X<X<X<X<X<X<X<X",
"<X<X<X<X<X4 Z H e t e , j B &.@.O.#.z.#.%.} F.|.| * * 1 2 2 g e <X<X<X<X<X<X<X<X<X<X<X<X<X<X<X<X<X<X<X<X<X<X<X<X<X<X<X<X",
"<X<X<X<X<X5 ; L H , , Z h N.A.[.[.+.O.+.C %.X.`.`.: : 2 2 2 y 6 <X<X<X<X<X<X<X<X<X<X<X<X<X<X<X<X<X<X<X<X<X<X<X<X<X<X<X<X",
"<X<X<X<X<X<X7 u x F F t s oX$XoX@X-X XD.N.O p D.+X1 1 2 2 2 k <X<X<X<X<X<X<X<X<X<X<X<X<X<X<X<X<X<X<X<X<X<X<X<X<X<X<X<X<X",
"<X<X<X<X<X<X<Xt e e q Q `.|.oX+X XoX.XZ.W + + D..XG 2 2 2 w y <X<X<X<X<X<X<X<X<X<X<X<X<X<X<X<X<X<X<X<X<X<X<X<X<X<X<X<X<X",
"<X<X<X<X<X<X<XS q q N.OXB.`.@X#X+X.X}.| + & &  .|.B.2 8 8 k <X<X<X<X<X<X<X<X<X<X<X<X<X<X<X<X<X<X<X<X<X<X<X<X<X<X<X<X<X<X",
"<X<X<X<XZ.Z.<Xs w C.@XZ. .`.#X#X.X.XD.+ $ : > < |.@X| 8 y 2 <X<X<X<X<X<X<X<X<X<X<X<X<X<X<X<X<X<X<X<X<X<X<X<X<X<X<X<X<X<X",
"<X<X<X<XS.#X<X<X`..XD.W X oX-X-X.X XM.'.'.M.> & m..X#XB.q <X<X<X<X<X<X<X<X<X<X<X<X<X<X<X<X<X<X<X<X<X<X<X<X<X<X<X<X<X<X<X",
"<X<X<X<XA.|.}.+X|.V.a n J.+X@X#X.X=XR.W.v.).C > & Z.|.-XA.<X<X<X<X<X<X<X<X<X<X<X<X<X<X<X<X<X<X<X<X<X<X<X<X<X<X<X<X<X<X<X",
"<X<X<X<X<XH.|.Z.<X<XA I.s.+X-X$X^.R.a.] p.v.[ 2 2 > _..X-X<X<X<X<X<X<X<X<X<X<X<X<X<X<X<X<X<X<X<X<X<X<X<X<X<X<X<X<X<X<X<X",
"<X<X<X<X<X<X<X<X<X<X<XQ.L.+X+X(.a.` w.d.i.k.4 y 4 <X<XZ. X#X<X<X<X<X[.<X<X<X<X<X<X<X<X<X<X<X<X<X<X<X<X<X<X<X<X<X<X<X<X<X",
"<X<X<X<X<X<X<X<X<X<X<X<X&X].[.q.-.5.t.f.h.h.a <X<X<X<X<X<X X+X[..X_.Z.V.<X<X<X<X<X<X<X<X<X<X<X<X<X<X<X<X<X<X<X<X<X<X<X<X",
"<X<X<X<X<X<X<X<X<X<X<X<X<X_ s.^ >.,.5.t.f.h.i.<X<X<X<X<X<X<XS.|..X_.<X<X<X<X<X<X<X<X<X<X<X<X<X<X<X<X<X<X<X<X<X<X<X<X<X<X",
"<X<X<X<X<X<X<X<X<X<X<X<X<X<.^ ^ ^ >.,.9.t.h.h.<X<X<X<X<X<X<X<X<X<X<X<X<X<X<X<X<X<X<X<X<X<X<X<X<X<X<X<X<X<X<X<X<X<X<X<X<X",
"<X<X<X<X<X<X<X<X<X<X<X<X<X3.~ ^ ^ >.>.6.t.g.h.w.<X<X<X<X<X<X<X<X<X<X<X<X<X<X<X<X<X<X<X<X<X<X<X<X<X<X<X<X<X<X<X<X<X<X<X<X",
"<X<X<X<X<X<X<X<X<X<X<X<X<X' ~ ! ^ =.>.2.9.t.f.i.<X<X<X<X<X<X<X<X<X<X<X<X<X<X<X<X<X<X<X<X<X<X<X<X<X<X<X<X<X<X<X<X<X<X<X<X",
"<X<X<X<X<X<X<X<X<X<X<X<X<X<X/ ~ ^ ^ =.2.5.t.g.f.<X<X<X<X<X<X<X<X<X<X<X<X<X<X<X<X<X<X<X<X<X>X;X;X&X%X%X<X<X<X<X<X<X<X<X<X",
"<X<X<X<X<X<X<X<X<X<X<X<X<X<X3.~ ! =.=.>.5.t.g.f.<X<X<X<X<X<X<X<X<X<X<X<X<X<X<X<X<X<X<X<X>X>X>X,X>X*X<X<X<X<X<X<X<X<X<X<X",
"<X<X<X<X<X<X<X<X<X<X<X<X<X<X' ^ ! ! ^ ;.3.8.y.f.<X<X<X<X<X<X<X<X<X<X<X<X<X<X<X<X<X<X<X&X>X;X,X;X;X<X<X<X<X<X<X<X<X<X<X<X",
"<X<X<X<X<X<X<X<X<X<X<X<X<X<X<X3.! ! ^ =.<.7.y.i.q.<X<X<X<X<X<X<X<X<X<X<X<X<X<X<X<X<X&X&X&X;X*X>X*X<X<X<X<X<X<X<X<X<X<X<X",
"<X<X<X<X<X<X<X<X<X<X<X<X<X<X<X' ^ ! ! =.<.5.t.u.e.<X<X<X<X<X<X<X<X<X<X<X<X<X<X<X<X<X!.&X^.&X(.%X*X<X<X<X<X<X<X<X<X<X<X<X",
"<X<X<X<X<X<X<X<X<X<X<X<X<X<X<X<X<.! ! =.=.3.8.r.i.<X<X<X<X<X<X<X<X<X<X<X<X<X<X<X<X<XW.~.!.~.^.Q.<X<X<X<X<X<X<X<X<X<X<X<X",
"<X<X<X<X<X<X<X<X<X<X<X<X<X<X<X<X' ^ ! ! ^ :.7.y.i.<X<X<X<X<X<X<X<X<X<X<X<X<X<X<X<X^.I.Y.W.W.^.W.<X<X<X<X<X<X<X<X<X<X<X<X",
"<X<X<X<X<X<X<X<X<X<X<X<X<X<X<X<X<X-.~ ! ~ =.1.e.u.w.<X<X<X<X<X<X<X<X<X<X<X<X<X<X<XQ.P.I.W.I.Q.Y.<X<X<X<X<X<X<X<X<X<X<X<X",
"<X<X<X<X<X<X<X<X<X<X<X<X<X<X<X<X<X<X;.! ! ^ =.4.y.f.<X<X<X<X<X<X<X<X<X<X<X<X<X<X<XI.P.L.I.L.I.I.<X<X<X<X<X<X<X<X<X<X<X<X",
"<X<X<X<X<X<X<X<X<X<X<X<X<X<X<X<X<X<X<X=.! ! ~ -.7.u.w.<X<X<X<X<X<X<X<X<X<X<X<X<X<XP.P.J.I.J.J.I.<X<X<X<X<X<X<X<X<X<X<X<X",
"<X<X<X<X<X<X<X<X<X<X<X<X<X<X<X<X<X<X<X( ^ ! ! ^ -.7.u.<X<X<X<X<X<X<X<X<X<X<X<X<X<XL.I.J.L.L.J.<X<X<X<X<X<X:X<X<X<X<X<X<X",
"<X<X<X<X<X<X<X<X<X<X<X<X<X<X<X<X<X<X<X<X( ^ ! ! ! -.7.u.<X<X<X<X<X<X<X<X<X<X<X<X<Xk.U.K.J.L.L.<X<X<X/.~.*X&X:X;X&X~.<X<X",
"<X<X<X<X<X<X<X<X<X<X<X<X<X<X<X<X<X<X<X<X<X) =.! ! ! ^ 4.u.<X<X<X<X<X<X<X<X<X<X<X<XU.J.Y.I.J.<X<X!.E./.!.%X%X>X;X<X<X~.<X",
"<X<X<X<X<X<X<X<X<X<X<X<X<X<X<X<X<X<X<X<X<X<X<X-.! ! ! ^ 1.y.w.<X<X<X<X<X<X<X<X<XE.E.!.Y.U.!.I.P.E.E.!.~.~./.<X<X<X<X<X<X",
"<X<X<X<X<X<X<X<X<X<X<X<X<X<X<X<X<X<X<X<X<X<X<X<X/ ;.! ! ! ^ 5.y.e.<X<X<X<X<X<X%X^.^.!.E.I.l.U.U.U.E.E.!.!.%X<X<X<X<X<X<X",
"<X<X<X<X<X<X<X<X<X<X<X<X<X<X<X<X<X<X<X<X<X<X<X<X<X<X( ;.! ! ! =.<.8.y.r.r.i.*X%X/.Q.Y.J.k.k.J.Y.Y.U.!.E.~.<X<X<X<X<X<X<X",
"<X<X<X<X<X<X<X<X<X<X<X<X<X<X<X<X<X<X<X<X<X<X<X<X<X<X<X<X' / =.^ ~ ^ =.;.;.:.` l.l.l.k.L.U.U.J.J.U.E.U.!.<X<X<X<X<X<X<X<X",
"<X<X<X<X<X<X<X<X<X<X<X<X<X<X<X<X<X<X<X<X<X<X<X<X<X<X<X<X<X<X<X<X<X<X<X<X<X<X<X<X<XL.L.U.Y.Y.Y.U.L.U.E.<X<X<X<X<X<X<X<X<X",
"<X<X<X<X<X<X<X<X<X<X<X<X<X<X<X<X<X<X<X<X<X<X<X<X<X<X<X<X<X<X<X<X<X<X<X<X<X<X<X<X<X<X<X<XW.U.L.P.E.<X<X<X<X<X<X<X<X<X<X<X",
"<X<X<X<X<X<X<X<X<X<X<X<X<X<X<X<X<X<X<X<X<X<X<X<X<X<X<X<X<X<X<X<X<X<X<X<X<X<X<X<X<X<X<X<X<X<X<X<X<X<X<X<X<X<X<X<X<X<X<X<X",
"<X<X<X<X<X<X<X<X<X<X<X<X<X<X<X<X<X<X<X<X<X<X<X<X<X<X<X<X<X<X<X<X<X<X<X<X<X<X<X<X<X<X<X<X<X<X<X<X<X<X<X<X<X<X<X<X<X<X<X<X",
"<X<X<X<X<X<X<X<X<X<X<X<X<X<X<X<X<X<X<X<X<X<X<X<X<X<X<X<X<X<X<X<X<X<X<X<X<X<X<X<X<X<X<X<X<X<X<X<X<X<X<X<X<X<X<X<X<X<X<X<X",
"<X<X<X<X<X<X<X<X<X<X<X<X<X<X<X<X<X<X<X<X<X<X<X<X<X<X<X<X<X<X<X<X<X<X<X<X<X<X<X<X<X<X<X<X<X<X<X<X<X<X<X<X<X<X<X<X<X<X<X<X",
"<X<X<X<X<X<X<X<X<X<X<X<X<X<X<X<X<X<X<X<X<X<X<X<X<X<X<X<X<X<X<X<X<X<X<X<X<X<X<X<X<X<X<X<X<X<X<X<X<X<X<X<X<X<X<X<X<X<X<X<X",
"<X<X<X<X<X<X<X<X<X<X<X<X<X<X<X<X<X<X<X<X<X<X<X<X<X<X<X<X<X<X<X<X<X<X<X<X<X<X<X<X<X<X<X<X<X<X<X<X<X<X<X<X<X<X<X<X<X<X<X<X",
"<X<X<X<X<X<X<X<X<X<X<X<X<X<X<X<X<X<X<X<X<X<X<X<X<X<X<X<X<X<X<X<X<X<X<X<X<X<X<X<X<X<X<X<X<X<X<X<X<X<X<X<X<X<X<X<X<X<X<X<X"
};
