/* XPM */
static char *c328a6526bfc4977f2c3679f7b55fa17RnSvnt4kkHXk1d0I[] = {
/* columns rows colors chars-per-pixel */
"60 60 171 2 ",
"   c None",
".  c #AB7C00",
"X  c #AC7C00",
"o  c #AD7C00",
"O  c #AD7D00",
"+  c #AC7C01",
"@  c #AD7D01",
"#  c #AF7E00",
"$  c #AD7D02",
"%  c #AE7C02",
"&  c #AD7E03",
"*  c #AE7E03",
"=  c #AD7E04",
"-  c #AE7F04",
";  c #AE7F06",
":  c #AE7F07",
">  c #AF8109",
",  c #AF810A",
"<  c #B38100",
"1  c #B78500",
"2  c #B08107",
"3  c #B18207",
"4  c #BB8800",
"5  c #B6880F",
"6  c #B78911",
"7  c #B88B14",
"8  c #BB8E18",
"9  c #BC911C",
"0  c #B78D20",
"q  c #B78D21",
"w  c #B88E23",
"e  c #BA9023",
"r  c #B89026",
"t  c #BA922B",
"y  c #C18D00",
"u  c #C79100",
"i  c #CC9500",
"p  c #CD9600",
"a  c #D19900",
"s  c #D39A00",
"d  c #D79E00",
"f  c #D89F00",
"g  c #DFA400",
"h  c #DFA500",
"j  c #EDAF00",
"k  c #EDB000",
"l  c #F1B300",
"z  c #F3B503",
"x  c #F4B400",
"c  c #F8B800",
"v  c #F8B802",
"b  c #F8B903",
"n  c #F8B904",
"m  c #F8B905",
"M  c #F8BA07",
"N  c #F8BA09",
"B  c #F8BB0A",
"V  c #F8BB0B",
"C  c #F8BB0C",
"Z  c #F8BC0D",
"A  c #F8BC0F",
"S  c #F8BC11",
"D  c #F8BD12",
"F  c #F8BE18",
"G  c #F8BF19",
"H  c #F8BF1C",
"J  c #C59B28",
"K  c #C69B28",
"L  c #C79C2A",
"P  c #D4A526",
"I  c #D8A823",
"U  c #D4A72D",
"Y  c #CCA332",
"T  c #D0A531",
"R  c #D7AF3F",
"E  c #D8AE38",
"W  c #D8AF3F",
"Q  c #F8C01E",
"!  c #F8C01F",
"~  c #F8C020",
"^  c #F8C121",
"/  c #F9C223",
"(  c #F8C226",
")  c #F9C326",
"_  c #F8C328",
"`  c #F8C532",
"'  c #F8C533",
"]  c #F8C635",
"[  c #F8C739",
"{  c #F8C83B",
"}  c #F8C83D",
"|  c #CCA849",
" . c #D8B146",
".. c #DDB84E",
"X. c #C8A855",
"o. c #C9AA5A",
"O. c #D9B75B",
"+. c #CCAF63",
"@. c #D6B660",
"#. c #F3C84C",
"$. c #F8CB48",
"%. c #F8CC4B",
"&. c #F8CD50",
"*. c #F8CE51",
"=. c #F8CF57",
"-. c #F8D059",
";. c #F8D15D",
":. c #E9C660",
">. c #E9C661",
",. c #F7D266",
"<. c #F8D260",
"1. c #F8D262",
"2. c #F8D364",
"3. c #F8D467",
"4. c #F1D06D",
"5. c #F8D469",
"6. c #F8D56B",
"7. c #F8D56C",
"8. c #F8D56D",
"9. c #F3D371",
"0. c #F4D371",
"q. c #F5D473",
"w. c #F5D574",
"e. c #F7D776",
"r. c #F8D670",
"t. c #F8D671",
"y. c #F8D672",
"u. c #F8D774",
"i. c #F8D775",
"p. c #F8D877",
"a. c #F8D878",
"s. c #F8D879",
"d. c #F8D97A",
"f. c #F8D97C",
"g. c #F8D97D",
"h. c #F8DA7F",
"j. c #DCC894",
"k. c #E8CF89",
"l. c #F9DB84",
"z. c #F9DC85",
"x. c #F9DD88",
"c. c #F9DD8B",
"v. c #F9DF91",
"b. c #F9E093",
"n. c #FAE39D",
"m. c #E2D1A5",
"M. c #E3D3AA",
"N. c #E4D4AC",
"B. c #FAE5A5",
"V. c #EBE0C3",
"C. c #EEE5CC",
"Z. c #FCEFC9",
"A. c #F3EBD9",
"S. c #F3EDDC",
"D. c #F4EDDC",
"F. c #F4EEDD",
"G. c #FDF1D0",
"H. c #FDF2D2",
"J. c #FDF3D6",
"K. c #FDF5DC",
"L. c #FEF7E4",
"P. c #FEF7E5",
"I. c #FEF8E6",
"U. c #F8F3E8",
"Y. c #FEFAEC",
"T. c #FAF7F0",
"R. c #FCFAF6",
"E. c #FFFDF8",
"W. c #FFFEFB",
"Q. c #FFFFFE",
"!. c white",
/* pixels */
"                                                                                                                        ",
"                                                                                                                        ",
"                                                                                                                        ",
"                                                                                                                        ",
"                                                                                                                        ",
"                                                                                                                        ",
"                                                X X X X X X X X X X X X X X                                             ",
"                                                X X X X X X X X X X X X X X X                                           ",
"                                              9 Y Y Y Y Y Y Y Y Y Y Y Y 6 X X                                           ",
"                                      X X X X J a.a.a.a.a.a.a.a.a.a.a.a.J X X X X X X                                   ",
"                                      8 8 8 8 T <.<.<.<.<.<.<.<.<.<.<.<.T 8 8 8 7 X X                                   ",
"                                  X X :.a.a.a.&.c c c c c c c c c c c c &.a.a.a.:.X X X X                               ",
"                                  3 3 :.a.u.t.%.c c x x x x x x x x c c %.t.u.a.:.3 3 X X                               ",
"                              X X 0.a.a.a.` c c c k X X X X X X X X k c c c ` a.a.a.0.X X X X                           ",
"                              X X 0.a.p.p.` c c c j X X X X X X X X j c c c ` p.p.a.0.X X X X                           ",
"                          X X p.a.a.a.F c c c g X 6 a.a.a.a.a.a.a.a.6 X g c c c F a.a.a.p.X X X X                       ",
"                          X X a.a.a.a.F c c c g X 6 a.a.a.a.a.a.a.a.6 X g c c c F a.a.a.p.X X X X                       ",
"                          X X p.a.N c c c i X J e.,.c M a.a.a.a.M c ,.e.J X i c c c N a.p.X X X X                       ",
"                          X X p.a.M c c c i X J a.3.c M a.a.a.a.M c 3.a.J X i c c c M a.p.X X X X                       ",
"                      . = U.U.a.a.M c y < R 4.#.N N c c N N a.a.8.8.F N z l d < y c M a.a.4.4.X X X .                   ",
"                      X X !.!.a.a.M c 4 X  .a.&.c c c c c c a.a.a.a.D c c c f X 4 c M a.a.a.a.X X X X                   ",
"                      X X !.!.K.K.Z c 4 X  .a.&.c c c c c c ! ! u.a.;.-.! c f X 4 c M a.a.a.a.X X X X                   ",
"                      X X !.!.!.!.Z c 4 X  .a.&.c c c c c c c c u.a.a.a._ c f X 4 c M a.a.a.a.X X X X                   ",
"                      X X !.!.!.!.Z c 4 X  .a.2.} ] c c c c c c [ { t.a.&.} I X 4 c M a.a.a.a.X X X X                   ",
"                      X X !.!.!.!.Z c 4 X  .a.a.a.3.c c c c c c c c 3.a.a.a. .X 4 c M a.a.a.a.X X X X                   ",
"                      X X !.!.!.!.Z c 4 X O.n.v.a.6.~ ~ c c c c c c %.=.8.a. .X 4 c M a.a.a.a.X X X X                   ",
"                      X X !.!.!.!.Z c 4 X j.!.H.a.a.a.u.c c c c c c c c &.a. .X 4 c M a.a.a.a.X X X X                   ",
"                      X X !.!.!.!.Z c 4 X j.!.J.z.l.a.u.C C c c c c c c $.8.W X 4 c M a.a.a.a.X X X X                   ",
"                      X X !.!.!.!.Z c 4 X j.!.!.!.Y.a.a.a.a.c c c c c c c c f X 4 c M a.a.a.a.X X X X                   ",
"                      X X !.!.!.!.Z c 4 X j.!.!.!.Y.a.a.a.a.c c c c c c c c f X 4 c M a.a.a.a.X X X X                   ",
"                      X X !.!.!.!.Z c 4 X j.!.!.!.!.!.W.a.a.a.a.M c c c c c f X 4 c M a.a.a.a.X X X X                   ",
"                      X X !.!.!.!.Z c 4 X j.!.!.!.!.!.W.a.a.a.a.M c c c c c f X 4 c M a.a.a.a.X X X X                   ",
"                      X X a.a.!.!.Z c 4 X j.!.!.!.!.!.!.!.!.a.a.a.a.D c c c f X 4 c M a.a.a.a.X X X X                   ",
"                      X X a.a.!.!.Z c 4 X j.!.!.!.!.!.!.!.!.a.a.a.a.D c c c f X 4 c M a.a.a.a.X X X X                   ",
"                      X X a.a.h.h.M c 4 X j.!.!.!.!.!.!.!.!.W.W.h.a.t.t.( c f X 4 c M a.a.a.a.X X X X                   ",
"                      X X a.a.a.a.M c 4 X j.!.!.!.!.!.!.!.!.!.!.h.a.a.a._ c f X 4 c M a.a.a.a.X X X X                   ",
"                      X X a.a.a.a.M c 4 X j.!.!.!.!.!.!.!.!.!.!.I.I.c.a.6.<.E X 4 c M a.a.a.a.X X X X                   ",
"                      X X a.a.a.a.M c 4 X j.!.!.!.!.!.!.!.!.!.!.!.!.c.a.a.a. .X 4 c M a.a.a.a.X X X X                   ",
"                      X X a.a.a.a.M c 4 X j.!.!.!.!.!.!.!.!.!.!.!.!.H.Z.b.a. .X 4 c M a.a.a.a.X X X X                   ",
"                      X X a.a.a.a.M c 4 X j.!.!.!.!.!.!.!.!.!.!.!.!.!.!.B.a. .X 4 c M a.a.a.a.X X X X                   ",
"                      X X ....a.a.M c a u @.m.V.!.!.!.!.!.!.!.!.!.!.!.!.k...U u a c M a.a.....X X X X                   ",
"                          X X p.a.M c c c i X X.!.!.!.!.!.!.!.!.!.!.!.!.X.X i c c c M a.p.X X X X                       ",
"                          X X p.a.F D c c a 1 | A.F.!.!.!.!.!.!.!.!.F.A.+.r P ( ~ D F a.p.X X X X                       ",
"                          X X p.a.a.a.F c c c g X w !.!.!.!.!.!.!.!.w X M.!.!.!.L.a.a.a.p.X X X X                       ",
"                          X X q.e.a.a.H M c c g X e R.R.R.R.R.R.R.R.t > N.!.!.!.L.h.h.e.q.X X X X                       ",
"                              X X 0.a.a.a.` c c c k X X X X X X X X F.!.!.!.!.!.!.!.T.X X X X                           ",
"                              X X 9.a.a.a.` c c c k X X X X X X X X S.!.!.!.!.!.!.!.T.X X X X                           ",
"                                  X X :.a.a.a.&.c c c c c c !.!.!.!.!.!.!.!.!.!.C.X X X X                               ",
"                                  X X :.a.a.a.&.c c c c c c !.!.!.!.!.!.!.!.!.!.C.X X X X                               ",
"                                      = X X X L u.u.u.u.u.u.h.h.W.!.!.!.o.= = = = X X                                   ",
"                                      X X X X J a.a.a.a.a.a.a.a.W.!.!.!.X.X X X X X X                                   ",
"                                                5 5 5 5 5 5 5 5 0 0 0 0 > X X                                           ",
"                                                X X X X X X X X X X X X X X X                                           ",
"                                                                                                                        ",
"                                                                                                                        ",
"                                                                                                                        ",
"                                                                                                                        ",
"                                                                                                                        ",
"                                                                                                                        ",
"                                                                                                                        "
};
