/* XPM */
static char *result[] = {
/* columns rows colors chars-per-pixel */
"55 60 81 1 ",
"  c #5C2E7A",
". c #5F307C",
"X c #63327D",
"o c #7F3F75",
"O c #803F75",
"+ c #804176",
"@ c #84457A",
"# c #87497E",
"$ c #884B7F",
"% c #673480",
"& c #6A3681",
"* c #6E3983",
"= c #743B85",
"- c #783D87",
"; c #7A3E88",
": c #774189",
"> c #7D418A",
", c #7F498E",
"< c #8C4781",
"1 c #8A4D81",
"2 c #83438D",
"3 c #8C478A",
"4 c #8D488A",
"5 c #904986",
"6 c #924D8D",
"7 c #8D5285",
"8 c #905587",
"9 c #92558A",
"0 c #945A8C",
"q c #8A4790",
"w c #8D4992",
"e c #944D95",
"r c #984F97",
"t c #9B4F98",
"y c #8C5595",
"u c #965291",
"i c #9A5594",
"p c #9D5A96",
"a c #965498",
"s c #9C5199",
"d c #965D9B",
"f c #9E5B99",
"g c #A3559C",
"h c #A15D9B",
"j c #9C6595",
"k c #9E6897",
"l c #97609C",
"z c #9B639F",
"x c #9F6998",
"c c #A5629C",
"v c #A9669F",
"b c #A26C9B",
"n c #A5719F",
"m c #A95EA1",
"M c #AB64A2",
"N c #A66DA5",
"B c #AD6BA3",
"V c #AE6FA8",
"C c #B06FA6",
"Z c #B368A8",
"A c #A772A1",
"S c #A976A4",
"D c #AC79A6",
"F c #AE71A9",
"G c #AE7CA9",
"H c #B271A7",
"J c #B574AA",
"K c #B876AC",
"L c #B07FAB",
"P c #BA79AD",
"I c #B67FB0",
"U c #BD7DB0",
"Y c #C17EB2",
"T c #B281AD",
"R c #B586B1",
"E c #B788B3",
"W c #B88AB4",
"Q c #C383B4",
"! c #C788B7",
"~ c #CA8BBA",
"^ c None",
/* pixels */
"^^^^^^^^^^^^^^^^^^^^^^^^^^^^^^^^^^^^^^seeeeereg^^^^^^^^",
"^^^^^^^^^^^^^^^^^^^^^^^^^^^^^^^^^^^^^g*.XXXXX.>^^^^^^^^",
"^^^^^^^^^^^^^^^^^^^^^^^^^^^^^^^^^^^^^e     .;X*g^^^^^^^",
"^^^^^^^^^^^^^^^^^^^^^^^^^^^^^^^^^^^^^2 XX  X-XXr^^^^^^^",
"^^^^^^^^^^^^^^^^^^^^^^^^^^^^^^^^^^^^^- --=    .e^^^^^^^",
"^^^^^^^^^^^^^^^^^^^^^^^^^^gg^^^^^^^^g=X-X-    .e^^^^^^^",
"^^^^^^^^^^^^^^^^^^^^^^^^^g>=2wesg^^^s* =>*    Xe^^^^^^^",
"^^^^^^^^^^^^^^^^^^^^^^^^^sX   X&e^^^g&  .     Xi^^^^^^^",
"^^^^^^^^^^^^^^^^^^^^^^^^^w&- =* w^^^g*        &g^^^^^^^",
"^^^^^^^^^^^^^^^^^^^^^^^^^2X;XXX w^^^g-     =X =g^^^^^^^",
"^^^^^^^^^^^^^^^^^^^^^^^^^>      e^^^^2    X2- >^^^^^^^^",
"^^^^^^^^^^^^^^^^^^^^^^^^^2  =-XXe^^^^eX   .=X e^^^^^^^^",
"^^^^^^^^^^^^^geeeeessg^^^q &=**Xs^^^^sX      Xr^^^^^^^^",
"^^^^^^^^^^^^^s%XXXXXXq^^^eXX--%*g^^^^g=      -g^^^^^^^^",
"^^^^^^^^^^^^^e&>X    2^^^g= XX =g^^^^^2      q^^^^^^^^^",
"^^^^^^^^^^^^^q&>X .& ;^^^^eX   -^^^^^^eX>-  &s^^^^^^^^^",
"^^^^^^^^^^^^^q   X=2.-^^^^g2   ;^^^^^^g&=*  >^^^^^^^^^^",
"^^^^^^^^^^^TN3  *--X ;^^^^^g=  -g^^^^^g-    e^^^^^^^^^^",
"^^^^^^^^WGj1#3  ==-X ;^^^^^^s* &s^^^^^^q  *-g^^^^^^^^^^",
"^^^^^^^^b@O#<eX  =X  2^^^^^^^r= e^^^^^^e..qe^^^^^^^^^^^",
"^^^^^^^^bO@01e*     .2^^^^^^^^s**s^^^^^rX Xr^^^^^^^^^^^",
"^^^^^^^^b++1@52    *Xq^^^^^^^^^r*>g^^^^s% *g^^^^^^^^^^^",
"^^^^^^^^G@01O@e%  X  2^^^^^^^^^^e=e^^^^rX -g^^^^^^^g^^^",
"^^^^^^^^R71@@16; =>X 2^^^^^^^^^^^e*r^^^q  2^^^^^^sw>s^^",
"^^^^^^^^^kOo109uX=>. >Z^^^^^^^^^^^2*e^g-  w^^^gs2*. 2^^",
"^^^^^^^^^G#o@7#Bq..*dJPJKKPP!~^^^^g*X>-  Xe^ge;X    Xr^",
"^^^^^^^^^^j++o+AM-.NB9443366B~^^^^^w   =>Xs^rX.&   . 2^",
"^^^^^^^^^^T1o++jIr:PJs66339MKM~^^^^s*  *=*g^s*--*  >==g",
"^^^^^^^^^^^A@+o7R^gPBJKJHKKC96U^^^^g-    =g^^-=>&  XX&s",
"^^WTTGT^^^^Wj++@S^^U96ipps9444B^^^^^2   X2^^^w.X     Xr",
"Tj77$19T^^^^R8ooj^^!ipcc634444h~^^^^2  =we^^^sX X-&  Xe",
"D+oo7T0S^^^^^S@o8R^!hc3pi3cB36uQ^^^^2   *e^^^g* &2=  Xe",
"G@##$b$0W^^^^W9o#T^^Bcpcu3HKpcpK^^^^-   &s^^^^> .%.  Xr",
"T$79+++$T^^^^^x+@G^^H6pu3366hicC^^^g=&& ;^^^^^3.&  *&%s",
"W0++0$o@G^^^^^D@@S^^U63349i36h9v^^^s%*& e^^^^^wXX  >-*g",
"^b++1@++n^^^^^T$+D^^~p336pcu333h~^^e   =g^^^^^eX   X >g",
"^T1@77+ox^^^^^T7@G^^^K344up63ivp!^^2  Xe^^^^^^s%     q^",
"^^b@97+o0W^^^^T17T^^^~c433463cQpQ^s*  -g^^^^^^s% && Xs^",
"^^Wj@+++1T^^^^G@j^^^^^Uu6c634466U^e. .e^^^^^^^s& == -g^",
"^^^Rx@+++b^^^^b$G^^^^^^K6e333446PB=  2^^^^^^^^s%   .e^^",
"^^^^^D0+o#G^^T8b^^^^^^^~v4446333KgX *g^^^^^^^^eX   -g^^",
"^^^^^^Rb$o9TRj0R^^^^^^^^!h343334Hy Xe^^^^^^^^^2   .e^^^",
"^^^^^^^^D7o17@n^^^^^^^^^^Qs3pi33By 2^^^^^^^^^s&   ;m^^^",
"^^^^^^^^^G1oo@D^^^^^^^^^^MJ96643fz=g^^^^^^^^g-   =g^^^^",
"^^^^^^^^^^S#o@D^^^^^^^^^^qyK6344iJs^^^^^^^^g2   *r^^^^^",
"^^^^^^^^^^^b++j^^^^^^^^^^>*KJ4334P^^^^^^^^g-   =s^^^^^^",
"^^^^^^^^^^^W0o8R^^^^^^^^g*&gQB334F^^^^^^ge*  .>s^^^^^^^",
"^^^^^^^^^^^^A+#L^^^^^^^^3. =wFc34f~^^^gw-   =eg^^^^^^^^",
"^^^^^^^^^^^^L#@D^^^^^^^e%    *Ja36Pme2*  %-wg^^^^^^^^^^",
"^^^^^^^^^^^^R7+D^^^^^^r*     .yB44J, .%=3rg^^^^^^^^^^^^",
"^^^^^^^^^^^^R9@D^^^^gw&       *J63Cp3egg^^^^^^^^^^^^^^^",
"^^^^^^^^^^^^W0#T^^^s2X    X&*>qL94MY^^^^^^^^^^^^^^^^^^^",
"^^^^^^^^^^^^W07R^s2%  .&-qesg^^Y63B^^^^^^^^^^^^^^^^^^^^",
"^^^^^^^^^^^^R0ss2& %:zVMg^^^^^^K44K^^^^^^^^^^^^^^^^^^^^",
"^^^^^^^^^^^mmw-%%:dVJccE^^^^^^!p3uQ^^^^^^^^^^^^^^^^^^^^",
"^^^^^^^^^^s2*X*yVPBi545eBP!!!Ph43c~^^^^^^^^^^^^^^^^^^^^",
"^^^^^^^^^^geeuU~Ci433443469iu634uU^^^^^^^^^^^^^^^^^^^^^",
"^^^^^^^^^^^^^^^^!YJci63333444349P^^^^^^^^^^^^^^^^^^^^^^",
"^^^^^^^^^^^^^^^^^^^~~PBcs6669svQ^^^^^^^^^^^^^^^^^^^^^^^",
"^^^^^^^^^^^^^^^^^^^^^^^~!YUUQ~~^^^^^^^^^^^^^^^^^^^^^^^^"
};
