/* XPM */
static char *result[] = {
/* columns rows colors chars-per-pixel */
"60 60 164 2 ",
"   c #540E0F",
".  c #5E090C",
"X  c #5C1114",
"o  c #650F0F",
"O  c #6A0D0F",
"+  c #76070C",
"@  c #7D070C",
"#  c #750B0E",
"$  c #7B090D",
"%  c #64100F",
"&  c #630E11",
"*  c #6B0E12",
"=  c #730C12",
"-  c #7B0C13",
";  c #740B19",
":  c #7B0E18",
">  c #661010",
",  c #6B1114",
"<  c #67161D",
"1  c #741117",
"2  c #7C1115",
"3  c #75151A",
"4  c #7C141B",
"5  c #75241F",
"6  c #7D1A22",
"7  c #810507",
"8  c #84050B",
"9  c #8B050C",
"0  c #82090E",
"q  c #8B090F",
"w  c #93050D",
"e  c #9C050F",
"r  c #870711",
"t  c #8C0711",
"y  c #850C13",
"u  c #8C0C15",
"i  c #800E1A",
"p  c #8B0E19",
"a  c #940612",
"s  c #9C0612",
"d  c #940A14",
"f  c #9C0A14",
"g  c #98071A",
"h  c #930E19",
"j  c #9C0C1A",
"k  c #831417",
"l  c #8B1017",
"z  c #84131C",
"x  c #8C131C",
"c  c #871A1F",
"v  c #94121C",
"b  c #9C121D",
"n  c #A2050D",
"m  c #A10611",
"M  c #AC0612",
"N  c #A30916",
"B  c #AC0B16",
"V  c #A40D1A",
"C  c #AB0D1A",
"Z  c #B20B17",
"A  c #B40D1C",
"S  c #A3121D",
"D  c #AB121E",
"F  c #B2121E",
"G  c #8E1521",
"H  c #8E1B26",
"J  c #8E1F2B",
"K  c #9C1624",
"L  c #921A25",
"P  c #9A1823",
"I  c #9C1728",
"U  c #931E2B",
"Y  c #9C1C2A",
"T  c #AB0F20",
"R  c #B40F21",
"E  c #A51423",
"W  c #AC1423",
"Q  c #A41925",
"!  c #AA1926",
"~  c #A71728",
"^  c #AB1629",
"/  c #A31C2C",
"(  c #AD1C2C",
")  c #B41524",
"_  c #B31926",
"`  c #B71528",
"'  c #B31B2B",
"]  c #BB1C2D",
"[  c #A51F34",
"{  c #AB1E30",
"}  c #B41E30",
"|  c #BB1E31",
" . c #822C20",
".. c #84242C",
"X. c #93212C",
"o. c #9A212F",
"O. c #862733",
"+. c #842C36",
"@. c #8D2D31",
"#. c #942635",
"$. c #9B2035",
"%. c #902A31",
"&. c #992D3E",
"*. c #80363D",
"=. c #993239",
"-. c #AD212F",
";. c #B3202E",
":. c #A02231",
">. c #AD2233",
",. c #A92934",
"<. c #A62C3E",
"1. c #AE2C3A",
"2. c #B42334",
"3. c #BC2233",
"4. c #B22934",
"5. c #B92836",
"6. c #B6263A",
"7. c #BD263B",
"8. c #B32A3A",
"9. c #BC2A3D",
"0. c #A63131",
"q. c #B1303F",
"w. c #BA353F",
"e. c #C01E2D",
"r. c #C22537",
"t. c #C1253A",
"y. c #C42B3E",
"u. c #BD2D41",
"i. c #A33140",
"p. c #AD3A49",
"a. c #BC3444",
"s. c #B73E4B",
"d. c #BD3B4E",
"f. c #BC3750",
"g. c #C52D43",
"h. c #C82F46",
"j. c #C43146",
"k. c #C93247",
"l. c #C3344A",
"z. c #CA344C",
"x. c #C73C4D",
"c. c #CA394D",
"v. c #CE3B52",
"b. c #D13D54",
"n. c #D13B58",
"m. c #B2424C",
"M. c #B04152",
"N. c #C54356",
"B. c #CE4C56",
"V. c #D14055",
"C. c #D5455B",
"Z. c #D6495E",
"A. c #DA4C5D",
"S. c #DA4C64",
"D. c #CE5161",
"F. c #DD5166",
"G. c #D25668",
"H. c #DD5269",
"J. c #E1556C",
"K. c #E25B71",
"L. c #D06274",
"P. c #E7637A",
"I. c #DC738A",
"U. c None",
/* pixels */
"U.U.U.U.U.U.U.U.U.U.U.U.U.U.U.U.U.U.U.U.U.U.U.U.U.U.U.U.U.U.U.U.U.U.U.U.U.U.U.U.U.U.U.U.U.U.U.U.U.U.U.U.U.U.U.U.U.U.U.U.",
"U.U.U.U.U.U.U.U.U.U.U.U.U.U.U.U.U.U.U.U.U.U.U.U.U.U.U.U.U.U.U.U.U.U.U.U.U.U.U.U.U.U.U.U.U.U.U.U.U.U.U.U.U.U.U.U.U.U.U.U.",
"U.U.U.U.U.U.U.U.U.U.U.U.U.U.U.U.U.U.U.U.U.U.U.U.U.U.U.U.U.U.U.U.U.U.U.U.U.U.U.U.U.U.U.U.U.U.U.U.U.U.U.U.U.U.U.U.U.U.U.U.",
"U.U.U.U.U.U.U.U.U.U.U.U.U.U.U.U.U.U.U.U.U.U.U.U.U.U.U.U.U.U.U.U.U.U.U.U.U.U.U.U.U.U.U.U.U.U.U.U.U.U.U.U.U.U.U.U.U.U.U.U.",
"U.U.U.U.U.U.U.U.U.U.U.U.U.U.U.U.U.U.U.U.U.U.U.U.U.U.U.U.U.U.U.U.U.U.U.U.U.U.U.U.U.U.U.U.U.U.U.U.U.U.U.U.U.U.U.U.U.U.U.U.",
"U.U.U.U.U.U.U.U.U.U.U.U.U.U.U.U.U.U.U.U.U.U.U.U.U.U.U.U.U.U.U.U.U.U.U.U.U.U.U.U.U.U.U.U.U.U.U.U.U.U.U.U.U.U.U.U.U.U.U.U.",
"U.U.U.U.U.U.U.U.U.U.U.U.U.U.U.U.U.U.U.U.U.U.U.U.U.U.U.U.U.U.U.U.U.U.U.U.U.U.U.U.U.U.U.U.U.U.U.U.U.U.U.U.U.U.U.U.U.U.U.U.",
"U.U.U.U.U.U.U.U.U.U.U.U.U.U.U.U.U.U.U.U.U.U.U.U.U.U.U.U.U.U.U.U.U.U.U.U.U.U.U.U.U.U.U.U.U.U.U.U.U.U.U.U.U.U.U.U.U.U.U.U.",
"U.U.U.U.U.U.U.U.U.U.U.U.U.U.U.U.U.U.U.U.U.U.U.U.U.U.U.U.U.U.U.U.U.U.U.U.U.U.U.U.U.U.U.U.U.U.U.U.U.U.U.U.U.U.U.U.U.U.U.U.",
"U.U.U.U.U.U.U.U.U.U.U.U.U.U.U.U.U.U.U.U.U.U.U.U.U.U.U.U.U.U.U.U.U.U.U.U.U.U.U.U.U.U.U.U.U.U.U.U.U.U.U.U.U.U.U.U.U.U.U.U.",
"U.U.U.U.U.U.U.U.U.U.U.U.U.U.U.U.U.U.U.U.U.U.U.U.U.U.U.U.U.U.U.U.U.U.U.U.U.U.U.U.U.U.U.U.U.U.U.U.U.U.U.U.U.U.U.U.U.U.U.U.",
"U.U.U.U.U.U.U.U.U.U.U.U.U.U.U.U.U.U.U.U.U.U.U.U.U.U.U.U.U.U.U.U.U.U.U.U.U.U.U.U.U.U.U.U.U.U.U.U.U.U.U.U.U.U.U.U.U.U.U.U.",
"U.U.U.U.U.U.U.U.U.U.U.U.U.U.U.U.U.U.U.U.U.U.U.U.U.U.U.U.U.U.U.U.U.U.U.U.U.U.U.U.U.U.U.U.U.U.U.U.U.U.U.U.U.U.U.U.U.U.U.U.",
"U.U.U.U.U.U.U.U.U.U.U.U.U.U.U.U.U.U.U.U.U.U.U.U.U.U.4.U.U.U.U.U.U.U.U.U.U.U.U.U.U.U.U.U.U.U.U.U.U.U.U.U.U.U.U.U.U.U.U.U.",
"U.U.U.U.U.U.U.U.U.U.U.U.U.U.U.U.U.U.U.U.U.U.U.U.O.U.>.U.U.U.U.U.U.U.U.U.U.U.U.U.U.U.U.U.U.U.U.U.U.U.U.U.U.U.U.U.U.U.U.U.",
"U.U.U.U.U.U.U.U.U.U.U.U.U.U.U.U.U.U.U.U.U.U.U.U.6.3 w.U.W U.U.U.U.U.U.U.U.U.U.U.U.U.U.U.U.U.U.U.U.U.U.U.U.U.U.U.U.U.U.U.",
"U.U.U.U.U.U.U.U.U.U.U.U.U.U.U.U.U.U.U.U.U.U.U.U.P x U.U.U.U.U.U.U.U.6 U.~ U.U.U.U.U.U.U.U.U.U.U.U.U.U.U.U.U.U.U.U.U.U.U.",
"U.U.U.U.U.U.U.U.U.U.U.U.U.U.U.U.U.U.U.4 I U.U.U.' X ' b U.U.U.U.U.U.U.I b U.U.U.U.U.U.U.U.U.U.U.U.U.U.U.U.U.U.U.U.U.U.U.",
"U.U.U.U.U.U.U.U.U.U.U.U.U.U.U.U.U.>.W d V U.U.e.U.' v K ~ ' U U.U.U.2 u l U.U.U.U.U.U.U.U.U.U.U.U.U.U.U.U.U.U.U.U.U.U.U.",
"U.U.U.U.U.U.U.U.U.U.U.U.U.U.U.U.U.U.; k - U.U.W ' , ~ V b U.Q U.U.W } x U.U.h U.U.3.U.U.5.U.U.U.U.U.U.U.U.U.U.U.U.U.U.U.",
"U.U.U.U.U.U.U.U.U.U.U.U.U.U.U.a.' j X ^ f U.s 2 4.9 - F ( E j U.d.2.~ x U.- U.U.y / U.t.U.U.U.U.U.U.U.U.U.U.U.U.U.U.U.U.",
"U.U.U.U.U.U.U.U.U.U.U.U.U.U.U.U.U.v ' U.` U.U.U.k.X h ^ Q e Y v p a.j.L.2 & z x ! ' U.3.r.U.U.U.U.U.U.U.U.U.U.U.U.U.U.U.",
"U.U.U.U.U.U.U.U.U.U.U.U.U.E U.E U.V U.6.3.U.U.U.;.3 # ' E u j ! < ~ ! Q D.U.+.a.3 k y.U.U.U.) U.U.U.U.U.U.U.U.U.U.U.U.U.",
"U.U.U.U.U.U.U.U.U.U.U.U.U.s U.C U.U.U./ j.C U.S b d 1 / -.u d ( u a >.>.>.*.4.+.:.U.3.U.U.U.8.U.U.U.U.U.U.U.U.U.U.U.U.U.",
"U.U.U.U.U.U.U.U.U.#.K U.U.U.) _ U.U.A U.y.| U.U.v N & u.2 I ! i r 0 E U.>.u 9.L V 3.2.U.v ) E U.U.U.W U.U.U.U.U.U.U.U.U.",
"U.U.U.U.U.U.U.U.U.U.U.! U.U.U.U.| U.B ] g.g.U.j g.) K g.| ( d y 4 j ) j { y j 8.m.x I s j C U.U.k E U.U.U.U.U.U.U.U.U.U.",
"U.U.U.U.U.U.U.U.U.L U.U.' U.U.W } 7.{ g 2.l.! ' v.p g.9.# _ & 8 8 r Y S J w ( S 3.S X.n 4.C U.a ,.U.U.U.U.U.U.U.U.U.U.U.",
"U.U.U.U.U.U.U.U.U.U.U.Q U.~ 6.y.6.u.h.j - C g.C.c.k u.c.U.' + p u 8 T U.y.( ` ) h V m [ X % b u N U.U.U.U.U.U.U.U.U.U.U.",
"U.U.U.U.U.U.U.U.U.U.U.U.9 U.U.U.U.M } v.U.# ) S.h.! z F.& 3.* @ f q C ;.a.B ) V C ) X O > $ o e = W U.U.U.U.U.U.U.U.U.U.",
"U.U.U.U.U.U.U.U.U.U.U.U.U.U.U.s C U.g c.! $ * ` S.b.c.H.X 7.u @ u g b C.v e N u ` U.2.:.+ o z N U.U.U.U.I.U.U.U.U.U.U.U.",
"U.U.U.U.U.U.U.U.U.U.z U.U.S U.U.L ) ] V.V.~ C W C.c.b.S.@.v.} = h 9 3.6.h ) K 2 I N V #   9 ( U.U.U.) J f.U.X.U U.U.U.U.",
"U.U.U.U.U.U.U.U.U.U.U.d r U.G Q ' 3.7.g.k.v.C.S.J.b.v.n.F.v.E u y h S - V ' + E B ) a y V.l n d S ) x s.U.U.U.U.U.U.U.U.",
"U.U.U.U.U.U.U.U.U.U.U.U.j.U.U.U.( j w V 6.y.c.c.b.b.C.h.b.S.Q u l 2 $ ) j Q C Q - a d 8.~ D D ' ! $.U.U.U.U.U.U.U.U.U.U.",
"U.U.U.U.U.U.U.U.U.U.U.U.U.U.W 2 U.q d i.b 2.u.U.f.C.C.b.S.J.( x v <.3 N l.G N 1 - i U.= | ( ] } U.t V ] U.U.U.U.U.U.U.U.",
"U.U.U.U.U.U.U.U.U.U.U.U.U.U.U.-.N h % & T Q C s p Y N.l.F.H.v h v.f w ] u s @ I U.w B U.) U.U.U.D U.U.U.U.U.U.U.U.U.U.U.",
"U.U.U.U.U.U.U.U.U.U.U.U.U.U.U.w q , S S K p g.9 & f U...G.4.P ( f s | ;.2.U.U.m m B 9 U.U.r.U.E U.U.W U.U.U.U.U.U.U.U.U.",
"U.U.U.U.U.U.U.U.U.U.U.U.U.U.U.j u w , % + ( _ z 7 ; U.Q ' ! k.F.c.y.c.] ` ] y.D ] U.U.) U.C U.0 U.U.3 U.U.U.U.U.U.U.U.U.",
"U.U.U.U.U.U.U.U.U.U.U.U.U.U.U.U.U.U.` 8 H @ g ) , : a N.D >.x.D y.F.z.h.` E D ` U.U.U.U.U.U.k U.U.U.U.U.U.U.U.U.U.U.U.U.",
"U.U.U.U.U.U.U.U.U.U.U.U.M./ D U.U.C w l 5.] ' t.: y y u.V y.h.3.v.V.t.v.B U.U.Z U.U.U.U.U.U.U.U.U.U.U.U.U.U.U.U.U.U.U.U.",
"U.U.U.U.U.U.U.U.U.U.U o.U.=.x D V d s ! V u i 8._ p./ } k.K.m.c.b.z.! D } | A U.U.U.U.U.U.U.U.U.U.U.U.U.U.U.U.U.U.U.U.U.",
"U.U.U.U.U.U.U.U.U.U.U.U.U.U.U.U.S U.k.E h.9 U.e k.! b ! z.J.B.V.=.$.+ - q W e.F ! U.U.U.U.U.U.U.U.U.U.U.U.U.U.U.U.U.U.U.",
"U.U.U.U.U.U.U.U.U.U.U.U.U.<.V ) U.F U.U.C q U.3.c.y.V.A.S.P.J.2.! - U.# . E I y U.U.U.U.U.U.U.U.U.U.U.U.U.U.U.U.U.U.U.U.",
"U.U.U.U.U.U.U.U.U.U.U.U.U.U.U.U.E U.U.U.] U.C U.5.U.B y.F.F.F.S.z , = o.U.- 0.U.U.U.U.U.U.U.U.U.U.U.U.U.U.U.U.U.U.U.U.U.",
"U.U.U.U.U.U.U.U.U.U.U.U.U.U.U.D U.U.d U.N U.U.U.U.U.U.U.g.>.4.s.K b U.U.U. .5 U.U.U.U.U.U.U.U.U.U.U.U.U.U.U.U.U.U.U.U.U.",
"U.U.U.U.U.U.U.U.U.U.U.U.U.U.U.c U.U.U.U.U.d U.U.U.U.U.U.U.@.U.U.U.6 U.U.U.U.U.U.U.U.U.U.U.U.U.U.U.U.U.U.U.U.U.U.U.U.U.U.",
"U.U.U.U.U.U.U.U.U.U.U.U.U.U.U.U.U.U.U.U.U.U.U.U.U.U.U.U.U.U.U.U.U.U.U.U.U.U.U.U.U.U.U.U.U.U.U.U.U.U.U.U.U.U.U.U.U.U.U.U.",
"U.U.U.U.U.U.U.U.U.U.U.U.U.U.U.U.U.U.U.U.U.U.U.U.U.U.U.U.U.U.U.U.U.U.U.U.U.U.U.U.U.U.U.U.U.U.U.U.U.U.U.U.U.U.U.U.U.U.U.U.",
"U.U.U.U.U.U.U.U.U.U.U.U.U.U.U.U.U.U.U.U.U.U.U.U.U.U.U.U.U.U.U.U.U.U.U.U.U.U.U.U.U.U.U.U.U.U.U.U.U.U.U.U.U.U.U.U.U.U.U.U.",
"U.U.U.U.U.U.U.U.U.U.U.U.U.U.U.U.U.U.U.U.U.U.U.U.U.U.U.U.U.U.U.U.U.U.U.U.U.U.U.U.U.U.U.U.U.U.U.U.U.U.U.U.U.U.U.U.U.U.U.U.",
"U.U.U.U.U.U.U.U.U.U.U.U.U.U.U.U.U.U.U.U.U.U.U.U.U.U.U.U.U.U.U.U.U.U.U.U.U.U.U.U.U.U.U.U.U.U.U.U.U.U.U.U.U.U.U.U.U.U.U.U.",
"U.U.U.U.U.U.U.U.U.U.U.U.U.U.U.U.U.U.U.U.U.U.U.U.U.U.U.U.U.U.U.U.U.U.U.U.U.U.U.U.U.U.U.U.U.U.U.U.U.U.U.U.U.U.U.U.U.U.U.U.",
"U.U.U.U.U.U.U.U.U.U.U.U.U.U.U.U.U.U.U.U.U.U.U.U.U.U.U.U.U.U.U.U.U.U.U.U.U.U.U.U.U.U.U.U.U.U.U.U.U.U.U.U.U.U.U.U.U.U.U.U.",
"U.U.U.U.U.U.U.U.U.U.U.U.U.U.U.U.U.U.U.U.U.U.U.U.U.U.U.U.U.U.U.U.U.U.U.U.U.U.U.U.U.U.U.U.U.U.U.U.U.U.U.U.U.U.U.U.U.U.U.U.",
"U.U.U.U.U.U.U.U.U.U.U.U.U.U.U.U.U.U.U.U.U.U.U.U.U.U.U.U.U.U.U.U.U.U.U.U.U.U.U.U.U.U.U.U.U.U.U.U.U.U.U.U.U.U.U.U.U.U.U.U.",
"U.U.U.U.U.U.U.U.U.U.U.U.U.U.U.U.U.U.U.U.U.U.U.U.U.U.U.U.U.U.U.U.U.U.U.U.U.U.U.U.U.U.U.U.U.U.U.U.U.U.U.U.U.U.U.U.U.U.U.U.",
"U.U.U.U.U.U.U.U.U.U.U.U.U.U.U.U.U.U.U.U.U.U.U.U.U.U.U.U.U.U.U.U.U.U.U.U.U.U.U.U.U.U.U.U.U.U.U.U.U.U.U.U.U.U.U.U.U.U.U.U.",
"U.U.U.U.U.U.U.U.U.U.U.U.U.U.U.U.U.U.U.U.U.U.U.U.U.U.U.U.U.U.U.U.U.U.U.U.U.U.U.U.U.U.U.U.U.U.U.U.U.U.U.U.U.U.U.U.U.U.U.U.",
"U.U.U.U.U.U.U.U.U.U.U.U.U.U.U.U.U.U.U.U.U.U.U.U.U.U.U.U.U.U.U.U.U.U.U.U.U.U.U.U.U.U.U.U.U.U.U.U.U.U.U.U.U.U.U.U.U.U.U.U.",
"U.U.U.U.U.U.U.U.U.U.U.U.U.U.U.U.U.U.U.U.U.U.U.U.U.U.U.U.U.U.U.U.U.U.U.U.U.U.U.U.U.U.U.U.U.U.U.U.U.U.U.U.U.U.U.U.U.U.U.U.",
"U.U.U.U.U.U.U.U.U.U.U.U.U.U.U.U.U.U.U.U.U.U.U.U.U.U.U.U.U.U.U.U.U.U.U.U.U.U.U.U.U.U.U.U.U.U.U.U.U.U.U.U.U.U.U.U.U.U.U.U."
};
