/* XPM */
static char *_024c9cd04094455bca0fbad4ba797366Kw4oEsqUyQQ0YhK[] = {
/* columns rows colors chars-per-pixel */
"60 60 232 2 ",
"   c None",
".  c #070703",
"X  c #161007",
"o  c #2A1B0D",
"O  c #67453A",
"+  c #784437",
"@  c #73572E",
"#  c #74411F",
"$  c #3A4447",
"%  c #464849",
"&  c #454E52",
"*  c #4A5559",
"=  c #555454",
"-  c #5B5C5D",
";  c #585957",
":  c #5D4F4A",
">  c #645C59",
",  c #6B5F5A",
"<  c #645855",
"1  c #695450",
"2  c #65615D",
"3  c #76625C",
"4  c #495A62",
"5  c #596B73",
"6  c #57656A",
"7  c #636363",
"8  c #646C6C",
"9  c #6C6C6C",
"0  c #6B6764",
"q  c #746C69",
"w  c #78736D",
"e  c #6A7273",
"r  c #67777D",
"t  c #737373",
"y  c #7B7974",
"u  c #7B7B7A",
"i  c #787775",
"p  c #6A7070",
"a  c #943A1F",
"s  c #95391F",
"d  c #873C27",
"f  c #963B22",
"g  c #8B412A",
"h  c #9C4224",
"j  c #984429",
"k  c #894B38",
"l  c #994D35",
"z  c #95503B",
"x  c #8A513E",
"c  c #A24525",
"v  c #A44C2B",
"b  c #AC4D2B",
"n  c #A44928",
"m  c #B24E29",
"M  c #AD522E",
"N  c #B5522B",
"B  c #B9562C",
"V  c #AC4E34",
"C  c #AB5534",
"Z  c #B55334",
"A  c #B85534",
"S  c #BC5A34",
"D  c #BC5D3A",
"F  c #B35937",
"G  c #AE6937",
"H  c #CB5B2E",
"J  c #C6582D",
"K  c #D35D2D",
"L  c #CA5D34",
"P  c #D55F33",
"I  c #C5633B",
"U  c #CD6A3C",
"Y  c #CB6336",
"T  c #D36233",
"R  c #DD6332",
"E  c #D46C3C",
"W  c #DA6C3B",
"Q  c #DD6736",
"!  c #DA723E",
"~  c #D7733E",
"^  c #D1602F",
"/  c #E16534",
"(  c #E16936",
")  c #EE6C34",
"_  c #E46C39",
"`  c #EB6C3A",
"'  c #EA6634",
"]  c #F06D34",
"[  c #ED7137",
"{  c #E6723B",
"}  c #EB733A",
"|  c #EC7A3E",
" . c #E67539",
".. c #F4753C",
"X. c #8A5544",
"o. c #8F5C4A",
"O. c #8A6958",
"+. c #84715D",
"@. c #946E4F",
"#. c #AF794B",
"$. c #837B74",
"%. c #877D77",
"&. c #867863",
"*. c #CB6C43",
"=. c #DC7C44",
"-. c #D77947",
";. c #CE794D",
":. c #EE7B42",
">. c #E67945",
",. c #F47D43",
"<. c #F87843",
"1. c #F0823F",
"2. c #B68C44",
"3. c #8A827A",
"4. c #968672",
"5. c #AE8B55",
"6. c #DA834C",
"7. c #CD9551",
"8. c #E88649",
"9. c #F38343",
"0. c #F58B42",
"q. c #F78848",
"w. c #ED914D",
"e. c #F8984D",
"r. c #EB8A54",
"t. c #F28F53",
"y. c #ED9656",
"u. c #F49453",
"i. c #FA9554",
"p. c #F19A55",
"a. c #FA9C54",
"s. c #F29659",
"d. c #F59C59",
"f. c #FA9D5B",
"g. c #FA9758",
"h. c #C7A94A",
"j. c #DDB654",
"k. c #DCB956",
"l. c #D7B85A",
"z. c #CCAD52",
"x. c #FEA14C",
"c. c #FBA155",
"v. c #F4A15A",
"b. c #FCA25C",
"n. c #FCA95F",
"m. c #EA9C63",
"M. c #D7B864",
"N. c #FAA461",
"B. c #FCAC64",
"V. c #F6A865",
"C. c #FDB167",
"Z. c #E1C15E",
"A. c #DDC968",
"S. c #CFCB70",
"D. c #E2C664",
"F. c #E2C966",
"G. c #E4CC6B",
"H. c #E0C76E",
"J. c #E6D56D",
"K. c #EBD576",
"L. c #EFD071",
"P. c #F1E27A",
"I. c #EFE17F",
"U. c #697A83",
"Y. c #747D82",
"T. c #78868B",
"R. c #7E8DA1",
"E. c #878786",
"W. c #9B8D83",
"Q. c #958B83",
"!. c #9C928B",
"~. c #9B938A",
"^. c #8D9495",
"/. c #8C999C",
"(. c #939393",
"). c #9B9C9B",
"_. c #9A9897",
"`. c #878E92",
"'. c #A6968D",
"]. c #AC9B8E",
"[. c #A8978F",
"{. c #B09F8F",
"}. c #A29A94",
"|. c #AB9A92",
" X c #A49D9B",
".X c #A09790",
"XX c #B29F91",
"oX c #A18F80",
"OX c #ACA49C",
"+X c #A9A199",
"@X c #B3A292",
"#X c #BEA695",
"$X c #B3A59B",
"%X c #BCAA9C",
"&X c #BBA89A",
"*X c #9CA4A3",
"=X c #9EA9AC",
"-X c #A3A3A3",
";X c #ACA5A4",
":X c #ACA8A4",
">X c #A5ABAC",
",X c #ADADAD",
"<X c #A7A9A5",
"1X c #B4ABA3",
"2X c #B9AAA1",
"3X c #B3ACAC",
"4X c #A7ADB1",
"5X c #ADB3B4",
"6X c #AAB4B6",
"7X c #B2B2B2",
"8X c #BBB4B3",
"9X c #B3BBBC",
"0X c #B6BBBC",
"qX c #B2B2AF",
"wX c #9B9EA0",
"eX c #CBB29B",
"rX c #F8ED91",
"tX c #D3C7A8",
"yX c #B7BEC1",
"uX c #BBC2C3",
"iX c #BFC7C9",
"pX c #C5CDCD",
"aX c #C5C8C8",
"sX c #C4CDD2",
"dX c #CDD3D3",
"fX c #CDD8DA",
"gX c #D6D9D8",
"hX c #CDD0CF",
"jX c #DBE4E4",
"kX c #DFE8E8",
"lX c #E8F0F4",
"zX c #E3ECED",
/* pixels */
"                                                                                                                        ",
"                                                  4X,X8X8X8X1X~.  >X                                                    ",
"                                          8X3X+X  ^.7X3X8X8X;XQ.  sX7X8X3X                                              ",
"                                      -X3X7X7X3XQ.u uX3X8X7X;X$.*XfX,X7X3X:X:X                                          ",
"                                    -X X;X,X7X,X.X- 5X,X8X7X-X0 >XyX7X3X3X3X:X:X:X                                      ",
"                                    4X).-X:X,X,XOX% ).).-X-X_.- 5X8X8X3X3X3X3X:X:X:X:X                                  ",
"                               X!.  * 9X).-X:X5XE.4 * = ; > - * 5 T.,X3X3X3X3X3X:X:X:X:X                                ",
"                              -X X_.9 5 4X-XT.- + d h h c h U N v X.7 r ).3X3X3X:X:X:X;X;X                              ",
"                            9X5X-X X Xt Y.= d f h c Z S B b 8.! Y J b k > r -X3X:X:X-X+X.X                              ",
"                          >XyX9X5X,X-X4 O d s c S U -.-.I M g.i.i.8.E v l 1 5 `.:X-X XE.5 $                             ",
"                        u (.).5X9X5X5 : j j f *.*.-.8.8.=.M f.f.f.f.d.F I F > 4 T.U.r r r ^.).                          ",
"                        % * E.(.wX`.= g h D j -.-.6.w.w.8.M f.g.f.f.f.F -.>.U x = fX>X:XOXOXOX                          ",
"                        u % $ & u 4 + h I -.j y.r.8.y.p.8.M f.f.f.f.f.F r.q.8.E z fX:XOXOXOXOX                          ",
"                    sXuXiX7XOX~.& + j I =.r.h v.p.r.p.p.8.M b.f.f.f.g.Z r.i.q.=.z 9X:XOXOXOX1X                          ",
"                    7X5X,X,X:X!.7 h I =.t.t.h N.d.8.d.d.8.M b.b.f.f.f.Z r.g.i.>.l >X-XOXOXOXOX+X                        ",
"                    7X,X,X,X,X X0 v -.8.i.p.h N.d.8.d.v.-.M N.b.N.f.f.Z y.f.i.>.C _. X}.}.}. X}.                        ",
"                    T.qX,X,X,X+X9 *.8.u.a.u.h N.v.6.v.p.-.C B.N.N.b.f.Z s.f.g.:.V < 4 4 4 4 4 6                         ",
"                    5 0X,X,X,X-X9 ;.t.i.a.u.c B.v.6.v.p.=.C B.n.b.b.f.A s.f.g.,.V o././.^.^.^.(.                        ",
"                    ,X5 /.uX,X-X2 ;.i.a.c.i.b B.p.I v.a.=.C B.n.n.b.f.A s.f.d.,.V Q.3X+X+X$X$X2X                        ",
"                    7X,X>X5 0X-X2 6.a.a.c.i.b B.p.~ c.c.=.F C.c.c.c.f.A s.f.f.,.V $.:X+X+XOXOX1X                        ",
"                    7X,XqX>XT.+X2 6.a.c.c.i.b B.p.w.x.a.=.S C.c.c.a.g.A s.f.f.,.V 3 U.U.U.T.`.E.                        ",
"                    7X,X,X,X^.`.2 6.a.c.c.u.m B.p.w.x.c.=.S C.c.c.a.f.A s.f.f.,.Z + p ; & & $ *                         ",
"                    ,X,X,X,X,Xi 2 6.a.c.c.w.N B.p.w.x.a.6.D C.c.c.a.f.A y.f.g.<.Z X.9X;X:X<X*X+X                        ",
"                    :X;X,X,X;X~.- 6.i.a.c.0.N B.p.w.x.x.=.D C.b.d.g.g.A r.f.i.<.A x 8X1X,X,X$X%X                        ",
"                    :X|.;X:XOX!.- 6.e.a.a.0.N B.p.w.e.e.=.S C.f.s.g.u.A r.i.t.<.A x 0X,X,X,X1X%X                        ",
"                    ;X|.+X+X|.!.2 6.e.e.e.0.N n.p.8.m.eX5.#.B.d.u.u.u.S 8.i.r.<.S k yX,X,X,X1X%X                        ",
"                    OX|.|.|.|.!.0 6.0.0.0.9.N b.u.tXfXR.U.5 _.m.m.V.m.;.y.b.b.r.;.o.9X,X,X,X2X%X                        ",
"                    ;X|.|.|.}.~.q 6.1.0.0.9.N c.rXeX; @ h.J.J.j.h.5.G.G.G.D.D.l.l.l.6X,X,X,X2X%X                        ",
"                    :X@X@X@X@XW.q =.9.0.0.9.N c.rXI.H.2.h.h.h.z.z.G F.D.F.F.F.Z.j.l.=X,X,X,X1X&X                        ",
"                    9 - - ; = = 2 =.9.1.0.9.N L.rXP.G.K.K.l.2.# &.4.k.D.Z.D.k.j.j.k.*X,X,X,X1X&X                        ",
"                    aX!.].].].$.; =.9.9.9.9.b K.K.F.P.F.F.G.M.h.# @ k.k.j.k.k.j.j.k./.,X,X,X1X&X                        ",
"                    aX@X@X@X@XE.< =.1.9.9.| b A.F.F.z.X S.J.I.M.O.O.+.+.+.+.+.+.+.@.^.1X1X1X2X&X                        ",
"                    OX@X@X@X@X$.> -.| 1.1.| G A.k.k.2.. S.D.K.h.o.D ! h Y W W T P g `.2X1X1X%X#X&X                      ",
"                    $X@X@X@X{.u > ~ | | | | #.l.k.A.o X P.D.F.4.v 9.q.a ! 9.9...` j T.2X2X2X%X#X#X                      ",
"                    OX}.}.}..Xu > ~ | | | { j G k.h.. X J.J.z.O.B q.q.a W 9.9...` j Y.2X2X2X%X#X#X                      ",
"                    `.9 9 9 9 ; : ! } | | { v C 2.A.J.J.F.A.#.l E q.q.a W :.| ` ` b r 2X&X&X&X#X#X                      ",
"                    7 7 0 q y t : ! } } } { n 9.v 2.l.l.7.#.O.S :.9.q.a W | { ` ` b e $X&X&X#X#X#X                      ",
"                    aX|.|.{.@Xy < ! [ } } _ n q.Q C o.o.z f b >.9.,.,.a T _ ( ' ` b e $X&X#X#X#X#X                      ",
"                    1X|.|.|.@Xi < W { { { ( n q..._ T N m b } ,.:.:.,.a T ( ( / _ b 9 @X&X@X#X#X#X                      ",
"                    +X|.[.[.|.i > E _ _ _ Q c q...} [ ^ H U ,.} } } } a L ( Q R _ V 0 |.@X@X@X@X#X                      ",
"                    |.|.|.[.|.i > E _ ( ( Q c q...[ [ [ T E } [ [ [ [ a H ( Q R / Z 1 u t t 9 0                         ",
"                  3X|.|.|.[.|.i > E ( Q Q T h 9.[ [ [ [ T U [ ` ` ( _ a H Q R R R A O % % = ; 2 W.                      ",
"                  !.|.|.[.[.|.y , T R Q Q P h 9.[ [ [ [ ^ U [ ` _ ( ( a H / R R R Z y *X*X*X*X*X].                      ",
"                  ~.|.|.[.[.|.u , T R R R L c 9.] [ [ [ K U ` _ / / / f H R T R R M $.>X-X&X$X&X].                      ",
"                  W.[.[.[.[.|.3., T R R R J c ,.] ] [ [ K U ` ( / / / f H R R R R v q 8X&X&X&X@X].                      ",
"                  W.[.[.[.[.[.E.3 T P P T H c ,.] ] ] ] K U ` / / / / f J R R R R n , ].@X{.XX@X{.                      ",
"                  Q.[.[.[.[.[.Q., T R R R H c | ] ) ' ) K U ` R / / / a J R R R R j 1 oX].].].].].                      ",
"                  Q.'.[.'.[.[.W.1 T R R R J n ..] ) ) ) H Y ' / / / / f J R R R R g : w $.3.3.3.%.                      ",
"                  3._.).).)._.Q.O S L L T V l D D D D D F C I I Y L I x C Z Z Z V g 3 W.W.W.W.W.Q.                      ",
"                    9X0X0X0XuXuXdXgXgXgXgXdXdXdXdXhXhXaXiXuXyX0X,X,X,X4X>X>X4X4X4X5X5X5X,X-X-X_.).                      ",
"                  dXgXjXjXjXjXjXjXzXlXlXlXlXkXkXjXjXgXfXsXiXuX0X5X5X5X5X5X5X5X5X5X0X0X8X7X7X7X7X+X_.                    ",
"                  E.9 9 9 0 7 9 0 0 9 0 9 9 7 7 8 7 7 7 7 7 7 7 7 7 7 7 7 7 7 7 7 7 7 7 7 7 7 7 w oX                    ",
"                    %.i t t _.>X>X5X5X5X9X9X9X9X5X5X).(.(.(.(.(.(._.).)._.(.(.^.E.E.t 7 q q y %.4.                      ",
"                    3.u t t uXaXaXpXpXpXpXpXpXpXpXaXiXuX0X0X0X9X5X5X6X5X>X>X>X>X>X^.i w y w $.3.4.                      ",
"                      u t 9 u i e e e 8 8 8 8 8 8 8 8 8 8 8 8 8 8 8 8 8 8 8 8 8 t t t %.q w %.4.                        ",
"                      E.y 9 9 u e e p 8 8 8 8 8 8 8 8 8 8 8 8 8 8 8 8 8 8 8 8 9 9 t $.%.q w %.                          ",
"                        E.9 9 u t e p 8 8 8 8 8 8 8 8 8 8 8 8 8 8 8 8 8 8 8 8 9 p t %.q w w %.                          ",
"                                u e e 8 8 8 8 8 8 8 8 8 8 8 8 8 8 8 8 8 8 8 8 9 e y                                     ",
"                                i e e 8 8 8 8 8 8 8 8 8 8 8 8 8 8 8 8 8 8 8 9 9 t $.                                    ",
"                                            e e e e e e e e e e e e e e e                                               "
};
