/* XPM */
static char *_188464156b14e6daddee1012e3c9e4fz3z4wUAor0HfUNz1[] = {
/* columns rows colors chars-per-pixel */
"60 60 234 2 ",
"   c None",
".  c #131B2D",
"X  c #141B2D",
"o  c #131C32",
"O  c #191F32",
"+  c #101836",
"@  c #0D152A",
"#  c #192135",
"$  c #16213B",
"%  c #1B253C",
"&  c #1A253A",
"*  c #222A3D",
"=  c #202636",
"-  c #1A2542",
";  c #1D2944",
":  c #1E2B4B",
">  c #1A2549",
",  c #222C44",
"<  c #222D4C",
"1  c #26324D",
"2  c #2A354D",
"3  c #263046",
"4  c #232E54",
"5  c #222C59",
"6  c #263353",
"7  c #2A3553",
"8  c #2D3955",
"9  c #2D3A5B",
"0  c #28345B",
"q  c #313E5B",
"w  c #313D57",
"e  c #222D69",
"r  c #2E3B61",
"t  c #2B3769",
"y  c #313D67",
"u  c #2A377A",
"i  c #313E73",
"p  c #222D71",
"a  c #1F2B71",
"s  c #33415E",
"d  c #344364",
"f  c #33446B",
"g  c #38466C",
"h  c #3A4A6D",
"j  c #384766",
"k  c #334274",
"l  c #3B4C73",
"z  c #3B4C7C",
"x  c #364779",
"c  c #3E5277",
"v  c #2D4067",
"b  c #42557A",
"n  c #44567A",
"m  c #0E329B",
"M  c #183798",
"N  c #0E288F",
"B  c #293986",
"V  c #2A3B8F",
"C  c #133BA1",
"Z  c #0B3CA6",
"A  c #1E459E",
"S  c #364887",
"D  c #3E538C",
"F  c #3F5282",
"G  c #394D94",
"H  c #3D5496",
"J  c #29499B",
"K  c #1A44A3",
"L  c #194BAA",
"P  c #1955B2",
"I  c #1853AC",
"U  c #264BA7",
"Y  c #2857AB",
"T  c #385BA9",
"R  c #255DB4",
"E  c #2566BA",
"W  c #3864B5",
"Q  c #2774BE",
"!  c #3565AF",
"~  c #1F6BBF",
"^  c #435484",
"/  c #455984",
"(  c #465A88",
")  c #425C9B",
"_  c #445995",
"`  c #404F88",
"'  c #51668F",
"]  c #4C6395",
"[  c #4E649C",
"{  c #546B97",
"}  c #5B739D",
"|  c #4E628B",
" . c #425BA4",
".. c #4C66A7",
"X. c #536BAB",
"o. c #536AA4",
"O. c #5A74AC",
"+. c #5976AC",
"@. c #4A6CB4",
"#. c #536CB1",
"$. c #4D74B9",
"%. c #5B76B4",
"&. c #5978B8",
"*. c #627EB4",
"=. c #627DA8",
"-. c #367EC4",
";. c #2770C3",
":. c #1E62C1",
">. c #487AC5",
",. c #537AC1",
"<. c #5B83BE",
"1. c #4481BC",
"2. c #6887BA",
"3. c #778EBD",
"4. c #2B86C7",
"5. c #3D8BCA",
"6. c #3687C7",
"7. c #3995CC",
"8. c #3A98D1",
"9. c #488BC9",
"0. c #5C84C2",
"q. c #598AC6",
"w. c #4797CC",
"e. c #5C93CC",
"r. c #5C9ACD",
"t. c #5597CB",
"y. c #4A8BD1",
"u. c #459CD1",
"i. c #4B9DD1",
"p. c #4A95D3",
"a. c #5B9CD5",
"s. c #5698D3",
"d. c #548AD5",
"f. c #6B8CC4",
"g. c #658CCA",
"h. c #6589C5",
"j. c #6393CB",
"k. c #6C92CB",
"l. c #6898CC",
"z. c #739BCC",
"x. c #7496C8",
"c. c #679AD4",
"v. c #749CD3",
"b. c #7C9FD0",
"n. c #59ACCE",
"m. c #4CA4D4",
"M. c #54A3D4",
"N. c #5DA3D4",
"B. c #5DABD4",
"V. c #55ABDA",
"C. c #5CABDB",
"Z. c #56A7D8",
"A. c #5EB3DB",
"S. c #5BB2D4",
"D. c #7AA2CD",
"F. c #63A2D2",
"G. c #6CA4D4",
"H. c #62ABD4",
"J. c #6CA5D9",
"K. c #64ACDA",
"L. c #6CACDB",
"P. c #69A9D5",
"I. c #74AAD5",
"U. c #7CACD4",
"Y. c #73ACDC",
"T. c #7CACDA",
"R. c #77A4D6",
"E. c #64B4DC",
"W. c #6CB3DC",
"Q. c #62BADC",
"!. c #6CBBDD",
"~. c #6AB3D6",
"^. c #73B4DC",
"/. c #7CB4DB",
"(. c #74B9DC",
"). c #7BBCDD",
"_. c #78B1D6",
"`. c #66AACF",
"'. c #5DB4E0",
"]. c #6BBDE1",
"[. c #68B5E1",
"{. c #73BBE2",
"}. c #7BBCE2",
"|. c #72B5E0",
" X c #74AAE0",
".X c #76C1DF",
"XX c #6DC3E2",
"oX c #74C3E3",
"OX c #7CC4E3",
"+X c #7CCBE5",
"@X c #77C8E7",
"#X c #7DD7E8",
"$X c #84A9D5",
"%X c #84B2DB",
"&X c #8BB4DB",
"*X c #84BADC",
"=X c #8CBADD",
"-X c #87B3D6",
";X c #96BCDA",
":X c #A1BEDC",
">X c #82BBE1",
",X c #8BBCE2",
"<X c #83B4E2",
"1X c #91BDE3",
"2X c #829ECA",
"3X c #89C3DD",
"4X c #93C3DD",
"5X c #98C8DE",
"6X c #A4C5DD",
"7X c #83C3E3",
"8X c #8BC4E3",
"9X c #83CBE4",
"0X c #8CCAE3",
"qX c #85CCE8",
"wX c #94CCE5",
"eX c #9BCDE3",
"rX c #99C7E5",
"tX c #8DD4E9",
"yX c #88D6E7",
"uX c #94D3E5",
"iX c #9BD3E5",
"pX c #9CDBE6",
"aX c #96D9E8",
"sX c #A6CDE3",
"dX c #A3D3E5",
"fX c #AADCE6",
"gX c #A7D8E7",
"hX c #B3DCE9",
"jX c #B5DAE5",
"kX c #93E4EA",
"lX c #8CE2EA",
"zX c #BCE2E7",
"xX c #ACE2E8",
"cX c #C4DCE6",
/* pixels */
"                                                                                                                        ",
"                                                                                                                        ",
"                                                                                                                        ",
"                                                                                                                        ",
"                                                        ; ; : :                                                         ",
"                                                & # & 6 f 9 1 6 % & 6 %     ;                                           ",
"                                      9 & , % 1 c } / d / / { j 7 1 9 1 % 0 6 ;                                         ",
"                                    # % # , g / ( { ] ( b g ' b s n j q 2 1 9 % % 0 ;                                   ",
"                                . $ - 6 S ) S [ +.( x k _ ..T 2.x g r t u < ( _ x 6 X 6 %                               ",
"                              O < ; x z  .^ ^ o.g z ^ *.k.%.$.z.k.] { f S t z H S k f : $ $                             ",
"                            & , 7 * 8 [ o.*.b.] O.&.[ _ %.f.f.T.D.z.x.-X` %.+.k t ) z D S :                             ",
"                          O , / , s b j } ( O.$X6Xh.-X>Xv.R.$XfX>XY.g.=XsXz.} l i S D O.f 1 1   o                       ",
"                        O k 9 2 8 h ( 2.*.%XD.k.h.h.=XJ.G.qX8Xz.c.c.h.j.k.3.3.$Xo._ u [ x g h < o o                     ",
"                    - f s ( q l n 2.{ $XR.dX3.$X%XrXD.,XU.OXaX(.h.&.I.<./.sX1X&X2.b. .G 9 [ 7 ( ; o                     ",
"                    . ; z q w d n %.:X$Xv.jXv.f.D.v.#X).;X=Xb.U.e.OX}.U.(.{.eXwX$Xh.%.) x t ^ 9 9 ;                     ",
"                @ o 6 9 g F _ ` f.T.*Xf.&X$X,X0XI.}.}.fXpX8XrXsX:XgX8XW.G.^.q.(.wX,Xc.X...S k 9 h 9 1                   ",
"                - - r 7 ] _ G ..v.T.v.%X=XrXY.R.iXaXgXzXuXwXhXdX,XrXjXiX7Xl.B.e.<.J.,X<X%.S i ^ / c f O                 ",
"                # , r x S  .#.&.z.*Xl.%XeX*XfXfXaXfXgXiXcXwXcX8X>XcXcXdXtX(.!.P.I.j. X8X=X.._ #.) / j X                 ",
"                , * 0 0 D ..eX,XiXR.0./.gXjX0XdX7X^.K.N.a.s.s.^.Y.%Xc.,XhX9XpX9Xt.K.}.7X8Xg.X.@...2.l ( O               ",
"              X , 0 S G h.T.eXdXj.l.j.7XtXjXeX3XF.L.!.eXW.N.Z.a.L.^.Y.-XT.wXaXzX~.H.|.F.uX>X%XX.i H l 7 #               ",
"              * l i %.0.$X%X,XG.0.L.iXyXtX9XuXgXL.J.J.K.!.E.Z.A.E.!.C.y.g.=XdXjXfX|.0X!.[.}.<X%.' g q , ; X             ",
"            # } d ) _ g.l.Y.wXJ.^.XXyXpXpXfX+X/./.W.K.A.~.W.P.r.9.p./.E.s.,.).wXjXaX0X}.!.OXgXg.o.| ' / d 1             ",
"            8 n d k x.@.T.rXaXtX].{.qXwXeX0X(.~.M.M.I.P.I.I.U.l.w.U.e.H.].9./.{.jXfXpX|.OX+XhX<XD._ g l 1 ,             ",
"          : 8 n ( i _ %.v.8XuXaX#XpXfXiX^.P.B.B.M.F.F.w.5.9.-.z.j.w.F.N.(.C.a.(.gXzX9X#X[.oXuX<Xv.` [ =., , -           ",
"        : # j { 2.[ X.k.U.qX*X[.+XzXjX;XN.R.K.I.~.t.w.6.:.-.:.;.>.5.7.t.F.V.7XZ.jXhX9X].K.E.[.<Xk.x.z { f , 6           ",
"        6 # 8 d { O.X.0.%X).j.aXiXxXwX;XZ.C.E.H.N.9.;.E E R R E W R 6.7.w.w.Z.0X=X0X4X+XyX!.I.v.$Xk.[ O.s l <           ",
"        O ; d 2 l H j.R.g.h.K.iXfXfX7XU.H.8XE.5.9.;.~ P K K K U U L E `.6.w.Z.uX3X5X6XOX#XyXOXl.k.&XO.k n d 7           ",
"          , k j s z %Xg.j.}.9X{.fXpX0XW.!.E.9.5.4.E Z N M C K M M J Y 6.u.P.Q.@XE.*X;X{.#X!.K./.f.&._ l l 7 1           ",
"        ; , * n h X.$Xl.q.W.0XqXqXaXW.Z.oXs.9.8.4.L N M U W R L V B Y 6.n.U.m.A..XR.-XaXkXtX!.wXz.%.' ) n h d           ",
"          O 2 b b %.%.Y.Y.e.|.OXtXpXW.V.Q.i.i.u.E M m L W 9.u.Q U M K 7.S.B.u.XX0XP.5XuXlXXXOX7X&Xk.2.&.b { c           ",
"          O q / n x.g.R.+XK.r.uXaXtX3XM.V.i.m.8.Y m K Y >.S.3X4.P M Y 7.B.Q.H.XX(._.4XuXqXOXOXtXY.b.%.f.l 9 # .         ",
"          % 2 n } ..%.k.{.{.L.fXkXOX4X!.Z.6.i.4.T M M U E ;.4.Q L C Y 7.9.Q.G..XN.U.*XeXkXtXiXiXT.O.@.S n d &           ",
"          # = / d ..X.*.0.e.3XdXxXqXZ.Z.[.w.7.8.R A M m K L Y U m L P 1.n.A.s.E.I.U.L.dXkXtXhXk.D.%X$.( d 9 # %         ",
"          X j w d %...g.q.|.a.pXaX9X).d.W.u.4.M.Q C N N M m m M P I P 6.9.B.P.E.M.y.J.fX@X|.>X*Xc.x.S H 9 9 1           ",
"          , * s ] o.#.0X(.}.].+XgXaX).J.!.E.9.6.8.Q m N m N I L K J T <.H.F.s.E.P./.sXeX+X0.K.OX5X2XX.e 9 3 # -         ",
"            s g } ..*.=X7XiXK.F.9XoX(.dX/.OXr.6.m.u.Q M N N M M A ! t.i.E.p.V.E.H.I./.eX9X(.3XF.-Xk.G e f % X           ",
"            d 3 b ] 0.g.8XOXs.t.A..XaX3X_.(.!.w.5.8.u.Q K M Y w.n.m.S.Q.i.H.!.K.N.&X4Xc.|.OXJ.g.0.W B p r 9             ",
"            d = w g ^ c.k.qXa.].].Q.5X3X/.c.C.).i.5.7.4.4.Q Q -.w.S.A.m.i.y.XXoXOX=X/.K.J././.J.@.&.u 5 l f o           ",
"            X 7 j F ( v.x.G.oX9XC.M.sX5XW.=XC.@XV.Z.u.w.6.w.u.w.8.8.s.N.y.[.@XaX}.%Xr./.|.Y.wX*X0.B u +.9 < $           ",
"              % d _ l ) ..J.c.{.K.9.OX*XuX0XW.qX].i.a.V.u.y.y.9.i.s.>.d.C.[.5X3XW.t.e.$.e.J.dXG.@.u t : 9 .             ",
"            o O 9 l ^ S z X.g.}.,.(.].qX5XiX(.^.H.c.a.y.!.Z.OXoXZ.s.C.Z.}.wXuX3XK.^.P.$.j.,Xz.$.&.D k o 6               ",
"              : % 9 y t y +.X.g.g.XX(.@X8XiX}.).=X^.c.d.=X4Xd.L./.;X=X*X*XiXsXOX(.0X!.e.0.0.h.G u e > + O               ",
"              ; X z k l D l [ z.).q.9.!.W.aX]..XOX).=XY.sX8XsXeXsXeXuXxXxXhXqXB.(.9.9X<.U.k. .&.H 4 >   o               ",
"                  4 r b  .D g } k.j.oXQ.!.!.A.tX+X9XdXhXuXqX+XiXzXqXiXgXiXaX].E.K.P.X.2.[ z G c 6 < o                   ",
"                $ -   r ] u _ +.*Xx.0XN.~.!.S.H.XXS.[.+XgXuXgXyXoXoXOXiXoX{.oXtX#XqXe.@.V y 7 9 < < .                   ",
"                  $   s 4 x z i _ D.%.I.G.F.r..X9.V.!.[.{.A.9X+XyXoX+XW.|.tX}.7XT.0.@.H g 9 1 z 9 v                     ",
"                        O % S 9 l n *.q.j.W.(.e.OXyXqX(.r.c.OXF.H.oXN.r.).OXJ.0XeX$.T S d ( 7 / - %                     ",
"                        d , < f x 7 ( { q.2.t.T.G.7X0X7Xq.G.^.OX^.e.l.I.,.T.$Xh.f. ...S H y , : > +                     ",
"                        % O f 6 4 l 9 7 k { X.l.j.eXR.^./.k.k.8Xq.<.2.;X#.v.h.) o...) S 4 0 6 +                         ",
"                          $ o : < 0 0 p 0 g o.q.>.c.;X<Xc.<.f.*.2.z. . .G x.T u B ( D k 1 .   .                         ",
"                              o & < 5 a D l s b G S G ^ [ ) S z O.F H S D u p ..0 ( 6 o                                 ",
"                                % ; 9 9 6 9 { d n d | { 2.O.h w h w ( 7 h 8 d , * 1 % $ $                               ",
"                                  $ 0 < O * 2 f / c j l n =.l h 2 w h * 2 8 9 % #                                       ",
"                                            O O , , d z 9 2 d ] r l d d 1   & &                                         ",
"                                              O # 6 , % 9 6 # O 9 1 9 : $                                               ",
"                                                    : - o @ @ o $     o o                                               ",
"                                                                                                                        ",
"                                                                                                                        ",
"                                                                                                                        ",
"                                                                                                                        "
};
