/* XPM */
static char *ocean1714549450[] = {
/* columns rows colors chars-per-pixel */
"60 60 250 2 ",
"   c #017DBE",
".  c #037AB6",
"X  c #027EC2",
"o  c #007DCB",
"O  c #0183BE",
"+  c #0A83BC",
"@  c #0683B6",
"#  c #1389BB",
"$  c #0D89B5",
"%  c #479AB8",
"&  c #0183C3",
"*  c #0986C3",
"=  c #028AC5",
"-  c #0B8AC5",
";  c #0185CB",
":  c #0984CC",
">  c #028ACC",
",  c #0A8DCC",
"<  c #148CC6",
"1  c #148DCB",
"2  c #168AC7",
"3  c #0292CD",
"4  c #0B93CC",
"5  c #0894C7",
"6  c #1D94C3",
"7  c #1492CC",
"8  c #1A94CC",
"9  c #1996C7",
"0  c #0285D2",
"q  c #018CD3",
"w  c #0A8DD3",
"e  c #0186D9",
"r  c #018DDA",
"t  c #098EDA",
"y  c #0F83D0",
"u  c #128DD2",
"i  c #0292D4",
"p  c #0A93D4",
"a  c #0399D4",
"s  c #0C9AD5",
"d  c #0293DB",
"f  c #0B94DB",
"g  c #039ADC",
"h  c #0B9BDC",
"j  c #1394D3",
"k  c #1B94D2",
"l  c #149BD5",
"z  c #1A9BD5",
"x  c #1095DB",
"c  c #139BDB",
"v  c #1B9DDC",
"b  c #1997DA",
"n  c #298EC6",
"m  c #2096C4",
"M  c #2798CD",
"N  c #239BD3",
"B  c #2C9FD4",
"V  c #249BD8",
"C  c #339DD5",
"Z  c #389ECF",
"A  c #0AA2D9",
"S  c #13A2DD",
"D  c #1CA3DB",
"F  c #1CA5D7",
"G  c #28A7CE",
"H  c #24A3D5",
"J  c #25A4DD",
"K  c #2DA4DC",
"L  c #2BABDC",
"P  c #2BA1D6",
"I  c #33A4D5",
"U  c #33A6DC",
"Y  c #33AADC",
"T  c #3BA9DB",
"R  c #3AA5D7",
"E  c #3AB3DC",
"W  c #32B0D6",
"Q  c #028EE2",
"!  c #088DE3",
"~  c #0194E2",
"^  c #029BE4",
"/  c #0C9CE4",
"(  c #0194EB",
")  c #019CEB",
"_  c #0B9AE8",
"`  c #149DE4",
"'  c #199EE1",
"]  c #149FEA",
"[  c #1999EA",
"{  c #009BF1",
"}  c #0396F2",
"|  c #03A2EC",
" . c #0DA3EB",
".. c #08A4E7",
"X. c #13A1E4",
"o. c #1CA3E2",
"O. c #13A4EC",
"+. c #1BA4EA",
"@. c #1AABEB",
"#. c #15A9EB",
"$. c #09A3F5",
"%. c #04A0F5",
"&. c #1CABF1",
"*. c #17A4F1",
"=. c #23A5E3",
"-. c #2AA6E1",
";. c #23AAE5",
":. c #2CABE5",
">. c #24A5EB",
",. c #25ABEB",
"<. c #2CACED",
"1. c #2EA5EA",
"2. c #33ABE4",
"3. c #3BACE3",
"4. c #34ADE9",
"5. c #39AAE8",
"6. c #28B2EA",
"7. c #3DB2E5",
"8. c #33B3EB",
"9. c #3CB4EC",
"0. c #3BB9EB",
"q. c #39B9E5",
"w. c #24ADF4",
"e. c #27B5F5",
"r. c #34B4F1",
"t. c #3BB4F1",
"y. c #35BBF3",
"u. c #3CBCF4",
"i. c #39BAFB",
"p. c #30ADF0",
"a. c #439BC3",
"s. c #45ABD8",
"d. c #4BB9DD",
"f. c #56B7DE",
"g. c #41A7CF",
"h. c #45AEE5",
"j. c #44B3E4",
"k. c #49B5E5",
"l. c #4CBBE5",
"z. c #43B5EA",
"x. c #4CB5EA",
"c. c #44BBEC",
"v. c #4CBBEC",
"b. c #5CBCE7",
"n. c #54BDEB",
"m. c #55BAE9",
"M. c #43BCF3",
"N. c #4BBCF2",
"B. c #45B7F4",
"V. c #53BCF4",
"C. c #5BBCF2",
"Z. c #52BBFB",
"A. c #66BEE7",
"S. c #3CC3FB",
"D. c #69C3DD",
"F. c #4DC0ED",
"G. c #55C2ED",
"H. c #5BC3EC",
"J. c #56C3E7",
"K. c #4CC2F5",
"L. c #43C2FC",
"P. c #4ECAFD",
"I. c #4AC4F9",
"U. c #55C2F3",
"Y. c #5BC4F3",
"T. c #5BC9F6",
"R. c #55C6FB",
"E. c #5CC3FB",
"W. c #5CCBFC",
"Q. c #55CDF8",
"!. c #59D4FF",
"~. c #63C4EE",
"^. c #6BC3EB",
"/. c #65CCEC",
"(. c #6BCBED",
"). c #69C9E5",
"_. c #74CAE5",
"`. c #74CCEC",
"'. c #78C8EC",
"]. c #79D2EE",
"[. c #64C4F3",
"{. c #64CBF4",
"}. c #6BCBF4",
"|. c #62C4FB",
" X c #63CCFB",
".X c #6CCDFC",
"XX c #6AC5F6",
"oX c #73C5F2",
"OX c #73CDF4",
"+X c #7ACDF4",
"@X c #73CEFA",
"#X c #7DCDFC",
"$X c #6CD2F6",
"%X c #6CD3FD",
"&X c #69D6FB",
"*X c #74D3F5",
"=X c #7BD3F4",
"-X c #7DDAF4",
";X c #73D4FC",
":X c #7BD4FC",
">X c #73DBFF",
",X c #7CDAFD",
"<X c #77DBF4",
"1X c #67D0ED",
"2X c #74E1FF",
"3X c #7CE2FF",
"4X c #7FE8FF",
"5X c #8BD5ED",
"6X c #81D4E9",
"7X c #99D8EB",
"8X c #84D4F4",
"9X c #8AD7F4",
"0X c #84D9F5",
"qX c #8CDBF4",
"wX c #84D5FD",
"eX c #8CD5FE",
"rX c #83DBFE",
"tX c #8CDBFE",
"yX c #92DDFE",
"uX c #9ADEFF",
"iX c #96D9F9",
"pX c #91CDF0",
"aX c #85E2FF",
"sX c #8BE2FE",
"dX c #87E3F5",
"fX c #93E3FE",
"gX c #99E4FF",
"hX c #93EBFF",
"jX c #9AE2F3",
"kX c #8EE1EF",
"lX c #ACE3FB",
"zX c #B9E7FD",
"xX c #BBE9FF",
"cX c #AFF0FF",
"vX c #DFF5FD",
"bX c #D9E7F0",
"nX c #FFFBED",
"mX c #F6F7ED",
"MX c #EBF5FB",
"NX c #E5FCFE",
"BX c #ECFBFC",
"VX c #E7F5F8",
"CX c #F5FEF4",
"ZX c #FDFDF4",
"AX c #F2F6FC",
"SX c #FDF6FD",
"DX c #F4FDFD",
"FX c #FDFEFD",
"GX c #F8F6F2",
"HX c #F1F1F1",
/* pixels */
"BXFXZXZXZXZXFXZXFXFXFXFXFXFXFXFXFXFXFXFXFXFXFXFXFXZXFXZXFXFXZXFXFXZXFXFXZXFXFXZXFXFXZXFXFXZXFXFXZXFXFXZXFXFXZXFXZXFXZXFX",
"FXSXSXFXFXFXDXDXFXFXFXFXFXFXFXFXFXFXFXFXFXFXFXFXFXFXFXFXFXFXFXFXFXFXFXFXFXFXFXFXFXFXFXFXFXFXFXFXFXFXFXFXFXFXFXFXSXSXSXFX",
"ZXSXZXBXDXFXSXZXFXSXFXFXFXFXFXFXFXFXFXFXFXFXFXFXFXFXSXFXFXSXFXFXFXSXFXSXFXSXFXFXFXSXFXFXFXFXSXFXFXSXFXSXFXFXFXSXNXSXSXZX",
"ZXFXNXa.n n k M m m m m m m m m m m m m m m m m m m m m m m m m m m m m m m m m m m m m m m m m m m m m m m m m % vXSXFX",
"CXFXDX#   X =   X X X X o X X X X & X X X X X X X       X     X X X   X X   X   X & X   X X X     X X X X X     $ NXFXFX",
"ZXFXDX2 X 0 ; o & & ; X & X & & & X & & & X & & X X & & & & X X O & X     X O X O X &   *   X O         & X X   < NXDXSX",
"SXSXHX1 = : @ O = & = & ; & & = & & & O ; O & O & O & O O & & O O O O O & O O O O O O O O O O O O O O O O O O O 1 SXFXFX",
"ZXFXGX4 & ; O ; & & & ; & & ; & & & & & & & & & & & & & & & & & & & & & & & & & & X & & X & & X X & O X & &   & : CXFXFX",
"FXFXBX1 & * & & * & & = = & & ; O O O & & & ; ; & ; ; ; > ; & & & ; ; ; ; O & &   & & & X & & O   @ O   & = & X 1 BXFXCX",
"FXZXAX7 ; = ; ; & = = ; & & : ; > = ; ; = = O   O O O O O O O O @   & ; & O * + ; ; & & ; = ; & & ; & & & & & & < MXSXZX",
"ZXZXDX7 X : * X ; & ; * * m m @ & ; ; = ; & ; = > ; O & ; = = ; ; ; = O + * : X > X . @ @ .   = O ; ; = > &     < BXFXZX",
"SXFXAX1 * I U.$X/.J.n.U.{.,X.XT * O   X = = = ; ; ; & ; ; ; ; > o 0 w   7 9 H F 9 < R {. XY * X * ; & O & & & * 2 BXFXSX",
"FXFXAX1 8 n.>X*X+X^.[.XX$X>XU.9 M U 4.J , & X ; + - = & ; X   N G # @ 7 &XrXeXeX:X,XrX-Xs.# . q . + +   ; > ;   2 BXFXZX",
"FXCXAXk K N.m.R s > = - M m.XXm.c.3.N 1 - : q > & & & ; = = 7 2.n.%X{.f.}.~.j.7.s.v.U.T.Y.m.v.V.T.U.K * O = = & 2 BXFXFX",
"FXZXDX8 X * X X & ; = & & , , = O   O & = = ; & i & ; 7 7 -     X 1 T .XrXl.8 x 8 - + * 8 N Z g.3.U k & & ; ; ; 7 BXZXFX",
"FXZXAXj q = ; i > > q ; & : ; ; q > ; ; ; = = > ;   T *XOX~.V.3.j * & 8 d.~.+X8X%XT * & 0 0 & X   O & & ; ; & & 2 MXFXZX",
"ZXGXBXl e = = ; = i = j 5.E.H./.'.}.U.1.& & =   q = * T :X'.OXOX{.N & 0 0 ; , u - = ; w ; = : = * = ; q ; X = & 8 VXSXFX",
"FXFXDX7 e > 3 q q ; = 4 Y ;XtXeX-XrXhXtX^.[.N.-.& 8 N s.>XM.& f > = > ; O O = i 4 , =   = & ; ; O > , = 1 k 7 = 2 AXFXZX",
"DXFXVX< : & = ; o , z P s.wXtX8Xl 8 s.b.~..XU.N 0 V  X;Xk.-.3 = = = = 7 l.*X:X@XfXtXwXOXA.V.v 0 i ;   + x.%X[.{.W.ZXFXFX",
"FXFXAXj.5.4 > r - 9.2XaXeXrX-X;Xl ; ; ; &   ; w H W D.<XU X : y ; ; ; : z..XtXuXR.B B 7.3.3.8 = * B U R J.;XOX:X;XCXSXFX",
"ZXZXZXrX|., ; 0 q q p j l c r q q ; r r q - T ;XrXwXoXn.1 ; a 7 C I T Y j.J.*XrXk.K >.& q & : - }.,X,XrXwX;Xn.m Z HXFXFX",
"FXDXZX].XXs.Y C 8   * = = > p w - - = > p > = b l l , = r q 1  XrXaXhXfXhXfXfX9X7XfX{.& 0 w w f R T j.n.~.^.,X~.I HXFXFX",
"DXDXDX`.wX3X,X*X Xz.2.p > q w : q q > q ; > > ; * O q q 0 q q t b P T h.V.C.XXeX3X X9 & ; = . ; X ; ; O 9 l.*X^.9.BXSXFX",
"ZXFXZX0X#Xz.B h.d.U.B.1 t p j =.-.V c c ; r d q ; q 0 > , O , > = = ; ; q & W aXyXtXrX>X~.[.V.h.=.w > ; b <.v & , BXFXZX",
"ZXZXZXd.U.c.x 0 r 0 q r q =.$X9XrX=X-X;XP : 0 f c ;.4.T l.z.1.q p ; > q w > , <.k.x.V.v.z.9.2.H b w = q > ; ; = 9 DXFXFX",
"SXFXAXp > p , = , 4 - , q > f ' U c.U.7.8 5.{.*XqXqXqXsXrXG.-.= > i i > > i = ; > = ; = ; ; ; 0 > > q > > q w q 8 BXFXFX",
"FXFXDXc q q d d q i > = d x w = 0 q ; ; u  XhXlXtXtXyXtXfX;XU.K q q q i d q q q q q q q q q i i q q d q q r q q j NXSXFX",
"ZXCXSX9 w q r 0 d q 3 a > 0 ! g 5 4 a a > J l./.%X>X{.n.n.l.9.z > w 0 > & o f t ; q 0 q i w = = i = = > , = > , b NXFXZX",
"ZXZXFXs d ` 8.d.m.|.{.(.'.:XG.4 0 ; 0 t 0 e e t d q 0 q w 0 r e i i 4 :.K.z.q.U J l > q d q q d d q q q q 0 q 0 1 NXFXSX",
"FXDXDXs d / 1.k.wX[.Y =.M.R.v.s.8.0.c.z.z.9.D q 3 i i i a = p q d ; 7 G.,X].9X9X*X X3., > d r r ; p c b o.=.c p N VXFXZX",
"DXDXAXN d 0 w 1.5X_.z.S d > w c v J ;.Y 7.9.=.> - p q ; q q t e q b I.%X}.OX}.XXoX.Xk.7 > i i i g.m.}.].=XwX-X~.n.HXFXDX",
"FXZXSXv d c L /.r.v 2.K.Y , r Q q q q q ; 0 i d r r r / -.-.3.z./ , j z 7 c f r > q r d d 0 , H %X;X,X=X`.OXOX*XrXZXFXFX",
"BXFXSXY.C.{..XV r q = > / q l S.S.M.B.8.;.l d / U n._.].=X Xn.n.(.E 5 i o.-.2.l.J.~.j.q d > f d 3 c <.3.@X=XOX%X+XmXFXFX",
"ZXZXmXF ~ d q q j ,.w.^ r f S.U.q.q.q.M.S.o.q +.t.9.:.v h r q t ! <.t.V.C.V.V.5.4.8.c d Q q = q , q e r 7 ~.OX_.rXCXFXFX",
"DXZXCXl ~ ^ 4 / l.Q.T.T.k.k.I.b t r d r q f r i ; w e 0 w i a a d d q f i = i 0 q > ; q i S H 5.v c q p M.>X*X:X.XDXFXFX",
"DXFXNXX.d :.Q.L.S.6.S y.P.!.L.q b h i 3 g s 4 D :.8.B.V.[.|.r.d > q q q > l I..XY.x.k.H.=XeXeXaXrXaXT.< M.9.4.>.T NXFXSX",
"ZXFXBXo.d o.p.O.q r q g r.L.F.I.S.,.a l N.:XwXtXkXdXsXfXjXfX,X|.>X}.oX}.V.K k 1.(.,XyXyXrX,XrXrX[.j.v i d ; - # 8 VXFXFX",
"FXFXDXl Q g ; f 4.u.=.> d X.a A s s s J n.aXfX5XeX.X4.S a l J 4.D :.0.3.M.S.s i r _ =.$XyXyX9XfXfX-XT.9.f / { Q c BXSXFX",
"ZXFXAX` ( f T H.).9X;Xz.d d o.c.x.E.E.n.N.z.k.>XtX}.U s g ~ e e j i i q q t q q I R.[.9X0X XR.x.N.U. XR.:.= d ~ ' BXSXFX",
"DXFXZX1X[./. X>.( o.l. X-.Q ~ ~ ~ r r r d d q t J.,XhX+XV.:.' D ` f d i b t.B.3.@./ p Q.>X- 0 d q d ; q r d i q f DXSXZX",
"FXZXZXU.i.e.^ q j d Q r / r d s L :.e.X.r d / f 7 U.3XtXyXgXsXqXyXqX$X#.] .X6X=X5X*X<./ tX~.,.g q a I.^.).Y.R.[.A.ZXFXFX",
"FXCXMXz , s f o.8XY.y.=.H t..XeXfXfXfX8XaXN.j S..X:X,XwX:X;X XT.P.j.4.' r h d ( @.2.[ s qXdX,X=Xm.p / M.:XwX=X8X2XFXGXZX",
"ZXDXDXh ~ ( ~ d ,X%X X*X=XrX>X.Xc.3.L D ;.#.A a ^ d g h f r d d i r ~ f q g S 3.^ s q ` wXsXaXsXaX3X!.Y 7 ;.6.H U BXFXFX",
"FXFXMXc f ] *.&.%XM.r q d g a a ( ) r r f q d / X.p c :.5.B.V.H.).R.=.d ) d d i.,X_.*X>XyXW.r.J :.5.h.9.X.~ d f k BXFXFX",
"FXFXSX&X}.+XrXsXuX>Xc ^ | ..a ^ g d { | $.X.V E.:XOX*X=X*X=X8X].i.f i ~ f ` +.d | r.R.L.J > q p i q e ~ ~ d f r b NXFXFX",
"FXZXSXaXyXfXrX(.Y.W.=.:. X;X}.V.| a L H.`.rXrX*X(.(.*X$X$X%X%X{.H.G.F.F.}.}.7.s d = w > f ) _ ^ i S q.0.M.j.7.:.2.BXFXZX",
"SXZXZXaXrX%X,.d d ..~ ! Z.wXoX3.d ~ f r.N.k.[.~.,X;X*X`.+X#X#X+X.X2.&.@.,.` i i ~ ~ ) ^ ~ ~ ~ ^ ( B.aX_.OXwXeX*X&XDXSXFX",
"FXFXZX,XtXH.f ) ` o.u.7./.-Xc.~ X.O.O.d ^ ~ d O.h.n.{.*X=X*X=X-XF.r ( p p ) $.>.:.r.i.h c A X.` D l.%Xc d c ,.&.T HXFXFX",
"FXFXZXfXfX>X&.^ O.N.G.l.5.,.s u.dXtXtX,Xn./ $.( d g c =.9.K.K.v.| h :. X_._.].*X X(.E ^ +.&X].:X'.,XK.s d ~ ~ ~ / NXZXCX",
"FXDXAXM.4.' d _ ^ / ~ ) ( ( s T.rX%Xq.s ..g q a ^ ) ) ^  .X.X.s d ~ ) e.U.*X%XB.^ / a ) ! o.q.A.%XK.J i / O._ i c NXFXDX",
"nXCXNX#.) ^ | ) p.E.}.*X.X%X XsX2Xf } i.u.#.e.y.T.{..X@X;XrXrX,X,XU.>.( ~ *.w.j P sXrX:XE.r...d ! / 6.Q.rXuX:XH.2.MXZXDX",
"FXZXDX` / ..| ~ N.;X<X<XrXhXaXqXeXt.O.j.8XfXwXqXeXsXtXtXtXyXeXrXeXtXyX:Xc.v ^ ^ | e.L %XiXiX,XW.Q.$XtXyX0X,XrXyX%XFXSXFX",
"FXZXAXw._ ^ { { } } Q d [ 9.~.eXdXjXfXi.g P.,XeX0X0XrX9X9XrXrXwXrXrXrXyXiXqX%XL.x.+.X.&XtXwXwXuXfXsXrX:XrXrXrXwXsXFXSXDX",
"FXZXAX&.( h 6.r.8.c.0.u.p. .| $.e.8.0.&.[ .XrXaXaXrXrXrXrXrXrXrX-XaX,XrXrXtXuXyXuXhXqXeXsXaX,X*XH.OXwXyXsXwX:XaXsXZXFXFX",
"DXFXMX*._ F.aXgXsXhXtXrXfXaX,X*X%XE.R.U.(.fXeXeXtXrXrXeXeXrXtXyX4XaX9XqXrX,XrXrXaX6X7XeX:XsX;X~ { / :.Y.9XuXuX8XqXAXFXZX",
"FXnXZX$.{ ^ @.O.H.:X,X:XwX-X,XrX9X9XsX,X,X8XrX>X,X,X,X,X,X,X-X,X8XwX:X:X,X,XrX=X,X&X>X:XrX8X Xd ^ ~ ( ( ^ S.&XwXtXDXFXCX",
"ZXFXvXpX+XA.@XC.7XlXxXxXzXxXxXxXxXxXxXxXxXxXxXxXxXxXxXxXxXxXxXxXzXzXxXxXxXxXxXxXxXxXbXcXxXxXlX7XoXoXOXoX~.'.uXcXbXBXFXFX",
"ZXFXFXDXDXFXFXFXZXFXFXFXFXFXFXFXFXFXFXZXZXFXZXFXFXZXFXZXZXFXZXFXFXFXFXZXZXFXZXFXZXFXZXDXFXFXFXBXZXFXFXFXZXSXZXZXAXFXFXFX",
"FXFXDXFXFXFXCXFXDXFXFXDXFXFXFXFXFXFXFXFXFXFXFXFXFXFXFXFXFXFXFXFXFXFXFXFXFXFXFXFXFXDXFXFXFXDXFXDXFXDXDXFXDXFXFXZXFXFXFXFX",
"FXZXZXFXZXFXFXFXFXFXFXFXFXFXFXFXFXFXFXFXFXFXFXFXFXFXFXFXFXFXFXFXFXFXFXFXFXFXFXFXFXFXFXFXFXFXFXFXFXZXFXFXFXZXFXFXFXFXFXFX"
};
