/* XPM */
static char *result[] = {
/* columns rows colors chars-per-pixel */
"60 60 115 2 ",
"   c #0F474E",
".  c #134C53",
"X  c #155961",
"o  c #22666E",
"O  c #226770",
"+  c #226C74",
"@  c #21737D",
"#  c #1C7782",
"$  c #217E89",
"%  c #1C828E",
"&  c #168593",
"*  c #1A8794",
"=  c #1D8996",
"-  c #1F8B98",
";  c #20828E",
":  c #208591",
">  c #218A97",
",  c #218B98",
"<  c #298F9C",
"1  c #25919E",
"2  c #2C919E",
"3  c #31939E",
"4  c #2693A0",
"5  c #2A95A2",
"6  c #2D99A6",
"7  c #2E9BA8",
"8  c #3495A1",
"9  c #3997A3",
"0  c #3498A4",
"q  c #3C99A5",
"w  c #329EAA",
"e  c #3B9DA9",
"r  c #35A1AE",
"t  c #3EA3AE",
"y  c #36A4B0",
"u  c #39A6B3",
"i  c #3BA9B6",
"p  c #3EACBA",
"a  c #3EB0BE",
"s  c #429CA7",
"d  c #439DA9",
"f  c #489FAB",
"g  c #46A1AC",
"h  c #4CA2AC",
"j  c #51A4AF",
"k  c #48A5B0",
"l  c #44A9B5",
"z  c #4EAAB5",
"x  c #41AEBB",
"c  c #55A6B1",
"v  c #59A7B1",
"b  c #54A9B3",
"n  c #5BAAB3",
"m  c #53ADB9",
"M  c #5BADB8",
"N  c #43B2BF",
"B  c #4BB2BE",
"V  c #5DB4BE",
"C  c #62ADB6",
"Z  c #65AEB8",
"A  c #62B2BC",
"S  c #6BB2BB",
"D  c #73B6BE",
"F  c #45B3C0",
"G  c #49B6C2",
"H  c #4DB9C6",
"J  c #53B6C2",
"K  c #5BB6C2",
"L  c #54B9C5",
"P  c #5ABBC6",
"I  c #5DBDC9",
"U  c #6BB7C0",
"Y  c #64BAC5",
"T  c #6ABAC4",
"R  c #62BFCA",
"E  c #77B7C1",
"W  c #73BBC3",
"Q  c #7BBAC3",
"!  c #65C0CB",
"~  c #6BC3CD",
"^  c #72C5CF",
"/  c #6FC6D0",
"(  c #74C6D0",
")  c #79C7D2",
"_  c #76C8D2",
"`  c #7CC9D3",
"'  c #82BDC5",
"]  c #86C0C7",
"[  c #85C2CA",
"{  c #8AC2CA",
"}  c #96C9CF",
"|  c #82CCD5",
" . c #89CFD7",
".. c #8CCED8",
"X. c #91C9D0",
"o. c #99CAD0",
"O. c #8DD1D9",
"+. c #93D3DB",
"@. c #9BD5DC",
"#. c #9ED8DE",
"$. c #A1CFD4",
"%. c #A8D2D7",
"&. c #A3D6DD",
"*. c #B6D9DD",
"=. c #A3D7E0",
"-. c #A5DBE1",
";. c #AEDEE4",
":. c #B1DFE5",
">. c #B6E1E6",
",. c #BEE4E9",
"<. c #C2DFE3",
"1. c #C2E6EB",
"2. c #CDE5E8",
"3. c #CEEAEE",
"4. c #DAF0F2",
/* pixels */
", , * h S h q q < d ] 3 - - & * * & , , = , , , - > , , , , , , , , = , , , - , , , * & 8 h = , , = < S ' d = = - - - - ",
", , , 9 d q 8 h 8 3 Q 3 * 1 D <.Q j = , , - , , - , , , , , , * = > , , = , , , > = q h s S 3 - = < S C Z Q b = - - - - ",
"= = * 3 s 3 1 d j Z h - , ] 2.*.D { D 1 - - - - = - = * = - = 3 > = = , , , , , = = g c j n 1 , * q c , 5 s E , $ 1 - = ",
"w 7 5 4 g C v C D D 1 * s } ' g 2 j <.S & = - - , 2 6 r u i l D g 2 < = , , , = , h S q < 3 * , = 2 8 - * q { w i a F p ",
"G G G F x ^ &.@.z 4 1 - h b e e 8 8 } [ w y i a N G G G G G G ! L T M > - , - - h j 9 - - * , , , , 0 2 9 ' R F G F F F ",
"N N F F N N N N F F N N P T B P ! a +.&.F G G F F N F N N N N G G I P 6 = , , - 1 , = , , , * * , & * m ` R a F F F F F ",
"F F F F F B N N F N F F L I H L ! L / ` a F F F N F a F N N N G N G G B u , - , , , , , , , d g = c Y F a a F F F F F F ",
"F F N F F N G N F F F F B ! ^ L P ~ ( N F F a F N G P F F G N N G N N N N i - - , , , , , , v j K ` ` ) F F F F a F F F ",
"F F F F G N N N G N G N N G @.@./ P H N G a B N N | ,.( a N N B N G N N N G a 1 = * = = = , M K W R I =.G a F I R G F F ",
"F N N F N F G N N F F B G N N L L N N N F L #.+.! H ~ | H N N G G B N G N N G G p u r r i a L H L ) R R G R G R @.R F F ",
"F F F F N N N N F N F F F F F N N N G N a l r C m A S b r p G G N N N N G G N N N H H L N N N N F F L F R ` W I R R F F ",
"F N F F N N G N F F F F N F F F H N i 1 = 2 S v , C ' 2 * - 1 a N N H N N N N G N N B H N N G N F F F F H ( R R ..G G F ",
"F N G N I I N a F F F F F N N F u 1 = = = , h q - * * = - , * k _ B a N B N H N N N N N N G N N F F F F u z 6 1 4 6 y a ",
"F F F N ~ ^ I ! F N F F F G N 6 * , , , , , & * - , , , - , , 3 A ! _ L N N N N N N H N N N N G F i 6 , * $ = = - $ $ 1 ",
"F F F N L I I ` I N N F F i , = , , , , , , , , - , = , , , , < 2 t / ! N G N N N ` -.O.P N G u 5 & * , - 1 - * - - - - ",
"F N F F N N G P G G F i 5 = , , , , , - , , , , , - , , , , , - * = r a G G B N ` ` ! | +.K 6 = * 0 8 * - - * U W 4 - - ",
"G N B N N N G B N r 1 = = , , , , = , , , - , , , = , , , , , - , , * , 6 i N G _ G B l A C & - 9 S S q * < 8 h c d = , ",
"N N G N H N i 6 , = = - , , , , , , , , , - , , , , , - - , , , = , , , = = , 4 q 1 , & D C * - s = 9 n 2 D j d W s = , ",
"G G N u 7 1 = = , , , - , , = * = , , , , , , , , = * - , , - , , , , , , , , * 3 2 < j Q < = , , 8 n 8 1 q v 4 3 > , > ",
"w 1 , = * - , , , , , > , - , h 3 = = = - , , , * < 3 * , , , , , , = , , , , , - 9 C S 2 = , , - 2 1 , * s s * = , , , ",
"= = , , , , , , , , , > , = < b h h n , - , , * c %.} c , = - , , , , , - - , , - = = & = , , , - = - , , * = , , , , , ",
", , , , , - = , , , , - > , = 3 2 q h 2 , , = 2 [ C 3 b S * , , , , , , = , , , - , , , , , = , - - , - , , , , , > , = ",
", , = , , , , , , - , - , - , = * , < = , , = 3 g 3 3 3 D , & * & , , , , , , , , = , , , , , , , , = , , , , , , , , , ",
", , = , , , , = , , > , - , , , , - - - , , , , g g c C g , C %.S < * , , , , , , , , , , - - , , , , = , , , , , , , , ",
", 1 1 , = = , , , , > = , , , , , , , = = , , = 3 D S g & q } D v ] 2 & , , , , , , , , - , , , , = = 2 - - = = : = = = ",
"a N N N u 2 = = , = < , = , , , = , , , , , - , = * = , 7 V L B u @.n 1 1 , = * - * = = = - = - > < < t s - < 1 6 w r r ",
"G N G G H N i 1 = , n h 1 , = , , , - , , , , - = < y N G P I P P  .R N N p i y r w 6 4 1 < 1 , 0 b z W K p N G G G G G ",
"N N N N N N H N r , s g j C 3 * , , , , , , - , r N B N N N ` _ R L a G G N G G G G G F F G G a P ` P G F G F N N N N N ",
"B N N N N N N N H p 6 = 3 h 3 = , , , = , = 1 p G N N N N N N L N N N N N G F N a N G N N N G N N G N N F F F F F F F F ",
"N N N N N G N G N N N 6 < , * > , , , > = 1 a N N F G N G N N N G N G N F N F N F N N G G N N F F F F F N F N F F F F N ",
"N P _ ~ H N N G N H I H p 7 1 > = = = 1 7 a G N G N a a a a G N G N F F N G N G N G N G N F G N F F G N F F G N N F F N ",
"N ` ! / / N N N N L _ L N B N p u u i N G G N G a G ~ ` / G G G N N N N N G G G N N N N G N N N G N N F F F a F G N F F ",
"N _ R I _ N N N N B L N N N G G G G F F N F N G a ` ` ~ | ` y 6 4 1 < , 1 5 w i F G G N F F F F F F N N F G L H ~ R N F ",
"G P _ / I a H G G N N N B G a a N N F F F F G a R ` L R J S 2 * > = , = , * * = < w a G F N N F F F G N N I _ R _ P N F ",
"i 6 2 2 , 1 1 7 p N H N N B ! H N G N G F F G a / ^ R I g S < , , , , , , , , , , * , r N G N G F N F F N P R N N N F N ",
", * , = , = 3 3 * 1 y N G L / L N N N N N F N a J  .! z C k & , , , = , , , , , , , , = 4 p G N N F F F G a a G F F F F ",
", , , , * 0 b j 0 * * 1 y N L / ^ L N N N N N N G P S n g * , , , , , , , , , = , , , , = , r F G G N F N G F F N F F F ",
", , , , , 3 j j 9 * , , = 1 V / R ^ G G G G G G u , * = * , , , , , , , , = , , , , , , , , * 1 y N G F N N F F F F F F ",
", , , , , = 3 0 - , , , , * 0 M V Y p N x p r 5 * , , , , , , , , , , = , , , , , = , , , 8 8 , = , 7 p G G G F N N F F ",
", , , = , , = = , , , , , , , 0 s < - , , = = = , , , , , , , , = , , , , , = , , , , s 8 n n , , = = = 5 r a F G G F N ",
"- , , , - , , , - , , > , , - = * , , = , , , , , , - , , = , , , , , , , , = , , * 8 C s q 3 = , = , , = = , 5 r i N F ",
"> , , = > , > , , , , > , , - , , , , , , , = , , , = , , - - , , = , , , , , , , , , g 1 * = , , , , , , , , = * , 1 5 ",
", , , , , , , - - > , = * , , , , , , , - , , , , , , , , , , , , , = , = , , , , , = & = , , , , , > , , , , , , , , , ",
", - - > , - , , , , = 1 q , = , , , , , - = , , , = , = , , , , = , , , , , , = , , , , , , , , = , , , , = * = , , , , ",
", , , , , , , , , - 3 C v n < - , , = , = , , , , , , , , = , , , , , , = , , , , , , , , , , , , , > , = 2 q 1 = = = , ",
"= = = = = , = , , * j h 3 b d * , > , , , , , = = = = = , < , * = , , , , , , , , = , , , , = , , , , = b } S q 0 5 5 , ",
"u y r 7 5 1 , - - & s v s n 3 = = = = = * , , < 5 w y i a N p r 4 , = , , , , , , , , , , , , , , , > 8 j 9 t V _ R F N ",
"G G G G G N N p y w 5 b A g 1 6 6 w w y i p N N G G G G F N G G F u 4 * , = , , , = , , , = , , , , , 9 k l I R G +.L N ",
"N N N N G N G G G G G N N a a a F G G F H F N F G N N N N G N N N G F y , , , , , , , = = , = = , = 3 V R L ! G P >.~ a ",
"N G N N N G N N N N N N G N R ( R F a ! #.` a F N N N G N N G N F N F G x 1 : , , , = 8 ] $.D < = 5 G _ ~ P I F _ ;.R p ",
"N N G G F F N N L / H G a / | ~ ` ( a O.` +.P N N G F F G N G N F F N N G x 4 * > = 2 b b v C ] V G F  .:.| P L ;.,.G N ",
"G N N N F N G N L ! J N G ` R P P | G R O.` G F F F G F N N N G F F F F N F F y 1 , 9 s 2 e V ~ ` P a R ,.4.-.+.#.R N F ",
"N F N N N N G N G N N N G ` R R P ` J a H G N N x x N N G G G N N F F F F F N G N B J K J R / N ` ` a N P :.:._ H N F F ",
"G N G G G N N G N N G N N / ` ! ` _ F N u 7 4 , , , , < 5 r p G F F F F F F F F N H  ._ R I H G O.` a F a a a a N G F N ",
"N N N N F N N N G N N N N N ! ` / p 7 < = = - - - - , - * = , p F F F F F F F N N N #.#.~ P F P :.! a G G G a N p N G G ",
"N G G N F G N ! ` ! N G N N N a 6 , = = , , , - - , , , , , - , N F N F F F F F N a ~ 1.>.O./ |  .G N u 6 4 , , , 1 5 y ",
"F N N G G a P ( P ( H x G G u < * , , , , , , - - , , , , , , - 5 F G N F F F N G G a ~ ,.3.O./ i 7 , , = = = , , = = = ",
"N G F N N a P _ R ( G G N w = = , , , , , , , - , , , , , , , : ; , t H N N F F N N N a N L N 7 , = , , , , , , , , , , ",
"F N N G N G F ! / L p w , = - - - - , , , , , @ o + o + + + @ X X   . 3 F G G F F G G G F y 4 = , , , , , , , , = , , , ",
"N G N N N G N N i 6 , * - , , - - - , , , , , : : % $ = : ; % : , # : % 1 w i p a p u 7 , = = , , , , , , , = , , , , , "
};
