/* XPM */
static char *_ff53b97bfa0403fbf30da34d71140df9TOK5XkygLrJSC3q[] = {
/* columns rows colors chars-per-pixel */
"48 60 137 2 ",
"   c None",
".  c #3F1A05",
"X  c #3F1C08",
"o  c #401B06",
"O  c #411D0A",
"+  c #42210E",
"@  c #432413",
"#  c #4A2715",
"$  c #4B2917",
"%  c #462B1B",
"&  c #4E2C1B",
"*  c #472E20",
"=  c #482F21",
"-  c #493225",
";  c #4B362A",
":  c #4C392E",
">  c #553424",
",  c #5C3125",
"<  c #583827",
"1  c #573728",
"2  c #5B3B2C",
"3  c #4E3D33",
"4  c #643B32",
"5  c #4F4036",
"6  c #504037",
"7  c #5F4033",
"8  c #51433B",
"9  c #614334",
"0  c #614338",
"q  c #66493B",
"w  c #684C3E",
"e  c #74423E",
"r  c #534740",
"t  c #554B45",
"y  c #564E49",
"u  c #57504C",
"i  c #58524E",
"p  c #5A5653",
"a  c #5B5956",
"s  c #5C5A58",
"d  c #6B4F41",
"f  c #774543",
"g  c #7A4D49",
"h  c #6C5042",
"j  c #72574A",
"k  c #755B4E",
"l  c #655E5C",
"z  c #775C51",
"x  c #785F53",
"c  c #69615F",
"v  c #7A6054",
"b  c #7E655A",
"n  c #6C6363",
"m  c #716565",
"M  c #76696A",
"N  c #7A686A",
"B  c #93585E",
"V  c #80685C",
"C  c #856E64",
"Z  c #887166",
"A  c #897368",
"S  c #8F7A6F",
"D  c #8A7375",
"F  c #8F7971",
"G  c #8C7679",
"H  c #917D73",
"J  c #967A7E",
"K  c #987A7F",
"L  c #A3616C",
"P  c #AD6976",
"I  c #958077",
"U  c #97837B",
"Y  c #99867D",
"T  c #A17D85",
"R  c #B87D88",
"E  c #C5788D",
"W  c #CB7C93",
"Q  c #9E8B83",
"!  c #A3928B",
"~  c #AD8791",
"^  c #B28A95",
"/  c #BC8E9C",
"(  c #AB9C95",
")  c #AE9F99",
"_  c #AFA099",
"`  c #B3A59E",
"'  c #BEB2AC",
"]  c #C0929E",
"[  c #D297A9",
"{  c #D49DAD",
"}  c #DF9FB3",
"|  c #E68AAB",
" . c #E88CAD",
".. c #EF8FB3",
"X. c #F190B4",
"o. c #DDA1B3",
"O. c #C1B6B1",
"+. c #C6BBB7",
"@. c #C7BDB9",
"#. c #C8BEB9",
"$. c #E7A6BB",
"%. c #ECA9BE",
"&. c #EFABC1",
"*. c #F3ADC4",
"=. c #CFC6C2",
"-. c #D0C7C4",
";. c #D0C8C4",
":. c #D6CECB",
">. c #D8D0CE",
",. c #DAD3D0",
"<. c #DFD8D5",
"1. c #E3DDDB",
"2. c #E6E1DF",
"3. c #E9E5E4",
"4. c #EDE9E8",
"5. c #EEEBE9",
"6. c #EFECEB",
"7. c #ECE9E8",
"8. c #F0EDEC",
"9. c #F1EEED",
"0. c #F3F1F0",
"q. c #F4F1F1",
"w. c #F4F2F2",
"e. c #F6F4F3",
"r. c #F6F4F4",
"t. c #F5F4F3",
"y. c #F8F6F6",
"u. c #F9F8F7",
"i. c #F9F8F8",
"p. c #FCFBFB",
"a. c #FDFCFC",
"s. c #FDFDFD",
"d. c #FEFDFD",
"f. c #FEFEFD",
"g. c #FEFEFE",
"h. c white",
"j. c #FFFFFF",
/* pixels */
"                                                                                                ",
"                                                                                                ",
"                                                                                        O ; .   ",
"                                                                                      . a s r   ",
"                                                                                        u s ;   ",
"                                                                                    . . . .     ",
"    .                                                                             . = a O       ",
"  % a 6                                                                       . @ p s s .       ",
"  y s a .                                                                 . O y s s s s .       ",
"  O y % .                                                             . . 3 s s s s s s .       ",
"      . y % . .                                                     . % a s s s s s s a .       ",
"      . a s s y % . .                                           . O u s s s s s s s s p .       ",
"      . y s s s s s t @ . .                                   . ; s s s s s s s s s s u .       ",
"      . 3 s s s s s s s a 6 O . .                             . p s s s s s s s s s s t .       ",
"        @ s s s s s s s s s s p = .         . . . . . . . . . . y s s s s s s s s s s 5 .       ",
"        . s s s s s s s s s s s s @   . . @ 3 i a s s s a p t % . @ i s s s s s s s s ;         ",
"        . s s s s s s s s s s s s % O t s s s s s s s s s s s s s 6 . % a s s s s s s %         ",
"        . p s s s s s s s s s s s - 3 s s s s s s s s s s s s s s s s : . t s s s s s @         ",
"        . 8 s s s s s s s s s s s : : s s s s s a K { } ] n s s s s s s i . 3 s s s s O         ",
"          % s s s s s s s s s s s s s s s s s n *.*.*.*.*.*.^ s s s s s s a . 8 s s s .         ",
"          O s s s s s s s s s s s s s s s s a *.*.*.*.*.*.*.*.m s s s s s s p . p a - .         ",
"          . s s s s s s s s s s s s s s s s m *.o.*.*.*.*.N *.T s s s s s s s t . . o           ",
"          . p s s s s s s s s s s s s s s s N &.s ^ *.*.$.s / M s s s s s s s s @               ",
"          . O 3 p s s s s s s s s s s s s s s &.m %.*.*.*.[ { s s s s s s s s s i .             ",
"              . . X - y s s s s s s s s s s s l { %.%.o.*.D s a % + 3 a s s s s s .             ",
"                    @ - s s s s s s s s s y y a s c ~ J G s 3 $ 1.h.-.$ : s s s s %             ",
"                  . r s s s s s s s s t O Q ( 2 O % 8 p p O ( h.h.h.h.h.( @ s s s 6 .           ",
"                  . p s s s s s s s ; j h.h.h.h.h.e.' d w w.h.h.h.h.h.r.Q =.@ s s y .           ",
"                  . a s s s s s s 3 S h.h.h.h.h.h.h.h.h.h.h.h.h.h.h._ . q h.H r s y .           ",
"                  . a s s s s s p 2 h.j 3.h.h.h.h.h.h.h.h.h.h.h.h.z . . 1 h.h.O s t .           ",
"                  . i s s s s s % 6.p.> . + ) h.h.h.h.h.h.h.h.h.h.I . . o h.h.& s : .           ",
"                  . 6 s s s s s + h.h.w . . > h.h.h.h.h.h.h.h.h.h.5.. . O h.h.j a +             ",
"                    @ s s s s a 2 h.h.k . . 2 h.h.h.h.h.p.h.h.h.h.h.( > :.h.h.z p .             ",
"                    . a s s s a 2 h.h.=.. . ) h.h.h.h.U R 4 h.h.h.h.h.h.h.h.h.1 %               ",
"                    . ; s s s s O h.h.h.<.,.h.h.h.h.h.) g A h.h.h.h.h.h.h.h.h.. .               ",
"                      . u s s s % 5.h.h.h.h.h.h.h.h.h.p.h.h.Q h.h.h.h.h.h.h.U .                 ",
"                        . u s s p < h.h.h.h.h.h.h.h.h.H U C h.h.h.h.h.h.h.( .                   ",
"                          . : s s : C h.h.h.h.h.h.h.h.h.h.h.h.h.h.h.h.0.2 .                     ",
"                            . . ; p : 9 p.h.h.h.h.h.h.h.h.h.h.h.h.3.h .                         ",
"                                . . . + . V 9.p.h.h.p.w.2.+.H 2 o O - .                         ",
"                              O u s p r - + O . . . . O + % 3 y y p a p % . L ,                 ",
"                      o  .P * u u y u p s s s s s s s s s s s a 9 Y 2 . . O X.W                 ",
"                      O X.E . . x ! ! # a s s s s 3 O - p s s y ! h.h.O     $ .                 ",
"                        .     1 h.h.h.1.% s s p + ! h.1.0 + t : A -.h.9                         ",
"                              F h.h.h.h.j y ; & 9.h.h.h.h.p.Z e 4 1 h.@                         ",
"                              1 h.h.2.H 2 e Q h.h.h.h.h.h.h.v X.... ` H .                       ",
"                  . .       . A >.h.p.O | X.0 h.h.h.h.h.h.h.1.f 4 1 p.5..                       ",
"                  . y 3 @ . . u.h.h.,.H 4 B O.h.h.h.h.h.h.h.h.h.h.9 @.#                         ",
"                  . s s O     & -.@.O p.h.h.h.h.h.h.h.h.h.h.h.h.h.>                             ",
"                  . a s y .       2 p.h.h.h.h.h.h.h.h.h.h.h.h.h.h.O                             ",
"                  . . y s : .     . p.h.h.h.h.h.h.h.h.h.h.h.h.h.e..                             ",
"                      . ; s y % @ @ 1.h.h.h.h.h.h.) h.h.h.h.h.h.,..                             ",
"                          . @ - + . 3.h.h.h.h.h.r.. Q h.h.h.h.h.( .                             ",
"                                  $ <.h.h.h.h.h.!   2 h.h.h.h.h.h.0..                           ",
"                                o h.h.h.h.h.h.h.b   b h.h.h.h.h.h.h.7                           ",
"                                $ h.h.h.h.h.h.h.U   + y.h.h.h.h.h.h.+                           ",
"                                . :.h.h.h.h.h.' .     . w ` ;.#.I +                             ",
"                                  . O 1 2 & . .                                                 ",
"                                                                                                ",
"                                                                                                "
};
