/* XPM */
static char *_b944ca9ddc84f11f259a66f3cb72785MqE7NFTtIvhAsi67[] = {
/* columns rows colors chars-per-pixel */
"60 50 209 2 ",
"   c None",
".  c #020101",
"X  c #0B0500",
"o  c #0C0C0C",
"O  c #1B0B01",
"+  c #150603",
"@  c #131414",
"#  c #191A1A",
"$  c #0F1111",
"%  c #2B0703",
"&  c #241203",
"*  c #271905",
"=  c #351C07",
"-  c #2F110F",
";  c #3B2303",
":  c #3A2704",
">  c #28231A",
",  c #372C07",
"<  c #2B2B2B",
"1  c #262524",
"2  c #38322A",
"3  c #353434",
"4  c #3E3E3E",
"5  c #302E2B",
"6  c #470707",
"7  c #550808",
"8  c #590909",
"9  c #411D05",
"0  c #5A1D00",
"q  c #780D0D",
"w  c #6E0A0A",
"e  c #492705",
"r  c #542808",
"t  c #4A3601",
"y  c #543400",
"u  c #4E3213",
"i  c #6C2505",
"p  c #613604",
"a  c #733400",
"s  c #773711",
"d  c #712A0F",
"f  c #453626",
"g  c #583E29",
"h  c #4C3B36",
"j  c #0B5A00",
"k  c #594800",
"l  c #584615",
"z  c #694600",
"x  c #784903",
"c  c #775609",
"v  c #624815",
"b  c #6B5219",
"n  c #74441F",
"m  c #4D4426",
"M  c #574B36",
"N  c #624626",
"B  c #744D2F",
"V  c #463F41",
"C  c #3B4244",
"Z  c #304455",
"A  c #454647",
"S  c #4B4A49",
"D  c #4F5052",
"F  c #535454",
"G  c #5A5B5C",
"H  c #585958",
"J  c #5C4B40",
"K  c #615549",
"L  c #5E605C",
"P  c #736B54",
"I  c #5D5E60",
"U  c #5F6061",
"Y  c #626365",
"T  c #6B6B6C",
"R  c #676869",
"E  c #737474",
"W  c #7A7A7A",
"Q  c #757779",
"!  c #786D69",
"~  c #8A0D0D",
"^  c #940E0E",
"/  c #9C1111",
"(  c #A31212",
")  c #AB1212",
"_  c #BA0F0F",
"`  c #8F3400",
"'  c #993600",
"]  c #912E00",
"[  c #B73D00",
"{  c #D81414",
"}  c #CB1111",
"|  c #E61818",
" . c #F81B1B",
".. c #894C03",
"X. c #964904",
"o. c #855602",
"O. c #9C5801",
"+. c #9E4E18",
"@. c #A44701",
"#. c #B2551C",
"$. c #A25414",
"%. c #896A00",
"&. c #976503",
"*. c #967502",
"=. c #956F1C",
"-. c #A46802",
";. c #B66700",
":. c #A77300",
">. c #AA7900",
",. c #B97A00",
"<. c #BC7C10",
"1. c #8B5C28",
"2. c #BB5E21",
"3. c #936229",
"4. c #8E663A",
"5. c #A87236",
"6. c #B16E2C",
"7. c #C95F00",
"8. c #D76800",
"9. c #C97900",
"0. c #D57400",
"q. c #D3621F",
"w. c #D36E21",
"e. c #E46A22",
"r. c #E4792C",
"t. c #169B02",
"y. c #17AF00",
"u. c #359027",
"i. c #639D5A",
"p. c #648159",
"a. c #55C145",
"s. c #AD8500",
"d. c #A28000",
"f. c #BF8300",
"g. c #B29703",
"h. c #C78D00",
"j. c #D38A04",
"k. c #CE9800",
"l. c #E89900",
"z. c #E28C00",
"x. c #D6A800",
"c. c #CFAA06",
"v. c #E7A500",
"b. c #E8B702",
"n. c #CB8038",
"m. c #E78533",
"M. c #F18A32",
"N. c #E9923B",
"B. c #F3973D",
"V. c #EC852E",
"C. c #D6A832",
"Z. c #F2D308",
"A. c #F0C200",
"S. c #948C57",
"D. c #9F967B",
"F. c #EA9745",
"G. c #F29E42",
"H. c #DEB15F",
"J. c #F5A144",
"K. c #F6A54C",
"L. c #F7AB56",
"P. c #C1AF64",
"I. c #F8B264",
"U. c #F4E241",
"Y. c #F7D16E",
"T. c #7E7F81",
"R. c #7E8183",
"E. c #8C8D8E",
"W. c #848687",
"Q. c #8C8E90",
"!. c #919396",
"~. c #9A9B9D",
"^. c #96999B",
"/. c #B4A79A",
"(. c #9E9FA1",
"). c #9EA1A4",
"_. c #A2A3A5",
"`. c #A3A6A9",
"'. c #A6A9AC",
"]. c #AAABAD",
"[. c #ABAEB1",
"{. c #AFB2B4",
"}. c #AFB5B8",
"|. c #B2B3B5",
" X c #B4B6B9",
".X c #BABBBD",
"XX c #B5BABB",
"oX c #C0A792",
"OX c #92DA87",
"+X c #8CCE82",
"@X c #BFC1BE",
"#X c #E4D694",
"$X c #BDBFC0",
"%X c #B4BDC0",
"&X c #B8C4C6",
"*X c #C3C4C5",
"=X c #CACACC",
"-X c #C6C7C9",
";X c #C8CFD1",
":X c #CDD3D5",
">X c #CFD7D9",
",X c #D4DBDC",
"<X c #DCDDDE",
"1X c #DBDFE1",
"2X c #DBE1E2",
"3X c #E3E4E5",
"4X c #EBEBEC",
"5X c #F4F5F5",
"6X c #FDFDFD",
/* pixels */
"                                                                                                                        ",
"                                                                                                                        ",
"                                                                                                                        ",
"                                                            . X +                                                       ",
"                                                    . 7 ( |  . . .                                                      ",
"                                                  6 ( ( ( 8  . .)                                                       ",
"                                              X / ( / / ^ w | | 8                                                       ",
"                                              / ( / ^ ^ ^ ~ { { %                                                       ",
"                                          % ( ( ~ 7 6 8 ~ ~ _ { O                                                       ",
"                                        . ( / O *.k s.s.*.= ^ } O                                                       ",
"                                        q ( : s.>.:.:.:.:.>.%.s.,                                                       ",
"                                      . ( O s.&.x z o.-.-.-.:.Z.*                                                       ",
"                                      O ~ *.* !.[.}.[.G e O.-.b.m S                                                     ",
"                                      7 % > ].[.}.}.XX&X&X> O.j.m ,X^.                                                  ",
"                                      q o ].].[.}.).XX&X&X>Xe 9.l >X2XF                                                 ",
"                                      7 ~.]. X=X|.:X:X>X;X1X*X9.l >X:X5X.                                               ",
"                                      $ '.|.-X-XY ;X:X>X,X2X,Xo.c >X:X:X1                                               ",
"                                      I '.-X-X=XR ~.G S &X,X,XD.=.:X`.W.W.                                              ",
"                                      !.].-XG , *.x.v.l.v.m ;X>X:XL #Xb.*             5                                 ",
"                                      ).|.Y x.c.g.t = ; ,.v.b.S.S.U.P.>.l..         F W.F                               ",
"                                      ). XA k.& q.S Z g q.p k.A.Z.l h V e .       F R =X'.                              ",
"                                      ). XF h.* G.G.B m C #.e.$.-.f p.B & .     o E W 3XXX                              ",
"                                      ^.|.Q h.* J./.OXy.P 5.M.e.e.2.a.+X& X     F W .X6XE.                              ",
"                                      R.[.(.f.* G.@Xt.j OXM.J.G.N.F.t.i.& X   . E E 5X6X3                               ",
"                                      F '..X-.t K.B i.u.oXM.J.J.6.N.P n & X   # E W 6X5X.                               ",
"                                      < `.*Xz s.4.L.F.F.K.K.K.J.5.3.F.m.e X   G E  X6X=X                                ",
"                                      o `.].3 d.c.k f I.I.L.K.G.V.w.N.s l.. . T T 4X3XA                                 ",
"                                        ! `.'.{.5 %.b.4.I.L.K.B.B.B.m.e &.. 1 R E <X<X.                                 ",
"                                        ] r E.`.].3 l.N I.5.n.6.3.G.m.9 ... H U _.=X&X                                  ",
"                                        % ' @.: Y < 0.N L.L.K.J.G.G.r.e 8.. F H  X.XF                                   ",
"                                            9 ;.g.f.0.1.L.K.J.B.M.e.s . * # C u ~.].o                                   ",
"                                                + z ;.r +.#.+.s & .     0 . = <.4 E.                                    ",
"                                              # Y > X.(.~.T 4X4 ).    . [ a 7.&.X                                       ",
"                                            + M <XH ' T.^.=X4X Xv e   . ` O 8.c.o...                                    ",
"                                            ; p M H d K '.*X3X3Xe T A @ . . E.. o.;.                                    ",
"                                          5 S 2 3 !.d 1.Y `.~.C.= D *X>._.W <   y                                       ",
"                                        @ F $X# R E.M = r @.j.m r o F M $X3 4                                           ",
"                                        X ' b o I T.h ` @.N H b W.  . 1 E ].<                                           ",
"                                        Y ,X].. G R Q.!.Q + O.1 Q.      O S .                                           ",
"                                        '.1X-Xo 4 F E.]..XJ X.M f       a :                                             ",
"                                        W.|.{.  < Y G : . ; ..t u D                                                     ",
"                                          . .   > E.~.o.. x _.v > c                                                     ",
"                                              . * ,.h.y . & &.p M O                                                     ",
"                                              # T .X.XR   @ Y .X*XG                                                     ",
"                                              A Q 2 &.,   @ T G j.Y.X                                                   ",
"                                              . + ] z.H.  . G i ' y                                                     ",
"                                                                                                                        ",
"                                                                                                                        ",
"                                                                                                                        ",
"                                                                                                                        "
};
