/* XPM */
static char *ca2f56a70bd742839ab207dbafd51a99UREfvazL7KPohNDz[] = {
/* columns rows colors chars-per-pixel */
"28 60 145 2 ",
"   c None",
".  c #010201",
"X  c #0B0B0D",
"o  c #0F1012",
"O  c #121214",
"+  c #17181A",
"@  c #1C1D1F",
"#  c #251A15",
"$  c #291E15",
"%  c #1E1F21",
"&  c #232426",
"*  c #262729",
"=  c #2C2D2E",
"-  c #362C24",
";  c #3E3225",
":  c #3C3229",
">  c #2F3033",
",  c #303134",
"<  c #353638",
"1  c #3A3B3D",
"2  c #4B3D2E",
"3  c #463B32",
"4  c #4A3D34",
"5  c #433C39",
"6  c #4E4136",
"7  c #4F463E",
"8  c #514537",
"9  c #5D4F34",
"0  c #57473A",
"q  c #5F4E3E",
"w  c #3C3D40",
"e  c #444547",
"r  c #4B4B4C",
"t  c #5A4C42",
"y  c #5D534B",
"u  c #4A5057",
"i  c #615144",
"p  c #605843",
"a  c #665D4B",
"s  c #6A5B4D",
"d  c #655951",
"f  c #6D5E50",
"g  c #6E655E",
"h  c #726356",
"j  c #70665A",
"k  c #676768",
"l  c #61686E",
"z  c #6F6F6F",
"x  c #756E66",
"c  c #726C68",
"v  c #7E766B",
"b  c #747577",
"n  c #7E7C7B",
"m  c #81442B",
"M  c #944B2A",
"N  c #9D582E",
"B  c #A0502D",
"V  c #A9522A",
"C  c #BE5C2C",
"Z  c #A55530",
"A  c #B25E32",
"S  c #C65F29",
"D  c #D26025",
"F  c #D66628",
"G  c #D5682B",
"H  c #D96C32",
"J  c #8E6C5B",
"K  c #A56E57",
"L  c #817E7C",
"P  c #A87E6B",
"I  c #CF855D",
"U  c #7E7F81",
"Y  c #848586",
"T  c #808489",
"R  c #888788",
"E  c #87888B",
"W  c #8C8C8D",
"Q  c #8F908F",
"!  c #92908E",
"~  c #8D8F91",
"^  c #8F9091",
"/  c #939393",
"(  c #9A9794",
")  c #9B9A97",
"_  c #949699",
"`  c #96989A",
"'  c #9B9B9B",
"]  c #A19D99",
"[  c #A3A19E",
"{  c #9E9FA1",
"}  c #A4A4A4",
"|  c #A8A8A7",
" . c #A5A7A9",
".. c #A6A9AD",
"X. c #ABABAB",
"o. c #B1ABA0",
"O. c #B1AFAC",
"+. c #B1B0AF",
"@. c #AFAFB0",
"#. c #AFB0B3",
"$. c #B3B3B3",
"%. c #B9B6B5",
"&. c #BAB9B7",
"*. c #B6B7B9",
"=. c #B6B8BB",
"-. c #BCBBBB",
";. c #CEB8B0",
":. c #C1BFBE",
">. c #C3C0BE",
",. c #D3C0B1",
"<. c #D7C2B8",
"1. c #BEBFC1",
"2. c #C5C3C3",
"3. c #C9C7C5",
"4. c #CCC9C7",
"5. c #C6C6C8",
"6. c #C7C8C9",
"7. c #CCCCCB",
"8. c #D1CECC",
"9. c #D1D1CF",
"0. c #CFD2D4",
"q. c #D5D3D1",
"w. c #D6D2D0",
"e. c #D5D4D2",
"r. c #D6D5D3",
"t. c #D5D5D5",
"y. c #D7D6D4",
"u. c #D7D7D5",
"i. c #D4D4D2",
"p. c #D9D5D3",
"a. c #D8D7D5",
"s. c #D8D6D5",
"d. c #D9D7D6",
"f. c #D8D7D6",
"g. c #D8D8D6",
"h. c #DAD9D7",
"j. c #D9D8D7",
"k. c #D2D5DA",
"l. c #DAD9D8",
"z. c #DBDAD8",
"x. c #DDDDDC",
"c. c #DBDBDA",
"v. c #E4E4E4",
"b. c gray91",
"n. c gray94",
/* pixels */
"                                                        ",
"                                                        ",
"                                                        ",
"                                                        ",
"                                      3                 ",
"                                      3                 ",
"                                                        ",
"                                                7       ",
"                                            4           ",
"                                    4                   ",
"                                                        ",
"                                      t 6               ",
"                                      0                 ",
"                                  u.7.g                 ",
"                              7.2.6.7.e.u.              ",
"                            6.*.-.v p 9 2.o.            ",
"                            -.=.x X.$.-.*.] a           ",
"                          1.-.$.l b u *..._ }           ",
"                        6.2.2.#.=.O k. .*.0.Y           ",
"                      5.3.e.g..._ . *.T . U ~           ",
"                      } $.4.g.0.~ ..` ( i *.$.          ",
"                    %.' W X.q.d.z.6.K V S F ;.g.        ",
"                    } ' } } 2.q.u.d.P Z C D H g.z.      ",
"        4           ' ' } / $.2.u.d.4.M B C G <.x.      ",
"      i             / ` ' } ` %.4.p.w.$.m M A I z.      ",
"    h f q t 4       / / ' ' ' ~ %.4.8.>.} / J N ,.      ",
"          ; 6       / / / ' ' ' W } +.%.} ' O.2.2.      ",
"            :       ` ~ / ` ` / / -.$.| ' / / }         ",
"              -     { W / / / / / X.$.| } X.W           ",
"                -     W ~ / / / / W E ~ / '             ",
"                -     W W / / / ^ W E T W }             ",
"                  $   W W Q / / / ~ W / '               ",
"                    ; ^ W W / / ^ W / '                 ",
"                    $   E W / W W Q ' '                 ",
"                      # E W W W W / '                   ",
"                      @.' R E E E / 2.                  ",
"                    -.} } &.>.2.7.e.d.e.                ",
"                    } E / 2.w.d.g.g.L $.                ",
"                    / @ > } 4.w.d.e.5 c u.              ",
"                    n O & k -.4.8.8.' 7 9.              ",
"                    W r X / $.:.2.2.| 2 2.x.n.          ",
"                    ' E W / } +.&.-.} : 2.u.z.          ",
"                  X.' ^ E W / ' } +.X.n j z.c.x.        ",
"                $.} } | +.&.>.2.7.9.-.*.4 z.c.z.b.      ",
"                } } $.-.2.4.q.e.u.d.6.2.3 g.x.z.z.      ",
"                ' ' ' b %.7.e.d.g.g.e.2.y e.x.z.u.      ",
"                ' / * = w -.6.7.9.q.e.-.! ] z.z.u.v.    ",
"                ' W @ % , ~ 2.7.7.9.q.$.%.s e.u.q.x.    ",
"                / / = o @ | 2.4.7.7.4.$.v 8 7.q.7.      ",
"                / / / / } %.:.2.3.2.*.X.%.i O.6.6.      ",
"                / / / 1 < } -.:.2.2.-.} +.y i 2.2.      ",
"                  W W + * e +.-.-.-.$. .d -.( d -.      ",
"                  E E O o @ } +.%.X.$.$.x -.t $.        ",
"                    W R z R ' } | | | O.$.X.}           ",
"                      / / R R W / / / / ' -.            ",
"                    } ) [ ] / E ! [ +.2.8.4.            ",
"                      ! ( ( / W / %.:.3.4.>.            ",
"                          W W   / ' X.+.X.              ",
"                                                        ",
"                                                        "
};
