/* XPM */
static char *f80e403828624432b9d50c8aad715afa3FLj2NM7I3LsUZ24[] = {
/* columns rows colors chars-per-pixel */
"60 69 228 2 ",
"   c None",
".  c #1C3C00",
"X  c #3D3206",
"o  c #4E2C0E",
"O  c #48270F",
"+  c #4E380B",
"@  c #54330E",
"#  c #5A390E",
"$  c #543213",
"%  c #5A3715",
"&  c #5C3A14",
"*  c #573A13",
"=  c #4E2E10",
"-  c #633D14",
";  c #623A18",
":  c #234300",
">  c #264A00",
",  c #2B4E00",
"<  c #274604",
"1  c #2D5300",
"2  c #2F500D",
"3  c #325500",
"4  c #355C00",
"5  c #3B5E01",
"6  c #3B5C0A",
"7  c #37570A",
"8  c #376100",
"9  c #3B6300",
"0  c #3E6C00",
"q  c #3D6209",
"w  c #367403",
"e  c #36670B",
"r  c #3E7528",
"t  c #386D29",
"y  c #5D480D",
"u  c #565D0A",
"i  c #584313",
"p  c #465704",
"a  c #654316",
"s  c #6B4416",
"d  c #6C4518",
"f  c #6E4918",
"g  c #674815",
"h  c #734C1A",
"j  c #744A18",
"k  c #675314",
"l  c #76511A",
"z  c #7B541B",
"x  c #7E581B",
"c  c #795416",
"v  c #426501",
"b  c #486404",
"n  c #446B01",
"m  c #4A6D02",
"M  c #4A6D0B",
"N  c #44680C",
"B  c #437400",
"V  c #4D7301",
"C  c #4B7D01",
"Z  c #4C730A",
"A  c #4C7C0A",
"S  c #457508",
"D  c #527504",
"F  c #547B01",
"G  c #5A7D05",
"H  c #52730C",
"J  c #547B0B",
"K  c #5A7D0C",
"L  c #4C6D14",
"P  c #4C671A",
"I  c #4D6A1B",
"U  c #496A18",
"Y  c #526D17",
"T  c #536D1D",
"R  c #5B641A",
"E  c #4D7313",
"W  c #4D731C",
"Q  c #47771A",
"!  c #527413",
"~  c #547913",
"^  c #5A7C13",
"/  c #53741B",
"(  c #5A751D",
")  c #56791C",
"_  c #5C7A1C",
"`  c #647F0A",
"'  c #617D1D",
"]  c #6B6811",
"[  c #4D7422",
"{  c #437A27",
"}  c #4E7A23",
"|  c #537622",
" . c #5C7621",
".. c #557921",
"X. c #5D7B22",
"o. c #536D24",
"O. c #627C22",
"+. c #82571A",
"@. c #835B1C",
"#. c #885C1A",
"$. c #8C631D",
"%. c #91661D",
"&. c #4D8201",
"*. c #558301",
"=. c #5A8304",
"-. c #528A01",
";. c #5E8904",
":. c #5D830A",
">. c #54840B",
",. c #5C841C",
"<. c #578515",
"1. c #5E9213",
"2. c #638505",
"3. c #638B05",
"4. c #6A8B05",
"5. c #62840B",
"6. c #658B0A",
"7. c #6C8D0C",
"8. c #698709",
"9. c #718D0B",
"0. c #659205",
"q. c #6B9306",
"w. c #66920B",
"e. c #6C930C",
"r. c #6E980C",
"t. c #749606",
"y. c #769807",
"u. c #799B07",
"i. c #74940D",
"p. c #78970A",
"a. c #739B0C",
"s. c #7C9B0A",
"d. c #648415",
"f. c #6B8C16",
"g. c #63831B",
"h. c #648B1C",
"j. c #6C8C1B",
"k. c #688816",
"l. c #718D14",
"z. c #718C1C",
"x. c #6C9313",
"c. c #6C931D",
"v. c #6C9716",
"b. c #729413",
"n. c #7B9512",
"m. c #739B12",
"M. c #7D9B12",
"N. c #75931E",
"B. c #749B1A",
"V. c #7C9C1D",
"C. c #7B951C",
"Z. c #7BA40A",
"A. c #75A116",
"S. c #7DA314",
"D. c #76A11C",
"F. c #7AA51C",
"G. c #7EAB1E",
"H. c #4B8425",
"J. c #4F8924",
"K. c #538D24",
"L. c #5C8C2B",
"P. c #598522",
"I. c #5B9225",
"U. c #5F9031",
"Y. c #658221",
"T. c #6C8B21",
"R. c #658521",
"E. c #6B9224",
"W. c #739421",
"Q. c #769C20",
"!. c #7B9B20",
"~. c #649636",
"^. c #728F20",
"/. c #7BA120",
"(. c #819E0A",
"). c #849D13",
"_. c #859D19",
"`. c #969A18",
"'. c #85A30A",
"]. c #89A60B",
"[. c #8CAA0B",
"{. c #83A708",
"}. c #92AE0C",
"|. c #8AB60C",
" X c #94B20D",
".X c #9AB60E",
"XX c #9DB90D",
"oX c #84A213",
"OX c #8AA313",
"+X c #8CAA14",
"@X c #84AC1C",
"#X c #89AE1B",
"$X c #85A719",
"%X c #93A616",
"&X c #94AC15",
"*X c #94AD19",
"=X c #9BAD19",
"-X c #9CAB16",
";X c #8BB11B",
":X c #95B111",
">X c #9DB415",
",X c #92B51B",
"<X c #9BB91A",
"1X c #A2BD0E",
"2X c #A2BB12",
"3X c #A4B51C",
"4X c #AAB51B",
"5X c #A6BA1C",
"6X c #ACBA1E",
"7X c #A9BE15",
"8X c #B2BD1E",
"9X c #A9AD1C",
"0X c #93C30D",
"qX c #A9C516",
"wX c #B4CB14",
"eX c #B6C01E",
"rX c #BDC41E",
"tX c #B2C616",
"yX c #BDD61A",
"uX c #BAC320",
"iX c #C1C71F",
"pX c #C2C81F",
"aX c #C2C81F",
"sX c #C3D11A",
"dX c #C1D813",
"fX c #D8ED18",
"gX c #E2F619",
"hX c #C2C820",
/* pixels */
"                                                                                                                        ",
"                                                                                                                        ",
"                                                            m m V V V m n                                               ",
"                                          rXaXaXaXhX  aXaXaXrX%XF =.=.V V n a.                                          ",
"                              #X#X@X@X@X4XaXaXrX8X6XeXaXiXrX8X4XrXaXaXeX4.;.Z.a.|.|.                                    ",
"                          ;X;X#X@X@X@Xm.*X6X4X=X%XOX6X4XtXwXwXsXsXaX8X4X4Xq.s.0.|.|.0X                                  ",
"                          @X#X#X$XB.x.x.#X*XOX).M.oX>X7X7XqXtXsXyXsX>XOX=Xs.s.Z.].|.0X0X                                ",
"                        5.e.b.m.m.m.6.7.S.M.a.i.7.i.>X2X>X2XtXwXwXqX&Xi.7.7.p.u.(.].0X|.n n                             ",
"                      m :.e.e.m.m.x.:.:.m.S.q.3.:.4.:X&X}. X2X7X2XqXXXp.G F V 2.y.s.7.D n 0 C <.                        ",
"                    8XrX6XOXr.6.6.:.M.oX+X:X.XXX X[.'.].].[.[.:X}. X X3.V V V V F Z.2.G V 0 C -.L.L.                    ",
"                  aXaXaXiX6X&X3.:.G ].+X}. X X X.X X}.'.'.'.'.].].[.[.'.F F D V V m V J v n C -.1.L.                    ",
"                  iX8X6X3X=X*Xs.=.s.'.'.].[.[.}. X XXX[.s.s.s.s.(.'.'.t.F =.*.F V V m m n m A >.I.~.L.                  ",
"                eX=X%X%XOXOXoXM.=.2.p.(.s.(.'.[.[.[.XX Xu.u.u.t.9.t.u.t.F *.*.F V V m M M m Z <.~.~.L.                  ",
"                3X).n.n.i.i.i.e.=.F 4.u.y.t.s.'.'.{.{.{.F V F G G 1XwXXXs. X:.F ^ ~ V m M M Z ,.L.U.L.                  ",
"              b n.7.8.8.6.6.:.=.=.7.$Xs.5.D F u.u.q.u.3.F u.F .XXXXXXX.X.X1X5XC.' O.X.H Z Z Z h.E.L.                    ",
"              =Xi.:.:.G =.=.=.F S.#X;X,X,Xm.V F F *.F =.4. X}.}.}.}.}.}.[.:X*XoXk._ ..../ M G $X$XwXwXfXv               ",
"            8X3Xn.M.i.6.:.=.=.;.A.S.S.$X$X+XV V F F F q.'.[.'.[.].'.'.'.].OX+XOX).k./ | | / 2.y.'..XqXwXdXgX            ",
"          eX6X3XM.n.i.e.6.=.*.0.r.a.a.a.a.m.=.*.=.F F =.'.{.Z.s.s.s.s.s.s.s.(.oXoXd.F.F.c.h.D 2.u.].}.1XwXfX            ",
"        uX8X6XOXn.l.7.7.6.=.*.;.0.0.0.0.q.q.=.w.G.G.G.S.u.u.u.u.y.t.u.t.t.y.u.y.,X,X@XG.G.G.x.D G 4.+X<XwXyXyX          ",
"        eX8X6X).l.k.d.5.:.F G =.=.;.3.3.3.;.m.F.G.G.G.@X;Xt.t.t.t.t.q.4.4.8.` 7.,X,XG.G.G.G.D.J m D ,X<XqXqXwX<X/.      ",
"        eX6X5X).z.d.d.^ K J J J =.=.=.;.;.=.0.m.A.F.G.G.G.S.4.4.4.3.2.V 2.G G 6.oXS.B.D.D.F.F.B.v b.;X;X,X<XqX@XG.F.    ",
"        8X3X,X_.N.j.g.^ ~ ! J ~ J J *.*.*.*.3.e.r.m.F.G.G.A.3.2.=.=.G D m m v v 6.w.x.x.v.v.v.v.D x.#X#X#X;X,X,XG.G.    ",
"        ;X<X!.N.j.' _ / ! ! ! ! ! ~ F F F F =.:.6.e.m.A.F.F.6.=.F F D m m m M v ^ 5.:.:.:.:.5.5.v m #X#X@X#X;X@XG.G.    ",
"        G.V.T.N.T.....) / / / / / ! F V V V V F :.6.w.x.m.D.G :.J D V m n v ( ( _ O.O.H J D J J v m @X#X#X@X@X@X@XG.[   ",
"      G.G.W.Y.T.c.h.| | | | | / / ) ! F D V G G :.F G 5.x.x.K J ~ V m V m ^ d.d.g._ X.O.O._ ' Y.X.v v $X#X#X@X@X@XD.[   ",
"      G.G.Q.X.R.h.d.J / M / / / ! / ! H Z H i.i.6.:.=.=.=.G :.:.K ^ ~ ! ! ) ,.k.f.j._ X.X.X.( ( X.O.Y.$X^.V.F.@X@XR.[   ",
"      c.F.G.X.X.,.^ ~ M M ! ! ! / / H ! ! OXoXp.7.2.=.=.=.=.6.:.:.^ ^ _ ) ) ..d.f.x.j._ _ X.( ( (  .O.O.Y.O.O.N.c.[     ",
"      c.F.G.c...) ~ ! M L ! / / W [ ! ! g.=X+X).i.6.:.G =.7.7.6.5.5.d.' _ g._ d.f.v.B.) ) ) Y Y / (  . .O.O.O.O.X.|     ",
"  ..| [ c.G.F.A.^ ~ ^ ~ E / / [ [ [ W W _.3X*XOXM.7.6.=.6.e.e.7.8.d.d.b.g.g.X.k.x.v.B.g.Y / ( Y T T T T O.( X.X.X.X.    ",
"  ..| [ ..F.B.c.w.<.E L W W [ [ W W W W 3XeX4X&X).i.8.:.F i.i.i.f.k.k.j.R.z.V.f.x.b.B.Y Y / P P P P P T X./ ( ..X.X.    ",
"   .| [ | P.c.h.Q e M >.Z W [ [ W W [ [ 6XaX8X=XOXM.7.8.5.9.n.n.l.l.k.z.V.N.C.j.x.v.c.P I I P P P P P  .O.O.O.E ) X.    ",
"  ....| [ [ h.<.w w -.&.&.A E U W [ 6 1 rXaXaX6X=X).n.8.5.5.).n.n.n.n.M.#X_.W.j.x.w.^ I T I I J E I / O._ ' R.T.c.X.X.  ",
"    ..| [ [ [ Q w -.&.-.B S 6 U W W 1 1 -XaXaXrX4X%X).b.8.` n.%XOXOX=X5X*X*X$XV.-.B , U / / -.J E W / >.! ^ g.W.Q.Q.    ",
"    ..| [ [ } Q S -.-.&.0 8 q < 2 . : : 3 4XaXaXrX8X6X).9.).%X6X6X6X6X6X6X3X<X>.C 8 > : 6 A -.A E W -.A M ! ,.h.Q./.    ",
"    ..| | [ } Q &.&.&.C 0 4 > . : : , 1 1 4 b b ` k ] v v _.`.8X8X8X8X8X8X8X] C B 4 1 > . 1 C 4 q A -.Z N U / h.Q./.    ",
"      ..| [ } J.<.C B B 9 4 > . < , 3 4 4 3 1 3 5 a # m 8 , `.k 9X4XeXeX=Xu X B B 4 1 1 , 1 B 4 1 M &.S N W ) W./.F.    ",
"        | [ Q Q A B B B 4 1 > . . , 5 8 1 4 9 0 b f & 4 5 3 @ @ @ 7 9 1 , o X 5 0 8 4 8 4 3 9 4 3 8 B 9 5 N ! N./.      ",
"                  0 8 &.0 1 : . . . 4 B n B &.&.b c y m n p ; # @ m v 3 + # V n B 4 8 0 n n 8 9 4 5 n 8 4 6 ^ W.        ",
"                    1 4 0 4 > 8 v n v 9 &.-.-.n n l + n v - - & o y - s - m V C -.-.C V &.C &.&.C v v 4 3 3             ",
"                          1 3 5 v v v v 5       v x g v   s d - j c y u V V m n v     v   -.-.                          ",
"                              9 v v v 5           z d     s d - l   v n m n v v                                         ",
"                                                  h -   o s h s s       v                                               ",
"                                                  h h x % s l #.%.                                                      ",
"                                                  h $.h a d @.$.                                                        ",
"                                                  a @.d d h +.%.                                                        ",
"                                                  & x j d h @.%.                                                        ",
"                                                  % l $.d h x $.                                                        ",
"                                                  % h $.; l +.                                                          ",
"                                                  % l @.h l @.                                                          ",
"                                                  ; l x @.l +.                                                          ",
"                                                    h z @.l @.                                                          ",
"                                                    d l l x $.                                                          ",
"                                                    j l h x $.                                                          ",
"                                                    x j z z @.                                                          ",
"                                                    x %.l l h                                                           ",
"                                                  h l $.@.$.d                                                           ",
"                                                  h f @.z x @.                                                          ",
"                                                  a d l h f @.                                                          ",
"                                                  o a f h s l                                                           ",
"                                                  = ; a h a d                                                           ",
"                                                  $ h - h d a                                                           ",
"                                                  % % O j & % %                                                         ",
"                                                  & O $ - $ $ %                                                         ",
"                                                  & $ - o $ $ %                                                         ",
"                                                  % - s o & s $                                                         ",
"                                                * * - a i i s $                                                         ",
"                                      K.J.K.K.P.( I & k o.} R k =   K.  K.I.                                            ",
"                                      r r { { H.J.r ( | K.K.K.T W K.{ J.{ {                                             ",
"                                                          t r                                                           "
};
