/* XPM */
static char *result[] = {
/* columns rows colors chars-per-pixel */
"56 60 233 2 ",
"   c #000102",
".  c #01050C",
"X  c #010B0E",
"o  c #080B0F",
"O  c #030E12",
"+  c #0B0F13",
"@  c #041116",
"#  c #0D1316",
"$  c #0C151A",
"%  c #12161B",
"&  c #14191D",
"*  c #181A1F",
"=  c #081C23",
"-  c #161D23",
";  c #1C1D22",
":  c #1E2026",
">  c #1C242B",
",  c #032B39",
"<  c #1D2B34",
"1  c #192C36",
"2  c #00202B",
"3  c #212026",
"4  c #24242B",
"5  c #2A292E",
"6  c #28272E",
"7  c #242B34",
"8  c #2D2B32",
"9  c #242F39",
"0  c #312E35",
"q  c #2D333C",
"w  c #25323B",
"e  c #34323A",
"r  c #3A353E",
"t  c #343037",
"y  c #271A0E",
"u  c #503C2C",
"i  c #11394B",
"p  c #253C4B",
"a  c #2A3946",
"s  c #3D3943",
"d  c #3D3D4B",
"f  c #363844",
"g  c #213D50",
"h  c #423B46",
"j  c #433E49",
"k  c #572D5B",
"l  c #463D52",
"z  c #59335E",
"x  c #49244D",
"c  c #5D3561",
"v  c #623A66",
"b  c #653C6A",
"n  c #673A69",
"m  c #1A4455",
"M  c #37414D",
"N  c #274657",
"B  c #384757",
"V  c #30504A",
"C  c #1C4D65",
"Z  c #185776",
"A  c #114E69",
"S  c #274C63",
"D  c #2B5568",
"F  c #35536A",
"G  c #265876",
"H  c #365B76",
"J  c #384E61",
"K  c #3A657B",
"L  c #2A607B",
"P  c #45414D",
"I  c #4A434E",
"U  c #464452",
"Y  c #4B4653",
"T  c #4C4956",
"R  c #4E4B5A",
"E  c #464A59",
"W  c #504D5C",
"Q  c #594B47",
"!  c #4A5568",
"~  c #535264",
"^  c #53566A",
"/  c #555A6E",
"(  c #5B536B",
")  c #4A5A75",
"_  c #545B74",
"`  c #535E79",
"'  c #5D5B74",
"]  c #4F4F61",
"[  c #69426E",
"{  c #67426B",
"}  c #6D4572",
"|  c #6F4B73",
" . c #754C7A",
".. c #7A4D7C",
"X. c #754676",
"o. c #6C5474",
"O. c #77547C",
"+. c #62506A",
"@. c #496578",
"#. c #53607D",
"$. c #56697C",
"%. c #40666B",
"&. c #6F657D",
"*. c #9E6A2C",
"=. c #B32850",
"-. c #D13D67",
";. c #A94A6F",
":. c #9F5578",
">. c #E65677",
",. c #C95E7B",
"<. c #D49737",
"1. c #F4B13D",
"2. c #E19F30",
"3. c #D6A154",
"4. c #185E83",
"5. c #1A6289",
"6. c #056B9D",
"7. c #1A6D9D",
"8. c #276788",
"9. c #396986",
"0. c #3D6F9C",
"q. c #3B6D95",
"w. c #38709D",
"e. c #36739D",
"r. c #326F93",
"t. c #086EA2",
"y. c #0E6FA3",
"u. c #2B72A5",
"i. c #2573A8",
"p. c #3471A1",
"a. c #7D5681",
"s. c #7D5A82",
"d. c #77539B",
"f. c #4E6485",
"g. c #4B6A8D",
"h. c #496987",
"j. c #516383",
"k. c #566A84",
"l. c #446C94",
"z. c #416E99",
"x. c #496A91",
"c. c #527790",
"v. c #74688F",
"b. c #7C66A8",
"n. c #7B74A1",
"m. c #835384",
"M. c #8D5B8C",
"N. c #885988",
"B. c #915B8E",
"V. c #825B9C",
"C. c #975D93",
"Z. c #834F81",
"A. c #87648C",
"S. c #896796",
"D. c #97689A",
"F. c #98749A",
"G. c #AC6790",
"H. c #8D68A6",
"J. c #9B79A7",
"K. c #9778B3",
"L. c #8878A8",
"P. c #A377AB",
"I. c #845FA1",
"U. c #F17F9A",
"Y. c #308796",
"T. c #2D93A5",
"R. c #0B9AB0",
"E. c #728199",
"W. c #7695A6",
"Q. c #6492A9",
"!. c #22B2C9",
"~. c #6FCCE1",
"^. c #AD8493",
"/. c #8884AC",
"(. c #8D89B0",
"). c #9A96BC",
"_. c #9E9BBD",
"`. c #9593B7",
"'. c #958DAC",
"]. c #A989B9",
"[. c #A493B5",
"{. c #8EA6B0",
"}. c #A6A9BC",
"|. c #89909A",
" X c #C5859D",
".X c #D3A2BF",
"XX c #F28EA6",
"oX c #9E97C0",
"OX c #A29EC1",
"+X c #A78EC2",
"@X c #A5A2C5",
"#X c #ACAAC6",
"$X c #ADABCB",
"%X c #A9A7C7",
"&X c #B1AECC",
"*X c #AABAC3",
"=X c #A6B8C2",
"-X c #B5B2CE",
";X c #BCB5CB",
":X c #B5B2D1",
">X c #B9B6D3",
",X c #BDBAD5",
"<X c #BEBCD8",
"1X c #D4B5C7",
"2X c #C1BED9",
"3X c #C1BED6",
"4X c #CDB2C8",
"5X c #BBC5CC",
"6X c #BAC6CD",
"7X c #BCCAD1",
"8X c #C4C2DB",
"9X c #C8C6DE",
"0X c #C7CAD8",
"qX c #CAD3D9",
"wX c #CFD1D8",
"eX c #CDCBE2",
"rX c #D1CEE5",
"tX c #D4D2E6",
"yX c #D6D4E8",
"uX c #D8D6EA",
"iX c #DDDBEB",
"pX c #D5DDE2",
"aX c #E1DEEE",
"sX c #DCE3E6",
"dX c #E2E2EE",
"fX c #E5E9EC",
"gX c #E1E5E7",
"hX c #E5E4F1",
"jX c #EAE9F3",
"kX c #E9E7F2",
"lX c #EEF1F2",
"zX c #F8F8F9",
"xX c None",
/* pixels */
"xXxXxXxXxXxXxXxXxXxXxXxXxXxXxXxXxXxXxXxXxXxXxXxXxXxXxXxXxXxXxXxXxXxXxXxXxX7XxXxXxXxXxXxXxXxXxXxXxXxXxXxXxXxXxXxX",
"xXxXxXxXxXxXxXxXxXxXxXxXxXxXxXxXxXxXxXxXxXxXxXxXxXxXxXxXxXxXxXxXxXxXqXgXxX5X0XfXfXxXxXxXxXxXxXxXxXxXxXxXxXxXxXxX",
"xXxXxXxXxXxXxXxXxXxXxXxXxXxXxXxXxXxXxXxXxXxXxXxXxXxXxXxXxXxXxXxXxXzXlXqXzXlXfXlXlXxXxXxXxXxXxXxXxXxXxXxXxXxXxXxX",
"xXxXxXxXxXxXxXxXxXxXxXxXxXxXxXxXxXxXxXxXxXxXxXxXxXxXxXxXxXxXxXxXsXpXlXqXlXpXzXpXpXgX{.xXxXxXxXxXxXxXxXxXxXxXxXxX",
"xXxXxXxXxXxXxXxXxXxXxXxXxXxXxXxXxXxXxXxXxXxXxXxXxXxXxXxXxXxXxXxX0XxXqXqXfXfXfXwXwXlX=XxXxXxXxXxXxXxXxXxXxXxXxXxX",
"xXxXxXxXxXxXxXxXxXxXxXxXxXxXxXxXxXxXxXxXxXxXxXxXxXxXxXxXxXxXxXxXxXxX*X0X7XsX7XpXsX6X6XxXxXxXxXxXxXxXxXxXxXxXxXxX",
"xXxXxXxXxXxXxXxXxXxXxXxXxXxXxXxXxXxXxXxXxXxXxXxXxXxXxXxXxXxXxXxXxXxX*XeX0XqXlXpX6X6X}.sXxXxXxXxXxXxXxXxXxXxXxXxX",
"xXxXxXxXxXxXxXxXxXxXxXxXxXxXxXxXxXxXxXxXxXxXxXxXxXxXxXxXxXxXxXxXxXxXE.{.hXhX@.Y.*X}.=X6XxXxXxXxXxXxXxXxXxXxXxXxX",
"xXxXxXxXxXxXxXxXxXxXxXxXxXxXxXxXxXxXxXxXxXxXxXxXxXxXxXxXxXxXxXxXxXxXW.Y.sXE.T.{.*X=XqXxXxXxXxXxXxXxXxXxXxXxXxXxX",
"xXxXxXxXxXxXxXxXxXxXxXxXxXxXxXxXxXxXxXxXxXxXxXxXxXxXxXxXxXxXxXxXxX5 T.!.-XR.~.W.M }.xXxXxXxXxXxXxXxXxXxXxXxXxXxX",
"xXxXxXxXxXxXxXxXxXxXxXxXxXxXxXxXxXxXxXxXxXxXxXxXxXxXxXxXxXxXxXxXxX'.Y.@.>XD V m }._.fXsXxXxXxXxXxXxXxXxXxXxXxXxX",
"xXxXxXxXxXxXxXxXxXxXxXxXxXxXxXxXxXxXxXxXxXxXxXxXxXxXxXxXxXxXxXxXH.'._.[._.%X=X/.iXn.K.,XfX6XxXxXxXxXxXxXxXxXxXxX",
"xXxXxXxXxXxXxXxXxXxXxXxXxXxXxXxXxXxXxXxXxXxXxX;X8XxXxXxXxXxXxXxX;X9X:.1X.X.XG.G.&X<Xd.b.dXqX7XxXxXxXxXxXxXxXxXxX",
"xXxXxXxXxXxXxXxXxXxXxXxXxXxXxXxXxXxXxXxXxXxX<X[.;.uXxXxXxXxXxX).dXjX X1X XwX|.XXkXdX:XoXqXqXxXxXxXxXxXxXxXxXxXxX",
"xXxXxXxXxXxXxXxXxXxXxXxXxXxXxXxXxXxXxXxXxXxX$X:.^.eXxXxXxX&XiX9XkX3X-.zXzXzXG.hXkXhXeX$X8XxXxXxXxXxXxXxXxXxXxXxX",
"xXxXxXxXxXxXxXxXxXxXxXxXxXxXxXxXxXxXxXxXxXxXxXOX>X$XxXxX9XdX0X2XkX1X>.U.XX>.;.jXkXiX<X%XuXiX8XxXxXxXxXxXxXxXxXxX",
"xXxXxXxXxXxXxXxXxXxXxXxXxXxXxXxXxXxXxXxXxXxXxXxX-XuX9X#XiXdX9X-XiXyX;.=.=.:.yXkXaXeX%X(.aXhXhXaXxXxXxXxXxX3XxXxX",
"xXxXxXxXxXxXxXxXxXxXxXxXxXxXxXxXxXxXxXxXxXxXxXxXyXiXeX>XyXyXtX`.>X8XsXdX&X9XhXuXeX%XoX2XhXkXjXkXdXxXxX0XtX$X3XxX",
"xXxXxXxXxXxXxXxXxXxXxXxXxXxXxXxXxXxXxXxXxXxXxX3XuXaXeX;X>X>XyX`.@X$X/.(.OXeX8X:X$X/.OXaXkXjXjXjXhXiXxXaXF.;.>X-X",
"xXxXxXxXxXxXxXxXxXxXxXxXxXxXxXxXxXxXxXxXxXxX#X2XiXhXeX:X#XdXiX>XB (.$X#X&X:X&X(.L.$XyXuXhXjXjXjXkXaX&X&XhX4X`.#X",
"xXxXxXxXxXxXxXxXxXxXxXxXxXxXxXxXxXxXxXxXxXxX-X9XiX9Xc.p.Q.0XtX$XoX3.F.L.d ' oX:XrXyXyXuXuXhXhXjXkX;XdX2XOXxXxXxX",
"xXxXxXxXxXxXxXxXxXxXxXxXxXxXxXxXxXxXxXxXxXxX&X9XeXJ ^ ` ) ` k.<.1.<.1.;XrXaXdXaXuXtXeXeXrXuXaXhX3XkXaX8XxXxXxXxX",
"xXxXxXxXxXxXxXxXxXxXxXxXxXxXxXxXxXxXxXxXxX$X#X9X%X< 5 e r e f Q <.1.2.'.hXkXjXiXtX8X>X>X<XeXeXrXhXaXiX3XxXxXxXxX",
"xXxXxXxXxXxXxXxXxXxXxXxXxXxXxXxXxXxXxXxXxX$X@X<X9X5.O + O . . O y *.u j.0.W.hXtX8X%XOX%X:X:XrXaXdXaXuX:X#XxXxXxX",
"xXxXxXxXxXxXxXxXxXxXxXxXxXxXxXxXxXxXxXxXxXxXOX%X{.e.i.u.p.z.) 7 1 8 W _ j.k.$.<XOX`./.@X%X<XiXhXaXiXrX$X&XxXxXxX",
"xXxXxXxXxXxXxXxXxXxXxXxXxXxXxXxXxXxXxXxXxXxX#Xu.u.l.f.j.j.x.z.z.H - h W ~ ~ ^ _ `.W.n.@X).tXiXhXiXuXeX@X,XxXxXxX",
"xXxXxXxXxXxXxXxXxXxXxXxXxXxXxXxXxXxXxXxXxXxXp.x.^ U d h j Y / g.x.1 @ 8 f j I Y ] b.b.$X>XtXiXiXuXyX2XOX2XxXxXxX",
"xXxXxXxXxXxXxXxXxXxXxXxXxXxXxXxXxXxXxXxXxXz.` U 0 ; % % ; 5 s R ` k.O X o # * 7 r W v.$X>XeXiXiXuXrX:XoX2XxXxXxX",
"xXxXxXxXxXxXxXxXxXxXxXxXxXxXxXxXxXxXxXxXx./ s ; .   . o .   # 8 T / $.D m g N e h I I _.$XeXyXyXyX2X#X).2XxXxXxX",
"xXxXxXxXxXxXxXxXxXxXxXxXxXxXxXxXxXxXxXx._ f q r.i.i.u.u.q.N   . 5 Y ~ f F C , > 4 8 r ' @X>X9XeXeX:XOX).#XxXxXxX",
"xXxXxXxXxXxXxXxXxXxXxXxXxXxXxXxXxXxXl.` j e.u.l.f.` ` ` f.z.p.9 o r Y W 7 < a p N S i + >X@X$X:X%XoX`.:XxXxXxXxX",
"xXxXxXxXxXxXxXxXxXxXxXxXxXxXxXxXxXx.j.R u.l.j.^ T U j I W ^ j.p.N & h I W ^ _ _ #.^ a = n.oX).oX).`.OX`.xXxXxXxX",
"xXxXxXxXxXxXxXxXxXxXxXxXxXxXxXxXg.g.] w.l.` W r 4 ; ; 3 8 h T ` 0.g 0 Y T ~ / #.' #.) M . _.).`.[.$Xn.Z xXxXxXxX",
"xXxXxX) x.) ! ! ! xXxXxXxXxXxXxXl.^ @.l.` T 0 3 9 B d 8 * 3 r T j.p.1 h Y R ~ ( / #.` E - # >X:Xk.% = N 6.xXxXxX",
"xXp ! / 8 o 9 e = xXxXxXxXxXxXz./ U w.j.] 0 ; F k n m.a.n l ; r ~ x.h.4 h I Y W ~ ^ ^ E 9 .         O p 5.xXxXxX",
"Z 0 f.f 7 xX].D.& xXxXxXxXxXw.` Y h.g.~ s 3 F ; W n d.P.B.M...3 j ` z.C 0 h h I Y R W T r %         @ p G t.xXxX",
"i q x.d xXxXB N xXxXxXxXxXw.j.T r 0.` I 6 S % 4 Y O.} ].D.D.H.o.8 T j.x.i 0 e r s j P P r :         % w G 6.xXxX",
"A : ~ z.xXxXxXxXxXxXxXxXw.j.T r K k.] e w B % 7 T _ X.Z.B.M.K.D.8 h R f.9.1 3 5 8 8 t t 5 #       O & 9 G t.xXxX",
"8.X 0 ^ l.0.q.l.l.z.0.f./ I 0 * w._ P 4 Z % < 8 j ] X. .:.Z.} N.a.0 j ] ` 9.i @ # ; 3 *       X . O ; a G 6.xXxX",
"xXZ O ; j ^ _ ` ` / R j 0 * . H j.] e 7 K > M 7 s U ..b d. .M.C.M.; t h U ! ! H F N i 1 % * * % . O - p 5.t.xXxX",
"xXxX8., . @ ; 3 : & @ .   @ C q./ I 4 N xXN p N f f a.c K.A.m.B.M.: 3 5 0 s d d r 9 5 4 3 3 * % X @ < F 6.xXxXxX",
"xXxXxXxX9.A i , = 2 , A G xXw.j.W e : 8.xX@.N w F 8 a.k O.v  .D.N.e # % ; 3 4 8 5 5 6 3 : * & + X - p 8.t.xXxXxX",
"xXxXxXxXxXxXxXxXxXxXxXxXxXl.g.^ P 3 p $.xXxXxXw w 9 s.c c {  .d.D.j @ O o # $ % * & & % % # # X @ w L t.xXxXxXxX",
"xXxXxXxXxXxXk.$.#.xXxXxXc.x._ Y 8 : 5.xXxXxXxXxXB g a.k v { [ +XD.l O X X X X X X X X X O X X @ < F y.9.xXxXxXxX",
"xXxXxXxX) h.D.P.P.A.xXx.g.#.W r ; p h.xXxXxXxXxXxXC o.z d.N.[ { Z.l X X O . X .           . @ 9 H y.h.xXxXxXxXxX",
"xXxXxXxXd q.k.xXxXl.e.g.` R r 3 7 5.xXxXxXxXxXxXxXG +.k H.].| m.B.l @ X X . .         . @ - p H y.xXxXxXxXxXxXxX",
"xXxXxXxXN j f.q.l.j._ ^ Y t 3 3 4.xXxXxXxXxXxXxXxXG Y k J...[ H.D.] > * $ + O X O O % > a H 7.q.xXxXxXxXxXxXxXxX",
"xXxXxXxX9.4 e P T R P e 4 * < 5.xXxXxXxXxXxXxXxXxXG 0 v z n [ K.K.$.) B a f f a d B H 8.r.k.xXxXxXxXxXxXxXxXxXxX",
"xXxXxXxXxX9.w ; 3 3 ; ; > m 8.xXxXxXxXxXxXxXxXxXxX9.: b ..S.[ { J.s.xXxXxX$.$.h.k.$.xXxXxXxXxXxXxXxXxXxXxXxXxXxX",
"xXxXxXxXxXxXxX8.Z C A 4.9.xXxXxXxXxXxXxXxXxXxXxXxXxX> ..a.H. .X.m.A.xXxXxXxXxXxXxXxXxXxXxXxXxXxXxXxXxXxXxXxXxXxX",
"xXxXxXxXxXxXxXxXxXxXxXxXxXxXxXxXxXxXxXxXxXxXxXxXxXxXg o.x ].c } D.M.xXxXxXxXxXxXxXxXxXxXxXxXxXxXxXxXxXxXxXxXxXxX",
"xXxXxXxXxXxXxXxXxXxXxXxXxXxXxXxXxXxXxXxXxXxXxXxXxXxXG 7 v k b } J.K.xXxXxXxXxXxXxXxXxXxXxXxXxXxXxXxXxXxXxXxXxXxX",
"xXxXxXxXxXxXxXxXxXxXxXxXxXxXxXxXxXxXxXxXxXxXxXxXxXxXxX1 a.k v [ { ].N.xXxXxXxXxXxXxXxXxXxXxXxXxXxXxXxXxXxXxXxXxX",
"xXxXxXxXxXxXxXxXxXxXxXxXxXxXxXxXxXxXxXxXxXxXxXxXxXxXxXK e v c  .[ | B.xXxXxXxXxXs.N.D.K.| xXxXxXxXxXxXxXxXxXxXxX",
"xXxXxXxXxXxXxXxXxXxXxXxXxXxXxXxXxXxXxXxXxXxXxXxXxXxXxXxXD o.z V.A.| N.B.xXxXxXN.H.z v ..N.H.xXxXxXxXxXxXxXxXxXxX",
"xXxXxXxXxXxXxXxXxXxXxXxXxXxXxXxXxXxXxXxXxXxXxXxXxXxXxXxXxXS o.S.J.b a.d.D.xXxX{ &.xXxXD.V.O.xXxXxXxXxXxXxXxXxXxX",
"xXxXxXxXxXxXxXxXxXxXxXxXxXxXxXxXxXxXxXxXxXxXxXxXxXxXxXxXxXxXJ o.k z v { X.B.M.S.s.s.M...x &.xXxXxXxXxXxXxXxXxXxX",
"xXxXxXxXxXxXxXxXxXxXxXxXxXxXxXxXxXxXxXxXxXxXxXxXxXxXxXxXxXxXxX! ( v k v ......].A.m.D.b O.xXxXxXxXxXxXxXxXxXxXxX",
"xXxXxXxXxXxXxXxXxXxXxXxXxXxXxXxXxXxXxXxXxXxXxXxXxXxXxXxXxXxXxXxXxXB O.v K.K.z x z J.J.o.xXxXxXxXxXxXxXxXxXxXxXxX",
"xXxXxXxXxXxXxXxXxXxXxXxXxXxXxXxXxXxXxXxXxXxXxXxXxXxXxXxXxXxXxXxXxXxXxX] W W ..O.O.v.xXxXxXxXxXxXxXxXxXxXxXxXxXxX"
};
